Nunito-SemiBoldItalic.ufo
<glyph name="exclam" format="2">
  <advance width="237.3012048192771"/>
  <unicode hex="0021"/>
  <outline>
    <contour>
      <point x="113.48192771084338" y="193.5421686746988" type="curve" smooth="yes"/>
      <point x="132.85542168674698" y="193.5421686746988"/>
      <point x="144.5421686746988" y="205.80722891566265"/>
      <point x="149.09638554216866" y="224.89156626506025" type="curve" smooth="yes"/>
      <point x="239.67469879518072" y="641.4819277108434" type="line" smooth="yes"/>
      <point x="249.78313253012047" y="685.3614457831326"/>
      <point x="228.6987951807229" y="712.4216867469879"/>
      <point x="188.95180722891567" y="712.4216867469879" type="curve" smooth="yes"/>
      <point x="150.91566265060243" y="712.4216867469879"/>
      <point x="128.8313253012048" y="692.7590361445783"/>
      <point x="125.40963855421687" y="653.3012048192771" type="curve" smooth="yes"/>
      <point x="83.42168674698794" y="230.44578313253012" type="line" smooth="yes"/>
      <point x="81.0" y="204.09638554216866"/>
      <point x="93.10843373493975" y="193.5421686746988"/>
    </contour>
    <contour>
      <point x="91.06024096385542" y="-4.421686746987952" type="curve" smooth="yes"/>
      <point x="130.12048192771084" y="-4.421686746987952"/>
      <point x="154.36144578313252" y="22.240963855421686"/>
      <point x="154.36144578313252" y="59.87951807228916" type="curve" smooth="yes"/>
      <point x="154.36144578313252" y="96.80722891566265"/>
      <point x="130.12048192771084" y="122.75903614457832"/>
      <point x="91.06024096385542" y="122.75903614457832" type="curve" smooth="yes"/>
      <point x="52.0" y="122.75903614457832"/>
      <point x="26.759036144578314" y="96.80722891566265"/>
      <point x="26.759036144578314" y="59.87951807228916" type="curve" smooth="yes"/>
      <point x="26.759036144578314" y="22.240963855421686"/>
      <point x="52.0" y="-4.421686746987952"/>
    </contour>
  </outline>
</glyph>
<glyph name="numbersign" format="2">
  <advance width="600.0"/>
  <unicode hex="0023"/>
  <outline>
    <contour>
      <point x="84.95180722891567" y="-7.421686746987952" type="curve" smooth="yes"/>
      <point x="106.06024096385542" y="-7.421686746987952"/>
      <point x="121.45783132530119" y="3.8433734939759034"/>
      <point x="130.0120481927711" y="27.50602409638554" type="curve" smooth="yes"/>
      <point x="183.06024096385545" y="177.49397590361446" type="line"/>
      <point x="326.6987951807229" y="177.49397590361446" type="line"/>
      <point x="278.7831325301205" y="42.903614457831324" type="line" smooth="yes"/>
      <point x="267.8072289156627" y="12.108433734939759"/>
      <point x="276.3614457831325" y="-7.421686746987952"/>
      <point x="302.1566265060241" y="-7.421686746987952" type="curve" smooth="yes"/>
      <point x="323.26506024096386" y="-7.421686746987952"/>
      <point x="338.66265060240966" y="3.8433734939759034"/>
      <point x="347.2168674698795" y="27.50602409638554" type="curve" smooth="yes"/>
      <point x="405.2650602409638" y="188.49397590361446" type="line"/>
      <point x="375.6024096385542" y="177.49397590361446" type="line"/>
      <point x="497.4096385542168" y="177.49397590361446" type="line" smooth="yes"/>
      <point x="524.7831325301205" y="177.49397590361446"/>
      <point x="539.7590361445783" y="192.6024096385542"/>
      <point x="539.7590361445783" y="215.42168674698797" type="curve" smooth="yes"/>
      <point x="539.7590361445783" y="243.90361445783134"/>
      <point x="514.4096385542169" y="245.9277108433735"/>
      <point x="500.8313253012048" y="245.9277108433735" type="curve" smooth="yes"/>
      <point x="399.26506024096386" y="245.9277108433735" type="line"/>
      <point x="422.2168674698795" y="237.79518072289156" type="line"/>
      <point x="507.26506024096386" y="479.07228915662654" type="line"/>
      <point x="477.6024096385542" y="467.0722891566265" type="line"/>
      <point x="563.8313253012049" y="467.0722891566265" type="line" smooth="yes"/>
      <point x="591.2048192771084" y="467.0722891566265"/>
      <point x="606.1807228915662" y="482.1807228915663"/>
      <point x="606.1807228915662" y="505.71084337349396" type="curve" smooth="yes"/>
      <point x="606.1807228915662" y="534.1927710843373"/>
      <point x="580.8313253012049" y="536.2168674698795"/>
      <point x="567.2530120481928" y="536.2168674698795" type="curve" smooth="yes"/>
      <point x="498.71084337349396" y="536.2168674698795" type="line"/>
      <point x="523.9277108433736" y="524.2168674698795" type="line"/>
      <point x="572.5542168674699" y="662.8072289156627" type="line" smooth="yes"/>
      <point x="583.5301204819277" y="693.6024096385543"/>
      <point x="574.9759036144578" y="712.4216867469879"/>
      <point x="549.1807228915662" y="712.4216867469879" type="curve" smooth="yes"/>
      <point x="527.3614457831326" y="712.4216867469879"/>
      <point x="511.67469879518075" y="701.156626506024"/>
      <point x="503.4096385542169" y="677.4939759036146" type="curve" smooth="yes"/>
      <point x="453.65060240963857" y="536.2168674698795" type="line"/>
      <point x="309.0120481927711" y="536.2168674698795" type="line"/>
      <point x="353.6385542168675" y="662.8072289156627" type="line" smooth="yes"/>
      <point x="364.6144578313253" y="693.6024096385543"/>
      <point x="356.0602409638554" y="712.4216867469879"/>
      <point x="330.55421686746985" y="712.4216867469879" type="curve" smooth="yes"/>
      <point x="309.4457831325301" y="712.4216867469879"/>
      <point x="294.04819277108436" y="701.156626506024"/>
      <point x="285.49397590361446" y="677.4939759036146" type="curve" smooth="yes"/>
      <point x="231.44578313253012" y="524.2168674698795" type="line"/>
      <point x="261.1084337349398" y="536.2168674698795" type="line"/>
      <point x="139.3012048192771" y="536.2168674698795" type="line" smooth="yes"/>
      <point x="111.21686746987952" y="536.2168674698795"/>
      <point x="96.95180722891567" y="521.1084337349398"/>
      <point x="96.95180722891567" y="498.28915662650604" type="curve" smooth="yes"/>
      <point x="96.95180722891567" y="469.09638554216866"/>
      <point x="122.3012048192771" y="467.0722891566265"/>
      <point x="135.16867469879517" y="467.0722891566265" type="curve" smooth="yes"/>
      <point x="237.44578313253012" y="467.0722891566265" type="line"/>
      <point x="215.78313253012047" y="479.07228915662654" type="line"/>
      <point x="130.73493975903614" y="237.79518072289156" type="line"/>
      <point x="159.10843373493975" y="245.9277108433735" type="line"/>
      <point x="72.16867469879517" y="245.9277108433735" type="line" smooth="yes"/>
      <point x="44.79518072289157" y="245.9277108433735"/>
      <point x="29.819277108433734" y="231.53012048192772"/>
      <point x="29.819277108433734" y="208.0" type="curve" smooth="yes"/>
      <point x="29.819277108433734" y="179.5180722891566"/>
      <point x="55.168674698795186" y="177.49397590361446"/>
      <point x="68.74698795180723" y="177.49397590361446" type="curve" smooth="yes"/>
      <point x="138.289156626506" y="177.49397590361446" type="line"/>
      <point x="113.07228915662651" y="188.49397590361446" type="line"/>
      <point x="60.867469879518076" y="42.903614457831324" type="line" smooth="yes"/>
      <point x="49.891566265060234" y="12.108433734939759"/>
      <point x="58.44578313253012" y="-7.421686746987952"/>
    </contour>
    <contour>
      <point x="206.72289156626505" y="245.9277108433735" type="line"/>
      <point x="285.06024096385545" y="467.0722891566265" type="line"/>
      <point x="429.69879518072287" y="467.0722891566265" type="line"/>
      <point x="351.3614457831326" y="245.9277108433735" type="line"/>
    </contour>
  </outline>
</glyph>
<glyph name="dollar" format="2">
  <advance width="600.0"/>
  <unicode hex="0024"/>
  <outline>
    <contour>
      <point x="256.13253012048193" y="-122.42168674698794" type="curve" smooth="yes"/>
      <point x="278.50602409638554" y="-122.42168674698794"/>
      <point x="295.0361445783132" y="-109.73493975903614"/>
      <point x="298.4578313253012" y="-87.78313253012048" type="curve" smooth="yes"/>
      <point x="314.32530120481925" y="13.55421686746988" type="line"/>
      <point x="295.7710843373494" y="-4.710843373493976" type="line"/>
      <point x="432.6144578313253" y="-0.3132530120481931"/>
      <point x="549.7469879518072" y="70.81927710843374"/>
      <point x="549.7469879518072" y="201.7710843373494" type="curve" smooth="yes"/>
      <point x="549.7469879518072" y="292.1927710843373"/>
      <point x="493.1927710843373" y="351.0120481927711"/>
      <point x="371.27710843373495" y="383.0361445783132" type="curve" smooth="yes"/>
      <point x="278.1927710843374" y="407.16867469879514" type="line" smooth="yes"/>
      <point x="215.27710843373495" y="423.6144578313253"/>
      <point x="186.2289156626506" y="450.34939759036143"/>
      <point x="186.2289156626506" y="509.89156626506025" type="curve" smooth="yes"/>
      <point x="186.2289156626506" y="580.8795180722891"/>
      <point x="250.16867469879517" y="621.7951807228916"/>
      <point x="351.0" y="621.7951807228916" type="curve" smooth="yes"/>
      <point x="414.0722891566265" y="621.7951807228916"/>
      <point x="469.3855421686747" y="604.9036144578313"/>
      <point x="518.2530120481928" y="569.8313253012049" type="curve" smooth="yes"/>
      <point x="577.6626506024096" y="531.3253012048192"/>
      <point x="607.1927710843373" y="609.1084337349398"/>
      <point x="571.1566265060242" y="636.4819277108434" type="curve" smooth="yes"/>
      <point x="526.7349397590363" y="673.1084337349398"/>
      <point x="470.5542168674699" y="696.289156626506"/>
      <point x="414.7710843373494" y="705.289156626506" type="curve"/>
      <point x="422.6144578313253" y="696.5783132530121" type="line"/>
      <point x="435.48192771084337" y="779.0722891566265" type="line" smooth="yes"/>
      <point x="440.6144578313253" y="810.156626506024"/>
      <point x="421.6626506024096" y="823.5542168674698"/>
      <point x="398.578313253012" y="823.5542168674698" type="curve" smooth="yes"/>
      <point x="374.78313253012044" y="823.5542168674698"/>
      <point x="357.9638554216868" y="810.156626506024"/>
      <point x="354.5421686746988" y="788.9156626506025" type="curve" smooth="yes"/>
      <point x="339.9638554216868" y="697.8674698795181" type="line"/>
      <point x="352.6506024096385" y="710.4216867469879" type="line"/>
      <point x="204.36144578313252" y="710.7349397590361"/>
      <point x="83.2289156626506" y="636.0481927710844"/>
      <point x="83.2289156626506" y="501.3614457831325" type="curve" smooth="yes"/>
      <point x="83.2289156626506" y="400.6265060240964"/>
      <point x="142.93975903614458" y="346.38554216867465"/>
      <point x="237.20481927710844" y="321.6746987951807" type="curve" smooth="yes"/>
      <point x="330.28915662650604" y="297.54216867469876" type="line" smooth="yes"/>
      <point x="417.433734939759" y="274.7831325301205"/>
      <point x="446.7469879518072" y="245.6024096385542"/>
      <point x="446.7469879518072" y="191.3734939759036" type="curve" smooth="yes"/>
      <point x="446.7469879518072" y="121.5421686746988"/>
      <point x="379.0722891566265" y="83.20481927710843"/>
      <point x="289.421686746988" y="83.20481927710843" type="curve" smooth="yes"/>
      <point x="208.6144578313253" y="83.20481927710843"/>
      <point x="144.06024096385542" y="101.65060240963855"/>
      <point x="91.48192771084338" y="135.9879518072289" type="curve" smooth="yes"/>
      <point x="32.915662650602414" y="172.0722891566265"/>
      <point x="-4.722891566265059" y="89.44578313253012"/>
      <point x="46.13253012048193" y="57.36144578313253" type="curve" smooth="yes"/>
      <point x="97.13253012048193" y="22.44578313253012"/>
      <point x="169.57831325301203" y="-0.7108433734939759"/>
      <point x="245.22891566265062" y="-4.710843373493976" type="curve"/>
      <point x="231.67469879518075" y="12.975903614457831" type="line"/>
      <point x="217.80722891566268" y="-74.80722891566265" type="line" smooth="yes"/>
      <point x="212.67469879518075" y="-106.3132530120482"/>
      <point x="227.78313253012047" y="-122.42168674698794"/>
    </contour>
  </outline>
</glyph>
<glyph name="ampersand" format="2">
  <advance width="708.0722891566265"/>
  <unicode hex="0026"/>
  <outline>
    <contour>
      <point x="258.34939759036143" y="-9.421686746987952" type="curve" smooth="yes"/>
      <point x="355.5301204819277" y="-9.421686746987952"/>
      <point x="438.2409638554217" y="29.313253012048193"/>
      <point x="501.50602409638554" y="95.78313253012048" type="curve"/>
      <point x="478.81927710843377" y="96.49397590361446" type="line"/>
      <point x="545.0" y="8.975903614457831" type="line" smooth="yes"/>
      <point x="555.6867469879519" y="-5.132530120481928"/>
      <point x="572.3493975903614" y="-8.132530120481928"/>
      <point x="586.7469879518072" y="-8.132530120481928" type="curve" smooth="yes"/>
      <point x="627.9156626506025" y="-8.132530120481928"/>
      <point x="648.5783132530121" y="27.19277108433735"/>
      <point x="621.5180722891566" y="59.674698795180724" type="curve" smooth="yes"/>
      <point x="540.4939759036145" y="162.48192771084337" type="line"/>
      <point x="540.9397590361446" y="135.24096385542168" type="line"/>
      <point x="596.3373493975904" y="206.92771084337352"/>
      <point x="628.3614457831326" y="271.91566265060237"/>
      <point x="655.7590361445783" y="378.89156626506025" type="curve" smooth="yes"/>
      <point x="663.7349397590361" y="408.81927710843377"/>
      <point x="647.4939759036145" y="424.9277108433735"/>
      <point x="618.1445783132531" y="424.9277108433735" type="curve" smooth="yes"/>
      <point x="592.3493975903615" y="424.9277108433735"/>
      <point x="577.9518072289156" y="412.2409638554217"/>
      <point x="570.6867469879519" y="387.1566265060241" type="curve" smooth="yes"/>
      <point x="548.710843373494" y="303.84337349397595"/>
      <point x="527.5060240963855" y="251.3855421686747"/>
      <point x="488.50602409638554" y="197.25301204819277" type="curve"/>
      <point x="507.8795180722892" y="197.25301204819277" type="line"/>
      <point x="359.2289156626506" y="393.86746987951807" type="line"/>
      <point x="357.2289156626506" y="368.20481927710847" type="line"/>
      <point x="456.855421686747" y="423.83132530120486"/>
      <point x="540.3855421686746" y="483.49397590361446"/>
      <point x="540.3855421686746" y="580.9156626506024" type="curve" smooth="yes"/>
      <point x="540.3855421686746" y="659.7349397590361"/>
      <point x="480.0120481927711" y="714.4216867469879"/>
      <point x="388.92771084337346" y="714.4216867469879" type="curve" smooth="yes"/>
      <point x="269.86746987951807" y="714.4216867469879"/>
      <point x="186.51807228915663" y="639.0481927710844"/>
      <point x="186.51807228915663" y="531.3855421686748" type="curve" smooth="yes"/>
      <point x="186.51807228915663" y="486.96385542168673"/>
      <point x="204.51807228915663" y="438.09638554216866"/>
      <point x="247.5421686746988" y="385.1807228915663" type="curve"/>
      <point x="264.3373493975904" y="406.9759036144578" type="line"/>
      <point x="227.91566265060243" y="386.9759036144578" type="line" smooth="yes"/>
      <point x="134.12048192771084" y="335.28915662650604"/>
      <point x="47.02409638554217" y="259.13253012048193"/>
      <point x="47.02409638554217" y="151.24096385542168" type="curve" smooth="yes"/>
      <point x="47.02409638554217" y="53.68674698795181"/>
      <point x="128.13253012048193" y="-9.421686746987952"/>
    </contour>
    <contour>
      <point x="270.9879518072289" y="72.22891566265059" type="curve" smooth="yes"/>
      <point x="190.2048192771084" y="72.22891566265059"/>
      <point x="148.02409638554218" y="105.54216867469879"/>
      <point x="148.02409638554218" y="164.6144578313253" type="curve" smooth="yes"/>
      <point x="148.02409638554218" y="241.66265060240966"/>
      <point x="208.33734939759034" y="287.86746987951807"/>
      <point x="280.6144578313253" y="329.3855421686747" type="curve" smooth="yes"/>
      <point x="312.7710843373494" y="347.5421686746988" type="line"/>
      <point x="275.46987951807233" y="352.09638554216866" type="line"/>
      <point x="448.49397590361446" y="128.6867469879518" type="line"/>
      <point x="453.33734939759034" y="157.2168674698795" type="line"/>
      <point x="404.3132530120482" y="101.27710843373494"/>
      <point x="346.9518072289157" y="72.22891566265059"/>
    </contour>
    <contour>
      <point x="383.6626506024096" y="639.8795180722891" type="curve" smooth="yes"/>
      <point x="427.421686746988" y="639.8795180722891"/>
      <point x="454.18072289156623" y="616.6746987951808"/>
      <point x="454.18072289156623" y="576.9156626506024" type="curve" smooth="yes"/>
      <point x="454.18072289156623" y="519.7590361445783"/>
      <point x="411.33734939759034" y="479.7590361445783"/>
      <point x="310.48192771084337" y="427.7710843373494" type="curve"/>
      <point x="332.5903614457831" y="425.7951807228916" type="line"/>
      <point x="293.12048192771084" y="477.86746987951807"/>
      <point x="281.1204819277108" y="503.60240963855426"/>
      <point x="281.1204819277108" y="539.6506024096385" type="curve" smooth="yes"/>
      <point x="281.1204819277108" y="598.2530120481928"/>
      <point x="321.4578313253012" y="639.8795180722891"/>
    </contour>
  </outline>
</glyph>
<glyph name="quotesingle" format="2">
  <advance width="231.14457831325302"/>
  <unicode hex="0027"/>
  <outline>
    <contour>
      <point x="146.50602409638552" y="414.8072289156627" type="curve" smooth="yes"/>
      <point x="163.74698795180723" y="414.8072289156627"/>
      <point x="179.27710843373495" y="424.65060240963857"/>
      <point x="185.5421686746988" y="450.15662650602405" type="curve" smooth="yes"/>
      <point x="233.67469879518072" y="649.5903614457832" type="line" smooth="yes"/>
      <point x="243.78313253012047" y="689.3373493975903"/>
      <point x="218.43373493975903" y="712.4216867469879"/>
      <point x="182.95180722891567" y="712.4216867469879" type="curve" smooth="yes"/>
      <point x="150.3132530120482" y="712.4216867469879"/>
      <point x="128.51807228915663" y="690.7590361445783"/>
      <point x="126.80722891566266" y="661.6987951807229" type="curve" smooth="yes"/>
      <point x="112.18072289156626" y="456.13253012048193" type="line" smooth="yes"/>
      <point x="110.18072289156628" y="425.49397590361446"/>
      <point x="124.28915662650603" y="414.8072289156627"/>
    </contour>
  </outline>
</glyph>
<glyph name="parenleft" format="2">
  <advance width="335.73493975903614"/>
  <unicode hex="0028"/>
  <outline>
    <contour>
      <point x="143.10843373493975" y="-152.9156626506024" type="curve" smooth="yes"/>
      <point x="159.34939759036146" y="-204.5301204819277"/>
      <point x="236.99999999999997" y="-190.5542168674699"/>
      <point x="227.02409638554218" y="-127.3012048192771" type="curve" smooth="yes"/>
      <point x="213.57831325301203" y="-48.25301204819277"/>
      <point x="205.710843373494" y="25.819277108433738"/>
      <point x="205.710843373494" y="98.57831325301206" type="curve" smooth="yes"/>
      <point x="205.710843373494" y="304.7831325301205"/>
      <point x="258.4698795180723" y="479.3012048192771"/>
      <point x="350.7831325301205" y="648.433734939759" type="curve" smooth="yes"/>
      <point x="378.86746987951807" y="701.0240963855422"/>
      <point x="309.9036144578313" y="734.3734939759036"/>
      <point x="277.55421686746985" y="690.7590361445783" type="curve" smooth="yes"/>
      <point x="172.84337349397592" y="547.1325301204819"/>
      <point x="97.73493975903614" y="340.50602409638554"/>
      <point x="97.73493975903614" y="128.3012048192771" type="curve" smooth="yes"/>
      <point x="97.73493975903614" y="38.16867469879517"/>
      <point x="112.86746987951807" y="-55.096385542168676"/>
    </contour>
  </outline>
</glyph>
<glyph name="parenright" format="2">
  <advance width="335.73493975903614"/>
  <unicode hex="0029"/>
  <outline>
    <contour>
      <point x="158.72289156626505" y="428.7951807228916" type="curve" smooth="yes"/>
      <point x="175.44578313253012" y="518.578313253012"/>
      <point x="126.71084337349396" y="567.9277108433735"/>
      <point x="135.24096385542168" y="577.5421686746988" type="curve" smooth="yes"/>
      <point x="143.77108433734938" y="549.6746987951807"/>
      <point x="144.69879518072293" y="527.0722891566265"/>
      <point x="138.91566265060243" y="504.0481927710843" type="curve" smooth="yes"/>
      <point x="136.89156626506025" y="370.13253012048193"/>
      <point x="91.93975903614458" y="248.8192771084337"/>
      <point x="29.40963855421687" y="120.16867469879526" type="curve" smooth="yes"/>
      <point x="10.578313253012055" y="49.65060240963851"/>
      <point x="73.46987951807228" y="-2.3855421686746467"/>
      <point x="101.19277108433734" y="10.867469879518126" type="curve" smooth="yes"/>
      <point x="176.5421686746988" y="46.34939759036146"/>
      <point x="213.63855421686748" y="132.0"/>
      <point x="185.01204819277106" y="230.85542168674695" type="curve" smooth="yes"/>
      <point x="180.38554216867468" y="287.73493975903614"/>
      <point x="178.55421686746985" y="350.3493975903615"/>
    </contour>
  </outline>
</glyph>
<glyph name="asterisk" format="2">
  <advance width="451.5542168674699"/>
  <unicode hex="002A"/>
  <outline>
    <contour>
      <point x="172.44578313253012" y="363.2048192771084" type="curve" smooth="yes"/>
      <point x="192.6867469879518" y="351.2289156626506"/>
      <point x="212.2168674698795" y="361.7831325301205"/>
      <point x="224.4819277108434" y="386.0240963855422" type="curve" smooth="yes"/>
      <point x="277.55421686746985" y="490.2530120481928" type="line"/>
      <point x="265.1566265060241" y="490.2530120481928" type="line"/>
      <point x="317.2289156626506" y="386.3132530120482" type="line" smooth="yes"/>
      <point x="328.78313253012044" y="362.0722891566265"/>
      <point x="349.31325301204816" y="351.51807228915663"/>
      <point x="370.2650602409638" y="364.2048192771084" type="curve" smooth="yes"/>
      <point x="390.2168674698795" y="375.89156626506025"/>
      <point x="391.6385542168675" y="396.421686746988"/>
      <point x="377.6626506024096" y="418.5301204819277" type="curve" smooth="yes"/>
      <point x="311.0602409638554" y="523.1807228915662" type="line"/>
      <point x="297.2409638554216" y="502.67469879518075" type="line"/>
      <point x="422.0481927710843" y="497.5421686746988" type="line" smooth="yes"/>
      <point x="449.0" y="496.12048192771084"/>
      <point x="466.39759036144574" y="508.51807228915663"/>
      <point x="466.39759036144574" y="532.1807228915662" type="curve" smooth="yes"/>
      <point x="466.39759036144574" y="554.843373493976"/>
      <point x="449.0" y="567.2409638554217"/>
      <point x="422.0481927710843" y="565.8192771084338" type="curve" smooth="yes"/>
      <point x="297.2409638554216" y="559.9759036144578" type="line"/>
      <point x="311.0602409638554" y="540.4698795180723" type="line"/>
      <point x="377.6626506024096" y="644.4096385542168" type="line" smooth="yes"/>
      <point x="392.34939759036143" y="667.2289156626506"/>
      <point x="390.2168674698795" y="687.7590361445783"/>
      <point x="370.2650602409638" y="700.4457831325301" type="curve" smooth="yes"/>
      <point x="350.31325301204816" y="712.4216867469879"/>
      <point x="329.0722891566265" y="701.8674698795181"/>
      <point x="317.2289156626506" y="677.3373493975904" type="curve" smooth="yes"/>
      <point x="265.1566265060241" y="573.8192771084338" type="line"/>
      <point x="277.55421686746985" y="573.8192771084338" type="line"/>
      <point x="225.19277108433735" y="677.3373493975904" type="line" smooth="yes"/>
      <point x="213.63855421686748" y="701.5783132530121"/>
      <point x="192.3975903614458" y="712.1325301204819"/>
      <point x="173.1566265060241" y="700.4457831325301" type="curve" smooth="yes"/>
      <point x="153.20481927710844" y="688.7590361445783"/>
      <point x="150.0722891566265" y="667.9397590361446"/>
      <point x="164.75903614457832" y="645.1204819277109" type="curve" smooth="yes"/>
      <point x="231.65060240963857" y="539.7590361445783" type="line"/>
      <point x="245.18072289156626" y="559.9759036144578" type="line"/>
      <point x="120.66265060240963" y="565.8192771084338" type="line" smooth="yes"/>
      <point x="93.71084337349399" y="567.2409638554217"/>
      <point x="76.3132530120482" y="554.843373493976"/>
      <point x="76.3132530120482" y="532.1807228915662" type="curve" smooth="yes"/>
      <point x="76.3132530120482" y="508.8072289156627"/>
      <point x="93.71084337349399" y="496.12048192771084"/>
      <point x="120.66265060240963" y="497.5421686746988" type="curve" smooth="yes"/>
      <point x="245.18072289156626" y="502.67469879518075" type="line"/>
      <point x="230.93975903614458" y="523.1807228915662" type="line"/>
      <point x="164.04819277108433" y="418.5301204819277" type="line" smooth="yes"/>
      <point x="150.0722891566265" y="396.421686746988"/>
      <point x="152.20481927710844" y="375.89156626506025"/>
    </contour>
  </outline>
</glyph>
<glyph name="plus" format="2">
  <advance width="600.0"/>
  <unicode hex="002B"/>
  <outline>
    <contour>
      <point x="268.71084337349396" y="32.57831325301205" type="curve" smooth="yes"/>
      <point x="294.3734939759036" y="32.57831325301205"/>
      <point x="306.7710843373494" y="45.8433734939759"/>
      <point x="310.90361445783134" y="70.92771084337349" type="curve" smooth="yes"/>
      <point x="338.92771084337346" y="249.93975903614458" type="line"/>
      <point x="514.5180722891566" y="249.93975903614458" type="line" smooth="yes"/>
      <point x="542.3132530120482" y="249.93975903614458"/>
      <point x="558.4216867469879" y="266.4698795180723"/>
      <point x="558.4216867469879" y="293.5542168674699" type="curve" smooth="yes"/>
      <point x="558.4216867469879" y="313.0843373493976"/>
      <point x="544.7349397590361" y="323.7710843373494"/>
      <point x="518.6506024096386" y="323.7710843373494" type="curve" smooth="yes"/>
      <point x="350.6144578313253" y="323.7710843373494" type="line"/>
      <point x="376.92771084337346" y="490.9397590361446" type="line" smooth="yes"/>
      <point x="381.34939759036143" y="519.0240963855422"/>
      <point x="369.6626506024096" y="535.4216867469879"/>
      <point x="343.578313253012" y="535.4216867469879" type="curve" smooth="yes"/>
      <point x="318.6265060240964" y="535.4216867469879"/>
      <point x="305.51807228915663" y="522.156626506024"/>
      <point x="301.3855421686747" y="497.7831325301205" type="curve" smooth="yes"/>
      <point x="274.3614457831325" y="323.7710843373494" type="line"/>
      <point x="99.48192771084338" y="323.7710843373494" type="line" smooth="yes"/>
      <point x="71.6867469879518" y="323.7710843373494"/>
      <point x="55.57831325301205" y="307.2409638554217"/>
      <point x="55.57831325301205" y="280.1566265060241" type="curve" smooth="yes"/>
      <point x="55.57831325301205" y="260.6265060240964"/>
      <point x="69.26506024096386" y="249.93975903614458"/>
      <point x="94.63855421686748" y="249.93975903614458" type="curve" smooth="yes"/>
      <point x="262.67469879518075" y="249.93975903614458" type="line"/>
      <point x="235.36144578313252" y="77.7710843373494" type="line" smooth="yes"/>
      <point x="230.93975903614458" y="48.975903614457835"/>
      <point x="243.33734939759037" y="32.57831325301205"/>
    </contour>
  </outline>
</glyph>
<glyph name="hyphen" format="2">
  <advance width="428.7951807228916"/>
  <unicode hex="002D"/>
  <outline>
    <contour>
      <point x="110.90361445783132" y="226.09638554216866" type="curve" smooth="yes"/>
      <point x="324.86746987951807" y="226.09638554216866" type="line" smooth="yes"/>
      <point x="354.3734939759036" y="226.09638554216866"/>
      <point x="370.90361445783134" y="247.33734939759034"/>
      <point x="370.90361445783134" y="274.26506024096386" type="curve" smooth="yes"/>
      <point x="370.90361445783134" y="296.4819277108434"/>
      <point x="355.9518072289157" y="307.45783132530124"/>
      <point x="326.6024096385542" y="307.45783132530124" type="curve" smooth="yes"/>
      <point x="111.92771084337349" y="307.45783132530124" type="line" smooth="yes"/>
      <point x="82.42168674698796" y="307.45783132530124"/>
      <point x="66.60240963855422" y="286.21686746987956"/>
      <point x="66.60240963855422" y="258.578313253012" type="curve" smooth="yes"/>
      <point x="66.60240963855422" y="237.78313253012047"/>
      <point x="81.55421686746988" y="226.09638554216866"/>
    </contour>
  </outline>
</glyph>
<glyph name="period" format="2">
  <advance width="237.3012048192771"/>
  <unicode hex="002E"/>
  <outline>
    <contour>
      <point x="91.06024096385542" y="-4.421686746987952" type="curve" smooth="yes"/>
      <point x="130.12048192771084" y="-4.421686746987952"/>
      <point x="154.36144578313252" y="22.240963855421686"/>
      <point x="154.36144578313252" y="59.87951807228916" type="curve" smooth="yes"/>
      <point x="154.36144578313252" y="96.80722891566265"/>
      <point x="130.12048192771084" y="122.75903614457832"/>
      <point x="91.06024096385542" y="122.75903614457832" type="curve" smooth="yes"/>
      <point x="52.0" y="122.75903614457832"/>
      <point x="26.759036144578314" y="96.80722891566265"/>
      <point x="26.759036144578314" y="59.87951807228916" type="curve" smooth="yes"/>
      <point x="26.759036144578314" y="22.240963855421686"/>
      <point x="52.0" y="-4.421686746987952"/>
    </contour>
  </outline>
</glyph>
<glyph name="slash" format="2">
  <advance width="296.51807228915663"/>
  <unicode hex="002F"/>
  <outline>
    <contour>
      <point x="24.36144578313253" y="-35.024096385542165" type="curve" smooth="yes"/>
      <point x="373.27710843373495" y="689.9638554216868" type="line" smooth="yes"/>
      <point x="397.65060240963857" y="740.843373493976"/>
      <point x="325.10843373493975" y="773.0602409638554"/>
      <point x="301.73493975903614" y="724.3132530120481" type="curve" smooth="yes"/>
      <point x="-46.46987951807229" y="-1.2530120481927725" type="line" smooth="yes"/>
      <point x="-70.26506024096386" y="-50.554216867469876"/>
      <point x="-0.3012048192771104" y="-86.06024096385542"/>
    </contour>
  </outline>
</glyph>
<glyph name="zero" format="2">
  <advance width="600.0"/>
  <unicode hex="0030"/>
  <outline>
    <contour>
      <point x="288.28915662650604" y="-9.421686746987952" type="curve" smooth="yes"/>
      <point x="462.81927710843377" y="-9.421686746987952"/>
      <point x="573.2168674698795" y="166.57831325301206"/>
      <point x="573.2168674698795" y="453.60240963855426" type="curve" smooth="yes"/>
      <point x="573.2168674698795" y="621.8674698795181"/>
      <point x="494.8192771084337" y="714.4216867469879"/>
      <point x="347.0" y="714.4216867469879" type="curve" smooth="yes"/>
      <point x="172.46987951807228" y="714.4216867469879"/>
      <point x="61.78313253012048" y="538.4216867469879"/>
      <point x="61.78313253012048" y="252.81927710843377" type="curve" smooth="yes"/>
      <point x="61.78313253012048" y="83.13253012048193"/>
      <point x="140.46987951807228" y="-9.421686746987952"/>
    </contour>
    <contour>
      <point x="293.421686746988" y="77.07228915662651" type="curve" smooth="yes"/>
      <point x="204.72289156626508" y="77.07228915662651"/>
      <point x="162.93975903614458" y="128.56626506024097"/>
      <point x="162.93975903614458" y="233.3975903614458" type="curve" smooth="yes"/>
      <point x="162.93975903614458" y="492.38554216867465"/>
      <point x="234.855421686747" y="627.9277108433735"/>
      <point x="341.86746987951807" y="627.9277108433735" type="curve" smooth="yes"/>
      <point x="430.56626506024094" y="627.9277108433735"/>
      <point x="472.7710843373494" y="576.433734939759"/>
      <point x="472.0602409638554" y="472.3132530120482" type="curve" smooth="yes"/>
      <point x="470.6385542168675" y="212.6144578313253"/>
      <point x="400.433734939759" y="77.07228915662651"/>
    </contour>
  </outline>
</glyph>
<glyph name="one" format="2">
  <advance width="600.0"/>
  <unicode hex="0031"/>
  <outline>
    <contour>
      <point x="124.6867469879518" y="0.0" type="curve" smooth="yes"/>
      <point x="453.79518072289153" y="0.0" type="line" smooth="yes"/>
      <point x="486.56626506024094" y="0.0"/>
      <point x="506.2289156626506" y="20.08433734939759"/>
      <point x="506.2289156626506" y="49.3012048192771" type="curve" smooth="yes"/>
      <point x="506.2289156626506" y="75.22891566265059"/>
      <point x="488.98795180722885" y="86.62650602409639"/>
      <point x="459.34939759036143" y="86.62650602409639" type="curve" smooth="yes"/>
      <point x="355.49397590361446" y="86.62650602409639" type="line"/>
      <point x="446.4096385542169" y="660.9879518072289" type="line" smooth="yes"/>
      <point x="451.5421686746988" y="692.6265060240963"/>
      <point x="437.56626506024094" y="712.4216867469879"/>
      <point x="409.08433734939763" y="712.4216867469879" type="curve" smooth="yes"/>
      <point x="390.8433734939759" y="712.4216867469879"/>
      <point x="373.7590361445783" y="706.8674698795181"/>
      <point x="351.2530120481928" y="693.7590361445783" type="curve" smooth="yes"/>
      <point x="195.6987951807229" y="600.7349397590363" type="line" smooth="yes"/>
      <point x="139.55421686746988" y="568.0963855421686"/>
      <point x="180.87951807228916" y="492.86746987951807"/>
      <point x="237.44578313253012" y="525.5060240963855" type="curve" smooth="yes"/>
      <point x="388.04819277108436" y="614.843373493976" type="line"/>
      <point x="337.0120481927711" y="619.2650602409639" type="line"/>
      <point x="252.36144578313252" y="86.62650602409639" type="line"/>
      <point x="130.24096385542168" y="86.62650602409639" type="line" smooth="yes"/>
      <point x="98.46987951807229" y="86.62650602409639"/>
      <point x="77.80722891566265" y="67.25301204819277"/>
      <point x="77.80722891566265" y="38.325301204819276" type="curve" smooth="yes"/>
      <point x="77.80722891566265" y="12.397590361445783"/>
      <point x="95.04819277108433" y="0.0"/>
    </contour>
  </outline>
</glyph>
<glyph name="two" format="2">
  <advance width="600.0"/>
  <unicode hex="0032"/>
  <outline>
    <contour>
      <point x="103.50602409638554" y="0.0" type="curve" smooth="yes"/>
      <point x="466.6265060240964" y="0.0" type="line" smooth="yes"/>
      <point x="500.39759036144574" y="0.0"/>
      <point x="519.0602409638554" y="19.373493975903614"/>
      <point x="519.0602409638554" y="50.72289156626506" type="curve" smooth="yes"/>
      <point x="519.0602409638554" y="74.51807228915662"/>
      <point x="502.53012048192767" y="86.62650602409639"/>
      <point x="472.1807228915663" y="86.62650602409639" type="curve" smooth="yes"/>
      <point x="164.18072289156623" y="86.62650602409639" type="line"/>
      <point x="165.46987951807228" y="57.831325301204814" type="line"/>
      <point x="394.0843373493976" y="265.0240963855422" type="line" smooth="yes"/>
      <point x="487.7951807228916" y="349.6024096385542"/>
      <point x="559.2409638554217" y="430.49397590361446"/>
      <point x="559.2409638554217" y="545.0481927710844" type="curve" smooth="yes"/>
      <point x="559.2409638554217" y="644.0240963855422"/>
      <point x="480.13253012048193" y="714.4216867469879"/>
      <point x="357.60240963855426" y="714.4216867469879" type="curve" smooth="yes"/>
      <point x="279.6024096385542" y="714.4216867469879"/>
      <point x="201.3132530120482" y="688.6867469879518"/>
      <point x="141.18072289156626" y="645.9277108433736" type="curve" smooth="yes"/>
      <point x="93.72289156626506" y="613.5542168674698"/>
      <point x="132.91566265060243" y="539.7469879518072"/>
      <point x="185.08433734939757" y="573.1204819277109" type="curve" smooth="yes"/>
      <point x="240.13253012048193" y="609.9036144578313"/>
      <point x="291.18072289156623" y="625.7951807228916"/>
      <point x="339.54216867469876" y="625.7951807228916" type="curve" smooth="yes"/>
      <point x="413.0602409638554" y="625.7951807228916"/>
      <point x="456.2409638554217" y="590.7469879518072"/>
      <point x="456.2409638554217" y="530.2530120481928" type="curve" smooth="yes"/>
      <point x="456.2409638554217" y="457.44578313253015"/>
      <point x="405.7469879518072" y="394.92771084337346"/>
      <point x="331.566265060241" y="326.4578313253012" type="curve" smooth="yes"/>
      <point x="87.6867469879518" y="99.86746987951807" type="line" smooth="yes"/>
      <point x="63.46987951807229" y="77.07228915662651"/>
      <point x="53.49397590361447" y="62.67469879518072"/>
      <point x="53.49397590361447" y="41.4578313253012" type="curve" smooth="yes"/>
      <point x="53.49397590361447" y="13.53012048192771"/>
      <point x="73.57831325301206" y="0.0"/>
    </contour>
  </outline>
</glyph>
<glyph name="three" format="2">
  <advance width="600.0"/>
  <unicode hex="0033"/>
  <outline>
    <contour>
      <point x="276.8674698795181" y="-9.421686746987952" type="curve" smooth="yes"/>
      <point x="423.7469879518072" y="-9.421686746987952"/>
      <point x="524.1927710843374" y="82.81927710843374"/>
      <point x="524.1927710843374" y="204.71084337349396" type="curve" smooth="yes"/>
      <point x="524.1927710843374" y="284.55421686746985"/>
      <point x="477.7710843373494" y="347.26506024096386"/>
      <point x="392.0602409638554" y="365.8433734939759" type="curve"/>
      <point x="391.7710843373494" y="354.4216867469879" type="line"/>
      <point x="488.7710843373494" y="372.421686746988"/>
      <point x="558.7710843373494" y="444.73493975903614"/>
      <point x="558.0602409638553" y="541.3132530120482" type="curve" smooth="yes"/>
      <point x="557.3493975903614" y="635.8915662650603"/>
      <point x="485.77108433734935" y="714.4216867469879"/>
      <point x="352.73493975903614" y="714.4216867469879" type="curve" smooth="yes"/>
      <point x="281.421686746988" y="714.4216867469879"/>
      <point x="200.42168674698797" y="693.2409638554217"/>
      <point x="137.44578313253015" y="648.0602409638554" type="curve" smooth="yes"/>
      <point x="84.59036144578313" y="612.132530120482"/>
      <point x="127.07228915662651" y="542.3253012048193"/>
      <point x="178.50602409638554" y="575.1204819277109" type="curve" smooth="yes"/>
      <point x="229.95180722891567" y="610.3253012048193"/>
      <point x="288.15662650602405" y="625.7951807228916"/>
      <point x="340.3614457831325" y="625.7951807228916" type="curve" smooth="yes"/>
      <point x="410.43373493975906" y="625.7951807228916"/>
      <point x="457.1927710843374" y="587.5903614457831"/>
      <point x="457.1927710843374" y="527.5180722891566" type="curve" smooth="yes"/>
      <point x="457.1927710843374" y="447.2650602409638"/>
      <point x="389.9638554216868" y="400.03614457831327"/>
      <point x="304.4457831325301" y="400.03614457831327" type="curve" smooth="yes"/>
      <point x="244.0843373493976" y="400.03614457831327" type="line" smooth="yes"/>
      <point x="212.3132530120482" y="400.03614457831327"/>
      <point x="191.65060240963857" y="381.3734939759036"/>
      <point x="191.65060240963857" y="351.73493975903614" type="curve" smooth="yes"/>
      <point x="191.65060240963857" y="327.2289156626506"/>
      <point x="208.89156626506025" y="313.4096385542169"/>
      <point x="238.53012048192772" y="313.4096385542169" type="curve" smooth="yes"/>
      <point x="297.6024096385542" y="313.4096385542169" type="line" smooth="yes"/>
      <point x="379.12048192771084" y="313.4096385542169"/>
      <point x="423.32530120481925" y="273.33734939759034"/>
      <point x="423.32530120481925" y="210.3975903614458" type="curve" smooth="yes"/>
      <point x="423.32530120481925" y="127.85542168674701"/>
      <point x="359.6746987951807" y="79.20481927710843"/>
      <point x="276.86746987951807" y="79.20481927710843" type="curve" smooth="yes"/>
      <point x="216.66265060240963" y="79.20481927710843"/>
      <point x="158.9277108433735" y="88.93975903614458"/>
      <point x="102.32530120481927" y="128.43373493975903" type="curve" smooth="yes"/>
      <point x="53.57831325301205" y="160.38554216867468"/>
      <point x="9.253012048192772" y="84.02409638554218"/>
      <point x="59.975903614457835" y="50.93975903614458" type="curve" smooth="yes"/>
      <point x="125.10843373493977" y="5.313253012048193"/>
      <point x="206.26506024096386" y="-9.421686746987952"/>
    </contour>
  </outline>
</glyph>
<glyph name="four" format="2">
  <advance width="600.0"/>
  <unicode hex="0034"/>
  <outline>
    <contour>
      <point x="377.6024096385542" y="-7.421686746987952" type="curve" smooth="yes"/>
      <point x="411.50602409638554" y="-7.421686746987952"/>
      <point x="430.87951807228916" y="9.53012048192771"/>
      <point x="435.72289156626505" y="42.01204819277108" type="curve" smooth="yes"/>
      <point x="451.9036144578313" y="143.25301204819277" type="line"/>
      <point x="517.3373493975904" y="143.25301204819277" type="line" smooth="yes"/>
      <point x="554.3734939759037" y="143.25301204819277"/>
      <point x="569.0602409638554" y="164.04819277108433"/>
      <point x="569.0602409638554" y="194.6867469879518" type="curve" smooth="yes"/>
      <point x="569.0602409638554" y="216.34939759036143"/>
      <point x="554.6626506024097" y="229.87951807228916"/>
      <point x="527.156626506024" y="229.87951807228916" type="curve" smooth="yes"/>
      <point x="464.3012048192771" y="229.87951807228916" type="line"/>
      <point x="531.0602409638554" y="651.1686746987953" type="line" smooth="yes"/>
      <point x="536.9036144578313" y="687.7831325301204"/>
      <point x="519.6626506024097" y="708.867469879518"/>
      <point x="490.3132530120482" y="708.867469879518" type="curve" smooth="yes"/>
      <point x="463.96385542168673" y="708.867469879518"/>
      <point x="449.43373493975906" y="700.8915662650603"/>
      <point x="430.7710843373494" y="678.8072289156627" type="curve" smooth="yes"/>
      <point x="64.97590361445783" y="247.25301204819277" type="line" smooth="yes"/>
      <point x="45.1566265060241" y="224.0120481927711"/>
      <point x="33.915662650602414" y="207.48192771084337"/>
      <point x="33.915662650602414" y="185.55421686746988" type="curve" smooth="yes"/>
      <point x="33.915662650602414" y="160.9156626506024"/>
      <point x="52.1566265060241" y="143.25301204819277"/>
      <point x="88.48192771084338" y="143.25301204819277" type="curve" smooth="yes"/>
      <point x="348.7710843373494" y="143.25301204819277" type="line"/>
      <point x="333.5903614457832" y="46.72289156626506" type="line" smooth="yes"/>
      <point x="328.03614457831327" y="12.53012048192771"/>
      <point x="344.69879518072287" y="-7.421686746987952"/>
    </contour>
    <contour>
      <point x="361.8795180722892" y="229.87951807228916" type="line"/>
      <point x="125.144578313253" y="229.87951807228916" type="line"/>
      <point x="122.01204819277109" y="202.5301204819277" type="line"/>
      <point x="443.3734939759036" y="583.2289156626506" type="line"/>
      <point x="418.24096385542174" y="583.2289156626506" type="line"/>
    </contour>
  </outline>
</glyph>
<glyph name="five" format="2">
  <advance width="600.0"/>
  <unicode hex="0035"/>
  <outline>
    <contour>
      <point x="284.89156626506025" y="-9.421686746987952" type="curve" smooth="yes"/>
      <point x="428.26506024096386" y="-9.421686746987952"/>
      <point x="549.9277108433736" y="89.86746987951807"/>
      <point x="549.9277108433736" y="243.81927710843374" type="curve" smooth="yes"/>
      <point x="549.9277108433736" y="371.44578313253015"/>
      <point x="467.16867469879514" y="444.2409638554217"/>
      <point x="358.08433734939763" y="444.2409638554217" type="curve" smooth="yes"/>
      <point x="292.3253012048193" y="444.2409638554217"/>
      <point x="224.56626506024094" y="415.3493975903615"/>
      <point x="182.56626506024097" y="363.72289156626505" type="curve"/>
      <point x="210.65060240963854" y="363.72289156626505" type="line"/>
      <point x="251.27710843373492" y="618.3734939759036" type="line"/>
      <point x="532.2289156626506" y="618.3734939759036" type="line" smooth="yes"/>
      <point x="565.0" y="618.3734939759036"/>
      <point x="584.6626506024097" y="637.0361445783132"/>
      <point x="584.6626506024097" y="668.3855421686748" type="curve" smooth="yes"/>
      <point x="584.6626506024097" y="692.8915662650602"/>
      <point x="567.421686746988" y="705.0"/>
      <point x="537.7831325301205" y="705.0" type="curve" smooth="yes"/>
      <point x="209.97590361445782" y="705.0" type="line" smooth="yes"/>
      <point x="180.33734939759034" y="705.0"/>
      <point x="161.67469879518072" y="690.1807228915662"/>
      <point x="156.8313253012048" y="660.5421686746988" type="curve" smooth="yes"/>
      <point x="102.80722891566265" y="324.2409638554217" type="line" smooth="yes"/>
      <point x="97.96385542168674" y="292.46987951807233"/>
      <point x="114.78313253012048" y="277.7831325301205"/>
      <point x="140.28915662650604" y="277.7831325301205" type="curve" smooth="yes"/>
      <point x="159.39759036144576" y="277.7831325301205"/>
      <point x="174.63855421686748" y="285.9156626506024"/>
      <point x="189.03614457831327" y="299.1807228915663" type="curve" smooth="yes"/>
      <point x="230.63855421686748" y="338.9638554216868"/>
      <point x="273.5542168674699" y="357.7469879518072"/>
      <point x="325.65060240963857" y="357.7469879518072" type="curve" smooth="yes"/>
      <point x="400.87951807228916" y="357.7469879518072"/>
      <point x="449.0602409638554" y="308.5180722891566"/>
      <point x="449.0602409638554" y="234.71084337349396" type="curve" smooth="yes"/>
      <point x="449.0602409638554" y="143.87951807228916"/>
      <point x="378.12048192771084" y="79.20481927710843"/>
      <point x="284.89156626506025" y="79.20481927710843" type="curve" smooth="yes"/>
      <point x="225.42168674698794" y="79.20481927710843"/>
      <point x="178.2409638554217" y="90.0722891566265"/>
      <point x="123.63855421686746" y="129.14457831325302" type="curve" smooth="yes"/>
      <point x="75.60240963855422" y="161.3855421686747"/>
      <point x="30.855421686746993" y="88.0"/>
      <point x="81.0" y="52.65060240963855" type="curve" smooth="yes"/>
      <point x="143.0" y="6.024096385542169"/>
      <point x="219.289156626506" y="-9.421686746987952"/>
    </contour>
  </outline>
</glyph>
<glyph name="six" format="2">
  <advance width="600.0"/>
  <unicode hex="0036"/>
  <outline>
    <contour>
      <point x="307.9759036144578" y="-9.421686746987952" type="curve" smooth="yes"/>
      <point x="448.50602409638554" y="-9.421686746987952"/>
      <point x="550.2168674698795" y="100.8433734939759"/>
      <point x="550.2168674698795" y="246.95180722891567" type="curve" smooth="yes"/>
      <point x="550.2168674698795" y="358.2409638554217"/>
      <point x="471.48192771084337" y="446.50602409638554"/>
      <point x="358.6144578313253" y="446.50602409638554" type="curve" smooth="yes"/>
      <point x="265.27710843373495" y="446.50602409638554"/>
      <point x="171.5421686746988" y="384.1686746987952"/>
      <point x="155.80722891566265" y="281.5180722891566" type="curve"/>
      <point x="165.93975903614458" y="281.5180722891566" type="line"/>
      <point x="168.36144578313252" y="313.20481927710847" type="line" smooth="yes"/>
      <point x="181.6265060240964" y="508.02409638554224"/>
      <point x="264.72289156626505" y="625.7951807228916"/>
      <point x="394.8433734939759" y="625.7951807228916" type="curve" smooth="yes"/>
      <point x="445.33734939759034" y="625.7951807228916"/>
      <point x="494.5180722891566" y="608.3253012048193"/>
      <point x="532.8072289156627" y="575.1204819277108" type="curve" smooth="yes"/>
      <point x="580.2650602409639" y="537.1686746987951"/>
      <point x="627.722891566265" y="608.5542168674698"/>
      <point x="583.4216867469879" y="645.4819277108434" type="curve" smooth="yes"/>
      <point x="532.1807228915662" y="691.0843373493975"/>
      <point x="466.5783132530121" y="714.4216867469879"/>
      <point x="401.26506024096386" y="714.4216867469879" type="curve" smooth="yes"/>
      <point x="188.42168674698794" y="714.4216867469879"/>
      <point x="70.0722891566265" y="521.144578313253"/>
      <point x="70.0722891566265" y="254.81927710843374" type="curve" smooth="yes"/>
      <point x="70.0722891566265" y="92.13253012048193"/>
      <point x="160.33734939759034" y="-9.421686746987952"/>
    </contour>
    <contour>
      <point x="303.5542168674699" y="74.93975903614458" type="curve" smooth="yes"/>
      <point x="231.32530120481928" y="74.93975903614458"/>
      <point x="178.96385542168673" y="125.43373493975903"/>
      <point x="178.96385542168673" y="198.24096385542168" type="curve" smooth="yes"/>
      <point x="178.96385542168673" y="290.7590361445783"/>
      <point x="238.90361445783134" y="362.144578313253"/>
      <point x="328.3132530120482" y="362.144578313253" type="curve" smooth="yes"/>
      <point x="400.5421686746988" y="362.144578313253"/>
      <point x="452.90361445783134" y="311.6506024096385"/>
      <point x="452.90361445783134" y="238.8433734939759" type="curve" smooth="yes"/>
      <point x="452.90361445783134" y="146.32530120481928"/>
      <point x="392.96385542168673" y="74.93975903614458"/>
    </contour>
  </outline>
</glyph>
<glyph name="seven" format="2">
  <advance width="600.0"/>
  <unicode hex="0037"/>
  <outline>
    <contour>
      <point x="138.95180722891567" y="-7.421686746987952" type="curve" smooth="yes"/>
      <point x="163.3012048192771" y="-7.421686746987952"/>
      <point x="181.25301204819277" y="2.975903614457831"/>
      <point x="197.78313253012047" y="27.771084337349397" type="curve" smooth="yes"/>
      <point x="580.289156626506" y="600.1566265060242" type="line" smooth="yes"/>
      <point x="597.9518072289156" y="625.7951807228916"/>
      <point x="608.3493975903615" y="643.1686746987951"/>
      <point x="608.3493975903615" y="665.9638554216868" type="curve" smooth="yes"/>
      <point x="608.3493975903615" y="689.7590361445783"/>
      <point x="593.9518072289156" y="705.0"/>
      <point x="555.4939759036145" y="705.0" type="curve" smooth="yes"/>
      <point x="170.97590361445785" y="705.0" type="line" smooth="yes"/>
      <point x="138.49397590361446" y="705.0"/>
      <point x="119.25301204819277" y="687.0481927710844"/>
      <point x="119.25301204819277" y="655.987951807229" type="curve" smooth="yes"/>
      <point x="119.25301204819277" y="630.7710843373494"/>
      <point x="137.20481927710844" y="617.6626506024096"/>
      <point x="168.26506024096386" y="617.6626506024096" type="curve" smooth="yes"/>
      <point x="504.24096385542174" y="617.6626506024096" type="line"/>
      <point x="505.24096385542174" y="657.3253012048193" type="line"/>
      <point x="107.04819277108433" y="66.54216867469879" type="line" smooth="yes"/>
      <point x="79.83132530120483" y="26.63855421686747"/>
      <point x="98.62650602409639" y="-7.421686746987952"/>
    </contour>
  </outline>
</glyph>
<glyph name="eight" format="2">
  <advance width="600.0"/>
  <unicode hex="0038"/>
  <outline>
    <contour>
      <point x="271.13253012048193" y="-9.421686746987952" type="curve" smooth="yes"/>
      <point x="432.39759036144574" y="-9.421686746987952"/>
      <point x="550.7951807228916" y="67.57831325301204"/>
      <point x="550.7951807228916" y="209.0" type="curve" smooth="yes"/>
      <point x="550.7951807228916" y="296.26506024096386"/>
      <point x="496.50602409638554" y="354.39759036144574"/>
      <point x="416.92771084337346" y="367.53012048192767" type="curve"/>
      <point x="414.2168674698795" y="351.28915662650604" type="line"/>
      <point x="511.08433734939763" y="363.86746987951807"/>
      <point x="584.2409638554217" y="446.421686746988"/>
      <point x="584.2409638554217" y="544.7349397590361" type="curve" smooth="yes"/>
      <point x="584.2409638554217" y="647.289156626506"/>
      <point x="495.8192771084337" y="713.710843373494"/>
      <point x="364.73493975903614" y="713.710843373494" type="curve" smooth="yes"/>
      <point x="215.18072289156626" y="713.710843373494"/>
      <point x="103.07228915662651" y="640.1325301204819"/>
      <point x="103.07228915662651" y="507.00000000000006" type="curve" smooth="yes"/>
      <point x="103.07228915662651" y="427.73493975903614"/>
      <point x="146.49397590361448" y="370.31325301204816"/>
      <point x="220.36144578313252" y="352.6024096385542" type="curve"/>
      <point x="223.0722891566265" y="368.2650602409638" type="line"/>
      <point x="115.49397590361447" y="362.26506024096386"/>
      <point x="34.493975903614455" y="274.8192771084337"/>
      <point x="34.493975903614455" y="165.66265060240966" type="curve" smooth="yes"/>
      <point x="34.493975903614455" y="57.554216867469876"/>
      <point x="129.20481927710844" y="-9.421686746987952"/>
    </contour>
    <contour>
      <point x="275.9759036144578" y="73.22891566265059" type="curve" smooth="yes"/>
      <point x="188.87951807228916" y="73.22891566265059"/>
      <point x="131.80722891566265" y="108.12048192771084"/>
      <point x="131.80722891566265" y="176.7710843373494" type="curve" smooth="yes"/>
      <point x="131.80722891566265" y="268.04819277108436"/>
      <point x="201.32530120481928" y="315.67469879518075"/>
      <point x="310.89156626506025" y="315.67469879518075" type="curve" smooth="yes"/>
      <point x="395.9879518072289" y="315.67469879518075"/>
      <point x="453.48192771084337" y="281.7831325301205"/>
      <point x="453.48192771084337" y="214.13253012048193" type="curve" smooth="yes"/>
      <point x="453.48192771084337" y="121.85542168674698"/>
      <point x="384.83132530120486" y="73.22891566265059"/>
    </contour>
    <contour>
      <point x="325.8433734939759" y="398.32530120481925" type="curve" smooth="yes"/>
      <point x="248.4578313253012" y="398.32530120481925"/>
      <point x="200.3855421686747" y="434.3734939759036"/>
      <point x="200.3855421686747" y="498.60240963855426" type="curve" smooth="yes"/>
      <point x="200.3855421686747" y="583.5903614457831"/>
      <point x="260.6144578313253" y="631.0602409638554"/>
      <point x="360.89156626506025" y="631.0602409638554" type="curve" smooth="yes"/>
      <point x="438.56626506024094" y="631.0602409638554"/>
      <point x="486.92771084337346" y="596.0120481927711"/>
      <point x="486.92771084337346" y="532.3614457831326" type="curve" smooth="yes"/>
      <point x="486.92771084337346" y="450.53012048192767"/>
      <point x="421.2530120481928" y="398.32530120481925"/>
    </contour>
  </outline>
</glyph>
<glyph name="nine" format="2">
  <advance width="600.0"/>
  <unicode hex="0039"/>
  <outline>
    <contour>
      <point x="238.71084337349396" y="-9.421686746987952" type="curve" smooth="yes"/>
      <point x="450.8433734939759" y="-9.421686746987952"/>
      <point x="564.2168674698795" y="190.2530120481928"/>
      <point x="564.2168674698795" y="450.89156626506025" type="curve" smooth="yes"/>
      <point x="564.2168674698795" y="614.289156626506"/>
      <point x="473.9518072289157" y="714.4216867469879"/>
      <point x="326.31325301204816" y="714.4216867469879" type="curve" smooth="yes"/>
      <point x="185.78313253012047" y="714.4216867469879"/>
      <point x="84.07228915662651" y="604.156626506024"/>
      <point x="84.07228915662651" y="458.0481927710843" type="curve" smooth="yes"/>
      <point x="84.07228915662651" y="346.7590361445783"/>
      <point x="162.80722891566268" y="258.49397590361446"/>
      <point x="275.67469879518075" y="258.49397590361446" type="curve" smooth="yes"/>
      <point x="369.0120481927711" y="258.49397590361446"/>
      <point x="463.4578313253012" y="320.8313253012048"/>
      <point x="479.1927710843373" y="423.4819277108434" type="curve"/>
      <point x="468.34939759036143" y="423.4819277108434" type="line"/>
      <point x="465.92771084337346" y="391.0843373493976" type="line" smooth="yes"/>
      <point x="452.66265060240966" y="196.26506024096386"/>
      <point x="368.144578313253" y="79.20481927710843"/>
      <point x="244.42168674698794" y="79.20481927710843" type="curve" smooth="yes"/>
      <point x="191.79518072289156" y="79.20481927710843"/>
      <point x="141.19277108433735" y="96.67469879518072"/>
      <point x="101.48192771084337" y="129.87951807228916" type="curve" smooth="yes"/>
      <point x="53.31325301204819" y="167.12048192771084"/>
      <point x="5.85542168674699" y="95.73493975903615"/>
      <point x="50.867469879518076" y="59.51807228915663" type="curve" smooth="yes"/>
      <point x="104.24096385542168" y="13.91566265060241"/>
      <point x="174.81927710843374" y="-9.421686746987952"/>
    </contour>
    <contour>
      <point x="305.9759036144578" y="342.855421686747" type="curve" smooth="yes"/>
      <point x="233.74698795180723" y="342.855421686747"/>
      <point x="182.09638554216866" y="393.34939759036143"/>
      <point x="182.09638554216866" y="466.1566265060241" type="curve" smooth="yes"/>
      <point x="182.09638554216866" y="558.6746987951807"/>
      <point x="241.32530120481928" y="630.7710843373494"/>
      <point x="330.73493975903614" y="630.7710843373494" type="curve" smooth="yes"/>
      <point x="402.96385542168673" y="630.7710843373494"/>
      <point x="455.32530120481925" y="579.5662650602409"/>
      <point x="455.32530120481925" y="506.7590361445783" type="curve" smooth="yes"/>
      <point x="455.32530120481925" y="414.2409638554217"/>
      <point x="395.3855421686747" y="342.855421686747"/>
    </contour>
  </outline>
</glyph>
<glyph name="colon" format="2">
  <advance width="237.3012048192771"/>
  <unicode hex="003A"/>
  <outline>
    <contour>
      <point x="91.06024096385542" y="-4.421686746987952" type="curve" smooth="yes"/>
      <point x="130.12048192771084" y="-4.421686746987952"/>
      <point x="154.36144578313252" y="22.240963855421686"/>
      <point x="154.36144578313252" y="59.87951807228916" type="curve" smooth="yes"/>
      <point x="154.36144578313252" y="96.80722891566265"/>
      <point x="130.12048192771084" y="122.75903614457832"/>
      <point x="91.06024096385542" y="122.75903614457832" type="curve" smooth="yes"/>
      <point x="52.0" y="122.75903614457832"/>
      <point x="26.759036144578314" y="96.80722891566265"/>
      <point x="26.759036144578314" y="59.87951807228916" type="curve" smooth="yes"/>
      <point x="26.759036144578314" y="22.240963855421686"/>
      <point x="52.0" y="-4.421686746987952"/>
    </contour>
    <contour>
      <point x="149.66265060240966" y="364.7951807228916" type="curve" smooth="yes"/>
      <point x="188.72289156626505" y="364.7951807228916"/>
      <point x="212.96385542168673" y="391.4578313253012"/>
      <point x="212.96385542168673" y="428.3855421686747" type="curve" smooth="yes"/>
      <point x="212.96385542168673" y="466.0240963855422"/>
      <point x="188.72289156626505" y="491.9759036144578"/>
      <point x="149.66265060240966" y="491.9759036144578" type="curve" smooth="yes"/>
      <point x="110.60240963855422" y="491.9759036144578"/>
      <point x="85.36144578313254" y="466.0240963855422"/>
      <point x="85.36144578313254" y="428.3855421686747" type="curve" smooth="yes"/>
      <point x="85.36144578313254" y="391.4578313253012"/>
      <point x="110.60240963855422" y="364.7951807228916"/>
    </contour>
  </outline>
</glyph>
<glyph name="semicolon" format="2">
  <advance width="237.3012048192771"/>
  <unicode hex="003B"/>
  <outline>
    <contour>
      <point x="80.61445783132531" y="-102.34939759036145" type="curve" smooth="yes"/>
      <point x="127.09638554216869" y="-57.28915662650602"/>
      <point x="150.65060240963857" y="-6.891566265060241"/>
      <point x="150.65060240963857" y="52.87951807228916" type="curve" smooth="yes"/>
      <point x="150.65060240963857" y="94.67469879518072"/>
      <point x="129.12048192771084" y="122.75903614457832"/>
      <point x="89.7710843373494" y="122.75903614457832" type="curve" smooth="yes"/>
      <point x="51.0" y="122.75903614457832"/>
      <point x="26.759036144578314" y="96.80722891566265"/>
      <point x="26.759036144578314" y="59.87951807228916" type="curve" smooth="yes"/>
      <point x="26.759036144578314" y="21.53012048192771"/>
      <point x="53.421686746987945" y="-4.421686746987952"/>
      <point x="93.7710843373494" y="-4.421686746987952" type="curve"/>
      <point x="86.63855421686746" y="22.349397590361445" type="line"/>
      <point x="81.2168674698795" y="-10.048192771084338"/>
      <point x="69.08433734939759" y="-33.024096385542165"/>
      <point x="38.8433734939759" y="-63.13253012048192" type="curve" smooth="yes"/>
      <point x="5.3373493975903585" y="-96.50602409638554"/>
      <point x="46.10843373493975" y="-135.43373493975903"/>
    </contour>
    <contour>
      <point x="149.66265060240966" y="364.7951807228916" type="curve" smooth="yes"/>
      <point x="188.72289156626505" y="364.7951807228916"/>
      <point x="212.96385542168673" y="391.4578313253012"/>
      <point x="212.96385542168673" y="428.3855421686747" type="curve" smooth="yes"/>
      <point x="212.96385542168673" y="466.0240963855422"/>
      <point x="188.72289156626505" y="491.9759036144578"/>
      <point x="149.66265060240966" y="491.9759036144578" type="curve" smooth="yes"/>
      <point x="110.60240963855422" y="491.9759036144578"/>
      <point x="85.36144578313254" y="466.0240963855422"/>
      <point x="85.36144578313254" y="428.3855421686747" type="curve" smooth="yes"/>
      <point x="85.36144578313254" y="391.4578313253012"/>
      <point x="110.60240963855422" y="364.7951807228916"/>
    </contour>
  </outline>
</glyph>
<glyph name="less" format="2">
  <advance width="600.0"/>
  <unicode hex="003C"/>
  <outline>
    <contour>
      <point x="472.9638554216868" y="51.68674698795181" type="line" smooth="yes"/>
      <point x="521.4216867469879" y="29.44578313253012"/>
      <point x="550.7951807228916" y="97.85542168674698"/>
      <point x="503.7590361445783" y="119.38554216867469" type="curve" smooth="yes"/>
      <point x="101.5301204819277" y="307.0843373493976" type="line"/>
      <point x="93.26506024096385" y="257.3614457831325" type="line"/>
      <point x="564.9397590361446" y="449.4819277108434" type="line" smooth="yes"/>
      <point x="612.9759036144578" y="468.30120481927713"/>
      <point x="588.7349397590361" y="540.132530120482"/>
      <point x="538.277108433735" y="519.6024096385543" type="curve" smooth="yes"/>
      <point x="102.01204819277108" y="339.566265060241" type="line" smooth="yes"/>
      <point x="73.66265060240964" y="328.1686746987952"/>
      <point x="54.86746987951807" y="308.50602409638554"/>
      <point x="54.86746987951807" y="280.0240963855422" type="curve" smooth="yes"/>
      <point x="54.86746987951807" y="257.6506024096385"/>
      <point x="70.10843373493975" y="241.40963855421688"/>
      <point x="99.74698795180723" y="228.0120481927711" type="curve" smooth="yes"/>
    </contour>
  </outline>
</glyph>
<glyph name="equal" format="2">
  <advance width="600.0"/>
  <unicode hex="003D"/>
  <outline>
    <contour>
      <point x="110.34939759036145" y="349.93975903614455" type="curve" smooth="yes"/>
      <point x="530.2289156626507" y="349.93975903614455" type="line" smooth="yes"/>
      <point x="558.0240963855422" y="349.93975903614455"/>
      <point x="574.1325301204819" y="366.4698795180723"/>
      <point x="574.1325301204819" y="393.5542168674699" type="curve" smooth="yes"/>
      <point x="574.1325301204819" y="413.0843373493976"/>
      <point x="560.4457831325301" y="423.7710843373494"/>
      <point x="534.3614457831326" y="423.7710843373494" type="curve" smooth="yes"/>
      <point x="114.48192771084338" y="423.7710843373494" type="line" smooth="yes"/>
      <point x="86.6867469879518" y="423.7710843373494"/>
      <point x="70.57831325301206" y="407.2409638554217"/>
      <point x="70.57831325301206" y="380.1566265060241" type="curve" smooth="yes"/>
      <point x="70.57831325301206" y="360.6265060240964"/>
      <point x="84.26506024096386" y="349.93975903614455"/>
    </contour>
    <contour>
      <point x="78.63855421686748" y="150.93975903614458" type="curve" smooth="yes"/>
      <point x="498.5180722891567" y="150.93975903614458" type="line" smooth="yes"/>
      <point x="526.3132530120482" y="150.93975903614458"/>
      <point x="542.4216867469879" y="167.46987951807228"/>
      <point x="542.4216867469879" y="193.8433734939759" type="curve" smooth="yes"/>
      <point x="542.4216867469879" y="213.3734939759036"/>
      <point x="528.7349397590361" y="224.06024096385542"/>
      <point x="503.3614457831326" y="224.06024096385542" type="curve" smooth="yes"/>
      <point x="83.48192771084338" y="224.06024096385542" type="line" smooth="yes"/>
      <point x="55.68674698795181" y="224.06024096385542"/>
      <point x="39.57831325301205" y="207.53012048192772"/>
      <point x="39.57831325301205" y="181.1566265060241" type="curve" smooth="yes"/>
      <point x="39.57831325301205" y="161.6265060240964"/>
      <point x="53.26506024096386" y="150.93975903614458"/>
    </contour>
  </outline>
</glyph>
<glyph name="greater" format="2">
  <advance width="600.0"/>
  <unicode hex="003E"/>
  <outline>
    <contour>
      <point x="75.72289156626506" y="55.81927710843374" type="curve" smooth="yes"/>
      <point x="511.9879518072289" y="235.14457831325302" type="line" smooth="yes"/>
      <point x="540.3373493975904" y="246.54216867469881"/>
      <point x="558.421686746988" y="265.49397590361446"/>
      <point x="558.421686746988" y="293.9759036144578" type="curve" smooth="yes"/>
      <point x="558.421686746988" y="316.34939759036143"/>
      <point x="544.6024096385543" y="331.87951807228916"/>
      <point x="514.2530120481928" y="345.9879518072289" type="curve" smooth="yes"/>
      <point x="138.90361445783134" y="523.7349397590361" type="line" smooth="yes"/>
      <point x="90.44578313253012" y="546.6867469879518"/>
      <point x="62.49397590361446" y="476.144578313253"/>
      <point x="109.53012048192771" y="454.61445783132535" type="curve" smooth="yes"/>
      <point x="511.7590361445784" y="265.9156626506024" type="line"/>
      <point x="520.0240963855422" y="316.34939759036143" type="line"/>
      <point x="49.06024096385542" y="124.51807228915662" type="line" smooth="yes"/>
      <point x="1.024096385542169" y="104.98795180722891"/>
      <point x="25.265060240963855" y="35.28915662650603"/>
    </contour>
  </outline>
</glyph>
<glyph name="question" format="2">
  <advance width="450.32530120481925"/>
  <unicode hex="003F"/>
  <outline>
    <contour>
      <point x="210.72289156626505" y="190.9879518072289" type="curve" smooth="yes"/>
      <point x="230.96385542168676" y="190.9879518072289"/>
      <point x="239.2289156626506" y="201.8313253012048"/>
      <point x="244.36144578313252" y="220.67469879518072" type="curve" smooth="yes"/>
      <point x="257.0722891566265" y="268.27710843373495"/>
      <point x="280.2048192771084" y="313.7469879518072"/>
      <point x="353.3855421686747" y="368.1084337349398" type="curve" smooth="yes"/>
      <point x="424.30120481927713" y="420.6265060240964"/>
      <point x="478.27710843373495" y="481.3614457831326"/>
      <point x="478.27710843373495" y="562.8915662650603" type="curve" smooth="yes"/>
      <point x="478.27710843373495" y="645.578313253012"/>
      <point x="413.32530120481925" y="714.4216867469879"/>
      <point x="300.34939759036143" y="714.4216867469879" type="curve" smooth="yes"/>
      <point x="230.7710843373494" y="714.4216867469879"/>
      <point x="150.63855421686748" y="692.3975903614457"/>
      <point x="93.50602409638554" y="649.9277108433735" type="curve" smooth="yes"/>
      <point x="41.915662650602414" y="613.1325301204819"/>
      <point x="76.57831325301204" y="542.3253012048193"/>
      <point x="134.85542168674698" y="577.4096385542168" type="curve" smooth="yes"/>
      <point x="180.87951807228913" y="607.9036144578313"/>
      <point x="228.3734939759036" y="625.7951807228916"/>
      <point x="282.578313253012" y="625.7951807228916" type="curve" smooth="yes"/>
      <point x="347.0963855421687" y="625.7951807228916"/>
      <point x="375.27710843373495" y="592.8795180722891"/>
      <point x="375.27710843373495" y="548.0963855421687" type="curve" smooth="yes"/>
      <point x="375.27710843373495" y="497.0481927710843"/>
      <point x="347.69879518072287" y="465.710843373494"/>
      <point x="286.73493975903614" y="412.6144578313253" type="curve" smooth="yes"/>
      <point x="207.8192771084337" y="343.9879518072289"/>
      <point x="189.66265060240963" y="298.9397590361446"/>
      <point x="179.66265060240963" y="233.18072289156626" type="curve" smooth="yes"/>
      <point x="175.5301204819277" y="207.3855421686747"/>
      <point x="186.63855421686748" y="190.9879518072289"/>
    </contour>
    <contour>
      <point x="184.4578313253012" y="-4.421686746987952" type="curve" smooth="yes"/>
      <point x="223.5180722891566" y="-4.421686746987952"/>
      <point x="247.7590361445783" y="22.240963855421686"/>
      <point x="247.7590361445783" y="59.87951807228916" type="curve" smooth="yes"/>
      <point x="247.7590361445783" y="96.80722891566265"/>
      <point x="223.5180722891566" y="122.75903614457832"/>
      <point x="184.4578313253012" y="122.75903614457832" type="curve" smooth="yes"/>
      <point x="145.3975903614458" y="122.75903614457832"/>
      <point x="120.15662650602408" y="96.80722891566265"/>
      <point x="120.15662650602408" y="59.87951807228916" type="curve" smooth="yes"/>
      <point x="120.15662650602408" y="22.240963855421686"/>
      <point x="145.3975903614458" y="-4.421686746987952"/>
    </contour>
  </outline>
</glyph>
<glyph name="at" format="2">
  <advance width="947.9759036144578"/>
  <unicode hex="0040"/>
  <outline>
    <contour>
      <point x="495.710843373494" y="-164.13253012048193" type="curve" smooth="yes"/>
      <point x="602.6265060240964" y="-164.13253012048193"/>
      <point x="694.8072289156627" y="-135.3734939759036"/>
      <point x="758.9397590361447" y="-83.16867469879517" type="curve" smooth="yes"/>
      <point x="799.5783132530121" y="-51.481927710843365"/>
      <point x="766.4457831325301" y="1.5301204819277103"/>
      <point x="722.5421686746988" y="-27.44578313253012" type="curve" smooth="yes"/>
      <point x="666.5421686746987" y="-72.07228915662651"/>
      <point x="589.2048192771084" y="-98.12048192771084"/>
      <point x="495.710843373494" y="-98.12048192771084" type="curve" smooth="yes"/>
      <point x="279.21686746987956" y="-98.12048192771084"/>
      <point x="142.03614457831324" y="40.506024096385545"/>
      <point x="142.03614457831324" y="270.6024096385542" type="curve" smooth="yes"/>
      <point x="142.03614457831324" y="498.7831325301205"/>
      <point x="288.7951807228916" y="648.4096385542168"/>
      <point x="509.68674698795184" y="648.4096385542168" type="curve" smooth="yes"/>
      <point x="706.710843373494" y="648.4096385542168"/>
      <point x="833.7831325301205" y="530.4698795180723"/>
      <point x="833.7831325301205" y="343.1566265060241" type="curve" smooth="yes"/>
      <point x="833.7831325301205" y="210.63855421686748"/>
      <point x="784.0240963855422" y="122.3012048192771"/>
      <point x="713.3734939759037" y="122.3012048192771" type="curve" smooth="yes"/>
      <point x="675.1927710843373" y="122.3012048192771"/>
      <point x="656.7469879518072" y="142.74698795180723"/>
      <point x="656.7469879518072" y="186.48192771084337" type="curve" smooth="yes"/>
      <point x="656.7469879518072" y="199.90361445783134"/>
      <point x="658.4578313253012" y="216.74698795180723"/>
      <point x="662.1686746987951" y="236.72289156626505" type="curve" smooth="yes"/>
      <point x="698.3493975903615" y="448.2289156626506" type="line" smooth="yes"/>
      <point x="703.4819277108434" y="476.3132530120482"/>
      <point x="690.7951807228916" y="491.421686746988"/>
      <point x="665.0" y="491.421686746988" type="curve" smooth="yes"/>
      <point x="640.6265060240964" y="491.421686746988"/>
      <point x="625.9397590361446" y="480.4457831325301"/>
      <point x="620.8072289156627" y="454.2048192771084" type="curve" smooth="yes"/>
      <point x="609.9397590361447" y="393.26506024096386" type="line"/>
      <point x="624.7590361445783" y="393.26506024096386" type="line"/>
      <point x="609.9156626506025" y="460.10843373493975"/>
      <point x="562.7590361445783" y="496.9759036144578"/>
      <point x="490.18072289156623" y="496.9759036144578" type="curve" smooth="yes"/>
      <point x="366.89156626506025" y="496.9759036144578"/>
      <point x="275.0240963855421" y="389.6867469879518"/>
      <point x="275.0240963855421" y="243.10843373493975" type="curve" smooth="yes"/>
      <point x="275.0240963855421" y="128.55421686746988"/>
      <point x="335.86746987951807" y="59.0"/>
      <point x="440.13253012048193" y="59.0" type="curve" smooth="yes"/>
      <point x="510.5301204819277" y="59.0"/>
      <point x="575.8192771084338" y="103.26506024096386"/>
      <point x="609.3975903614459" y="188.19277108433735" type="curve"/>
      <point x="585.7590361445783" y="186.57831325301206" type="line"/>
      <point x="582.421686746988" y="107.1566265060241"/>
      <point x="628.3975903614459" y="59.0"/>
      <point x="707.5301204819277" y="59.0" type="curve" smooth="yes"/>
      <point x="823.3734939759037" y="59.0"/>
      <point x="900.5060240963855" y="169.86746987951807"/>
      <point x="900.5060240963855" y="343.1566265060241" type="curve" smooth="yes"/>
      <point x="900.5060240963855" y="566.1325301204819"/>
      <point x="743.7951807228916" y="714.4216867469879"/>
      <point x="509.9759036144578" y="714.4216867469879" type="curve" smooth="yes"/>
      <point x="246.89156626506025" y="714.4216867469879"/>
      <point x="68.04819277108435" y="535.4216867469879"/>
      <point x="68.04819277108435" y="270.6024096385542" type="curve" smooth="yes"/>
      <point x="68.04819277108435" y="6.710843373493976"/>
      <point x="239.1566265060241" y="-164.13253012048193"/>
    </contour>
    <contour>
      <point x="453.9277108433735" y="126.43373493975903" type="curve" smooth="yes"/>
      <point x="392.72289156626505" y="126.43373493975903"/>
      <point x="357.83132530120486" y="167.6144578313253"/>
      <point x="357.83132530120486" y="243.81927710843374" type="curve" smooth="yes"/>
      <point x="357.83132530120486" y="351.7590361445783"/>
      <point x="418.90361445783134" y="428.8313253012048"/>
      <point x="502.26506024096386" y="428.8313253012048" type="curve" smooth="yes"/>
      <point x="567.0481927710844" y="428.8313253012048"/>
      <point x="596.9397590361446" y="393.51807228915663"/>
      <point x="596.9397590361446" y="323.4457831325301" type="curve" smooth="yes"/>
      <point x="596.9397590361446" y="208.0843373493976"/>
      <point x="536.8674698795181" y="126.43373493975903"/>
    </contour>
  </outline>
</glyph>
<glyph name="A" format="2">
  <advance width="735.9036144578313"/>
  <unicode hex="0041"/>
  <anchor x="348.3734939759036" y="0.0" name="bottom"/>
  <anchor x="658.5060240963855" y="0.0" name="ogonek"/>
  <anchor x="441.8192771084337" y="705.0" name="top"/>
  <outline>
    <contour>
      <point x="45.34939759036145" y="-7.421686746987952" type="curve" smooth="yes"/>
      <point x="68.56626506024097" y="-7.421686746987952"/>
      <point x="85.09638554216868" y="3.265060240963855"/>
      <point x="97.49397590361444" y="24.216867469879517" type="curve" smooth="yes"/>
      <point x="195.85542168674698" y="191.9156626506024" type="line"/>
      <point x="151.06024096385542" y="172.25301204819277" type="line"/>
      <point x="571.4216867469879" y="172.25301204819277" type="line"/>
      <point x="536.0481927710844" y="194.04819277108433" type="line"/>
      <point x="576.8072289156627" y="39.4578313253012" type="line" smooth="yes"/>
      <point x="584.7831325301205" y="7.975903614457831"/>
      <point x="600.4698795180723" y="-7.421686746987952"/>
      <point x="629.9518072289156" y="-7.421686746987952" type="curve" smooth="yes"/>
      <point x="661.433734939759" y="-7.421686746987952"/>
      <point x="683.2289156626506" y="13.662650602409638"/>
      <point x="669.8313253012047" y="59.566265060240966" type="curve" smooth="yes"/>
      <point x="495.5180722891566" y="670.8313253012049" type="line" smooth="yes"/>
      <point x="487.5421686746988" y="698.6024096385543"/>
      <point x="469.87951807228916" y="712.4216867469879"/>
      <point x="441.5301204819277" y="712.4216867469879" type="curve" smooth="yes"/>
      <point x="414.1807228915663" y="712.4216867469879"/>
      <point x="397.3614457831325" y="702.0240963855422"/>
      <point x="382.12048192771084" y="676.8072289156627" type="curve" smooth="yes"/>
      <point x="7.31325301204819" y="56.855421686746986" type="line" smooth="yes"/>
      <point x="-14.349397590361445" y="20.795180722891565"/>
      <point x="8.024096385542173" y="-7.421686746987952"/>
    </contour>
    <contour>
      <point x="428.55421686746985" y="589.710843373494" type="line"/>
      <point x="430.55421686746985" y="589.710843373494" type="line"/>
      <point x="524.0722891566264" y="236.5301204819277" type="line"/>
      <point x="549.0481927710844" y="256.03614457831327" type="line"/>
      <point x="200.36144578313252" y="256.03614457831327" type="line"/>
      <point x="222.65060240963854" y="237.95180722891567" type="line"/>
    </contour>
  </outline>
</glyph>
<glyph name="B" format="2">
  <advance width="681.6385542168674"/>
  <unicode hex="0042"/>
  <anchor x="305.6867469879518" y="0.0" name="bottom"/>
  <anchor x="416.68674698795184" y="705.0" name="top"/>
  <outline>
    <contour>
      <point x="104.19277108433735" y="0.0" type="curve" smooth="yes"/>
      <point x="364.48192771084337" y="0.0" type="line" smooth="yes"/>
      <point x="523.6144578313252" y="0.0"/>
      <point x="616.433734939759" y="72.13253012048193"/>
      <point x="616.433734939759" y="209.13253012048193" type="curve" smooth="yes"/>
      <point x="616.433734939759" y="291.4216867469879"/>
      <point x="563.277108433735" y="351.13253012048193"/>
      <point x="474.9879518072289" y="366.5542168674699" type="curve"/>
      <point x="474.9879518072289" y="351.13253012048193" type="line"/>
      <point x="581.0120481927711" y="366.5542168674699"/>
      <point x="651.3012048192771" y="435.421686746988"/>
      <point x="651.3012048192771" y="538.867469879518" type="curve" smooth="yes"/>
      <point x="651.3012048192771" y="638.0240963855422"/>
      <point x="584.1445783132531" y="705.0"/>
      <point x="433.3493975903615" y="705.0" type="curve" smooth="yes"/>
      <point x="207.2168674698795" y="705.0" type="line" smooth="yes"/>
      <point x="173.73493975903617" y="705.0"/>
      <point x="152.36144578313252" y="688.0481927710844"/>
      <point x="147.51807228915663" y="654.277108433735" type="curve" smooth="yes"/>
      <point x="53.46987951807229" y="59.6987951807229" type="line" smooth="yes"/>
      <point x="47.626506024096386" y="22.08433734939759"/>
      <point x="66.57831325301206" y="0.0"/>
    </contour>
    <contour>
      <point x="156.04819277108433" y="80.22891566265059" type="line"/>
      <point x="193.80722891566265" y="317.09638554216866" type="line"/>
      <point x="383.26506024096386" y="317.09638554216866" type="line" smooth="yes"/>
      <point x="468.65060240963857" y="317.09638554216866"/>
      <point x="515.566265060241" y="282.0481927710843"/>
      <point x="515.566265060241" y="213.8192771084337" type="curve" smooth="yes"/>
      <point x="515.566265060241" y="127.27710843373495"/>
      <point x="464.0722891566265" y="80.22891566265059"/>
      <point x="361.3734939759036" y="80.22891566265059" type="curve" smooth="yes"/>
    </contour>
    <contour>
      <point x="206.91566265060243" y="397.32530120481925" type="line"/>
      <point x="242.96385542168676" y="624.7710843373494" type="line"/>
      <point x="418.26506024096386" y="624.7710843373494" type="line" smooth="yes"/>
      <point x="508.51807228915663" y="624.7710843373494"/>
      <point x="550.433734939759" y="590.7228915662652"/>
      <point x="550.433734939759" y="527.9156626506025" type="curve" smooth="yes"/>
      <point x="550.433734939759" y="443.5301204819277"/>
      <point x="491.49397590361446" y="397.32530120481925"/>
      <point x="394.10843373493975" y="397.32530120481925" type="curve" smooth="yes"/>
    </contour>
  </outline>
</glyph>
<glyph name="C" format="2">
  <advance width="676.2409638554217"/>
  <unicode hex="0043"/>
  <anchor x="368.9759036144578" y="0.0" name="bottom"/>
  <anchor x="439.3975903614458" y="705.0" name="top"/>
  <outline>
    <contour>
      <point x="387.21686746987956" y="-9.421686746987952" type="curve" smooth="yes"/>
      <point x="459.71084337349396" y="-9.421686746987952"/>
      <point x="534.8192771084337" y="11.313253012048193"/>
      <point x="595.2650602409639" y="55.80722891566265" type="curve" smooth="yes"/>
      <point x="644.566265060241" y="90.3132530120482"/>
      <point x="605.7710843373494" y="166.67469879518075"/>
      <point x="551.2048192771084" y="132.59036144578312" type="curve" smooth="yes"/>
      <point x="500.3132530120482" y="97.07228915662651"/>
      <point x="452.26506024096386" y="83.46987951807229"/>
      <point x="396.6144578313253" y="83.46987951807229" type="curve" smooth="yes"/>
      <point x="260.96385542168673" y="83.46987951807229"/>
      <point x="184.1566265060241" y="149.51807228915663"/>
      <point x="184.1566265060241" y="311.10843373493975" type="curve" smooth="yes"/>
      <point x="184.1566265060241" y="489.56626506024094"/>
      <point x="279.12048192771084" y="621.5301204819277"/>
      <point x="442.0843373493976" y="621.5301204819277" type="curve" smooth="yes"/>
      <point x="502.89156626506025" y="621.5301204819277"/>
      <point x="554.6506024096386" y="607.3493975903615"/>
      <point x="606.6506024096385" y="567.433734939759" type="curve" smooth="yes"/>
      <point x="653.3975903614457" y="533.4819277108434"/>
      <point x="702.144578313253" y="611.5542168674699"/>
      <point x="654.132530120482" y="648.1927710843374" type="curve" smooth="yes"/>
      <point x="600.4216867469879" y="691.2409638554217"/>
      <point x="526.2650602409639" y="714.4216867469879"/>
      <point x="445.7951807228916" y="714.4216867469879" type="curve" smooth="yes"/>
      <point x="212.6024096385542" y="714.4216867469879"/>
      <point x="74.46987951807229" y="537.710843373494"/>
      <point x="74.46987951807229" y="308.5542168674699" type="curve" smooth="yes"/>
      <point x="74.46987951807229" y="93.97590361445782"/>
      <point x="203.26506024096386" y="-9.421686746987952"/>
    </contour>
  </outline>
</glyph>
<glyph name="E" format="2">
  <advance width="589.1927710843373"/>
  <unicode hex="0045"/>
  <anchor x="293.2650602409638" y="0.0" name="bottom"/>
  <anchor x="453.9759036144578" y="0.0" name="ogonek"/>
  <anchor x="399.55421686746985" y="705.0" name="top"/>
  <anchor x="97.44578313253012" y="705.0" name="topleft"/>
  <outline>
    <contour>
      <point x="104.90361445783132" y="0.0" type="curve" smooth="yes"/>
      <point x="465.1566265060241" y="0.0" type="line" smooth="yes"/>
      <point x="494.21686746987956" y="0.0"/>
      <point x="514.4578313253012" y="17.373493975903614"/>
      <point x="514.4578313253012" y="50.30120481927711" type="curve" smooth="yes"/>
      <point x="514.4578313253012" y="71.67469879518072"/>
      <point x="498.63855421686753" y="83.78313253012048"/>
      <point x="470.0" y="83.78313253012048" type="curve" smooth="yes"/>
      <point x="156.4698795180723" y="83.78313253012048" type="line"/>
      <point x="193.51807228915663" y="315.96385542168673" type="line"/>
      <point x="494.18072289156623" y="315.96385542168673" type="line" smooth="yes"/>
      <point x="523.2409638554217" y="315.96385542168673"/>
      <point x="543.4819277108434" y="333.3373493975904"/>
      <point x="543.4819277108434" y="366.26506024096386" type="curve" smooth="yes"/>
      <point x="543.4819277108434" y="387.6385542168675"/>
      <point x="527.6626506024096" y="399.7469879518072"/>
      <point x="499.73493975903614" y="399.7469879518072" type="curve" smooth="yes"/>
      <point x="206.91566265060243" y="399.7469879518072" type="line"/>
      <point x="242.25301204819277" y="621.2168674698795" type="line"/>
      <point x="564.0481927710842" y="621.2168674698795" type="line" smooth="yes"/>
      <point x="593.1084337349398" y="621.2168674698795"/>
      <point x="613.3493975903614" y="638.5903614457832"/>
      <point x="613.3493975903614" y="671.5180722891566" type="curve" smooth="yes"/>
      <point x="613.3493975903614" y="692.8915662650602"/>
      <point x="597.5301204819277" y="705.0"/>
      <point x="568.8915662650602" y="705.0" type="curve" smooth="yes"/>
      <point x="207.2168674698795" y="705.0" type="line" smooth="yes"/>
      <point x="173.73493975903617" y="705.0"/>
      <point x="152.65060240963857" y="688.0481927710844"/>
      <point x="147.51807228915663" y="654.277108433735" type="curve" smooth="yes"/>
      <point x="53.46987951807229" y="59.6987951807229" type="line" smooth="yes"/>
      <point x="47.626506024096386" y="21.373493975903614"/>
      <point x="65.86746987951807" y="0.0"/>
    </contour>
  </outline>
</glyph>
<glyph name="F" format="2">
  <advance width="554.4819277108434"/>
  <unicode hex="0046"/>
  <anchor x="259.26506024096386" y="0.0" name="bottom"/>
  <anchor x="372.6867469879518" y="705.0" name="top"/>
  <outline>
    <contour>
      <point x="99.77108433734941" y="-7.421686746987952" type="curve" smooth="yes"/>
      <point x="129.67469879518072" y="-7.421686746987952"/>
      <point x="149.04819277108433" y="8.819277108433734"/>
      <point x="154.89156626506025" y="44.012048192771076" type="curve" smooth="yes"/>
      <point x="197.36144578313252" y="312.4096385542169" type="line"/>
      <point x="481.4457831325301" y="312.4096385542169" type="line" smooth="yes"/>
      <point x="512.7951807228916" y="312.4096385542169"/>
      <point x="531.0361445783133" y="331.78313253012044"/>
      <point x="531.0361445783133" y="362.421686746988" type="curve" smooth="yes"/>
      <point x="531.0361445783133" y="384.0843373493976"/>
      <point x="515.2168674698795" y="396.1927710843373"/>
      <point x="486.289156626506" y="396.1927710843373" type="curve" smooth="yes"/>
      <point x="210.46987951807228" y="396.1927710843373" type="line"/>
      <point x="246.51807228915663" y="621.2168674698795" type="line"/>
      <point x="551.3132530120482" y="621.2168674698795" type="line" smooth="yes"/>
      <point x="582.6626506024096" y="621.2168674698795"/>
      <point x="600.9036144578314" y="640.5903614457832"/>
      <point x="600.9036144578314" y="671.2289156626506" type="curve" smooth="yes"/>
      <point x="600.9036144578314" y="692.8915662650602"/>
      <point x="585.0843373493976" y="705.0"/>
      <point x="556.1566265060242" y="705.0" type="curve" smooth="yes"/>
      <point x="207.2168674698795" y="705.0" type="line" smooth="yes"/>
      <point x="173.73493975903617" y="705.0"/>
      <point x="152.65060240963857" y="688.0481927710844"/>
      <point x="147.51807228915663" y="654.277108433735" type="curve" smooth="yes"/>
      <point x="52.46987951807229" y="52.27710843373494" type="line" smooth="yes"/>
      <point x="46.626506024096386" y="14.662650602409638"/>
      <point x="63.57831325301205" y="-7.421686746987952"/>
    </contour>
  </outline>
</glyph>
<glyph name="G" format="2">
  <advance width="730.7951807228916"/>
  <unicode hex="0047"/>
  <anchor x="384.7951807228916" y="0.0" name="bottom"/>
  <anchor x="443.2409638554217" y="705.0" name="top"/>
  <outline>
    <contour>
      <point x="393.95180722891564" y="-9.421686746987952" type="curve" smooth="yes"/>
      <point x="462.6867469879518" y="-9.421686746987952"/>
      <point x="537.132530120482" y="2.4457831325301207"/>
      <point x="590.1084337349398" y="22.02409638554217" type="curve" smooth="yes"/>
      <point x="613.3253012048193" y="30.289156626506024"/>
      <point x="624.433734939759" y="45.53012048192771"/>
      <point x="628.566265060241" y="71.32530120481927" type="curve" smooth="yes"/>
      <point x="668.3012048192771" y="322.8915662650602" type="line" smooth="yes"/>
      <point x="673.433734939759" y="355.2409638554217"/>
      <point x="656.6144578313252" y="373.48192771084337"/>
      <point x="625.2650602409639" y="373.48192771084337" type="curve" smooth="yes"/>
      <point x="453.3012048192771" y="373.48192771084337" type="line" smooth="yes"/>
      <point x="422.9518072289157" y="373.48192771084337"/>
      <point x="403.710843373494" y="356.95180722891564"/>
      <point x="403.710843373494" y="328.73493975903614" type="curve" smooth="yes"/>
      <point x="403.710843373494" y="307.7831325301205"/>
      <point x="420.2409638554217" y="294.67469879518075"/>
      <point x="448.4578313253012" y="294.67469879518075" type="curve" smooth="yes"/>
      <point x="576.5421686746988" y="294.67469879518075" type="line"/>
      <point x="538.6506024096385" y="62.01204819277108" type="line"/>
      <point x="567.3132530120481" y="109.93975903614458" type="line"/>
      <point x="518.5783132530121" y="92.78313253012048"/>
      <point x="466.9759036144578" y="80.62650602409639"/>
      <point x="407.3253012048193" y="80.62650602409639" type="curve" smooth="yes"/>
      <point x="261.2048192771084" y="80.62650602409639"/>
      <point x="181.73493975903617" y="151.5421686746988"/>
      <point x="181.73493975903617" y="302.50602409638554" type="curve" smooth="yes"/>
      <point x="181.73493975903617" y="490.8795180722891"/>
      <point x="280.2530120481928" y="622.9518072289156"/>
      <point x="446.34939759036143" y="622.9518072289156" type="curve" smooth="yes"/>
      <point x="512.0" y="622.9518072289156"/>
      <point x="568.4698795180723" y="606.6385542168675"/>
      <point x="615.6265060240963" y="570.277108433735" type="curve" smooth="yes"/>
      <point x="669.0602409638554" y="532.9036144578313"/>
      <point x="715.3855421686748" y="614.5301204819277"/>
      <point x="662.8192771084338" y="652.0361445783133" type="curve" smooth="yes"/>
      <point x="610.9759036144578" y="692.5301204819277"/>
      <point x="535.3734939759036" y="714.4216867469879"/>
      <point x="452.1927710843374" y="714.4216867469879" type="curve" smooth="yes"/>
      <point x="214.44578313253012" y="714.4216867469879"/>
      <point x="73.46987951807229" y="542.8674698795181"/>
      <point x="73.46987951807229" y="298.95180722891564" type="curve" smooth="yes"/>
      <point x="73.46987951807229" y="98.84337349397592"/>
      <point x="198.5301204819277" y="-9.421686746987952"/>
    </contour>
  </outline>
</glyph>
<glyph name="H" format="2">
  <advance width="766.6385542168674"/>
  <unicode hex="0048"/>
  <anchor x="350.53012048192767" y="0.0" name="bottom"/>
  <anchor x="433.2409638554217" y="556.6626506024096" name="center"/>
  <anchor x="455.10843373493975" y="705.0" name="top"/>
  <anchor x="97.1566265060241" y="705.0" name="topleft"/>
  <outline>
    <contour>
      <point x="95.7710843373494" y="-7.421686746987952" type="curve" smooth="yes"/>
      <point x="130.38554216867468" y="-7.421686746987952"/>
      <point x="148.33734939759037" y="10.53012048192771"/>
      <point x="153.89156626506025" y="45.14457831325301" type="curve" smooth="yes"/>
      <point x="196.65060240963857" y="313.8313253012048" type="line"/>
      <point x="591.7469879518072" y="313.8313253012048" type="line"/>
      <point x="550.9879518072289" y="54.12048192771084" type="line" smooth="yes"/>
      <point x="544.433734939759" y="15.08433734939759"/>
      <point x="559.5421686746988" y="-7.421686746987952"/>
      <point x="594.5783132530121" y="-7.421686746987952" type="curve" smooth="yes"/>
      <point x="628.4819277108434" y="-7.421686746987952"/>
      <point x="646.8554216867469" y="10.53012048192771"/>
      <point x="652.4096385542168" y="45.14457831325301" type="curve" smooth="yes"/>
      <point x="748.4578313253012" y="650.8795180722891" type="line" smooth="yes"/>
      <point x="755.0120481927711" y="690.6265060240964"/>
      <point x="739.1927710843373" y="712.4216867469879"/>
      <point x="704.8674698795181" y="712.4216867469879" type="curve" smooth="yes"/>
      <point x="670.2530120481928" y="712.4216867469879"/>
      <point x="652.5903614457832" y="695.1807228915662"/>
      <point x="647.0361445783133" y="660.5662650602409" type="curve" smooth="yes"/>
      <point x="605.566265060241" y="401.1686746987952" type="line"/>
      <point x="210.46987951807228" y="401.1686746987952" type="line"/>
      <point x="249.93975903614458" y="650.8795180722891" type="line" smooth="yes"/>
      <point x="256.49397590361446" y="689.9156626506024"/>
      <point x="241.38554216867468" y="712.4216867469879"/>
      <point x="207.06024096385542" y="712.4216867469879" type="curve" smooth="yes"/>
      <point x="172.44578313253012" y="712.4216867469879"/>
      <point x="154.0722891566265" y="695.1807228915662"/>
      <point x="148.51807228915663" y="660.5662650602409" type="curve" smooth="yes"/>
      <point x="52.46987951807229" y="54.12048192771084" type="line" smooth="yes"/>
      <point x="45.91566265060241" y="15.08433734939759"/>
      <point x="61.445783132530124" y="-7.421686746987952"/>
    </contour>
  </outline>
</glyph>
<glyph name="I" format="2">
  <advance width="268.12048192771084"/>
  <unicode hex="0049"/>
  <anchor x="95.34939759036145" y="0.0" name="bottom"/>
  <anchor x="127.01204819277109" y="0.0" name="ogonek"/>
  <anchor x="207.34939759036143" y="705.0" name="top"/>
  <anchor x="97.73493975903615" y="705.0" name="topleft"/>
  <outline>
    <contour>
      <point x="96.7710843373494" y="-7.421686746987952" type="curve" smooth="yes"/>
      <point x="130.67469879518072" y="-7.421686746987952"/>
      <point x="148.33734939759037" y="10.53012048192771"/>
      <point x="153.89156626506025" y="45.14457831325301" type="curve" smooth="yes"/>
      <point x="249.93975903614458" y="650.8795180722891" type="line" smooth="yes"/>
      <point x="256.49397590361446" y="690.6265060240964"/>
      <point x="241.38554216867468" y="712.4216867469879"/>
      <point x="207.06024096385542" y="712.4216867469879" type="curve" smooth="yes"/>
      <point x="172.44578313253012" y="712.4216867469879"/>
      <point x="154.0722891566265" y="695.1807228915662"/>
      <point x="148.51807228915663" y="660.5662650602409" type="curve" smooth="yes"/>
      <point x="52.46987951807229" y="54.12048192771084" type="line" smooth="yes"/>
      <point x="45.91566265060241" y="15.08433734939759"/>
      <point x="61.734939759036145" y="-7.421686746987952"/>
    </contour>
  </outline>
</glyph>
<glyph name="J" format="2">
  <advance width="337.51807228915663"/>
  <unicode hex="004A"/>
  <anchor x="165.74698795180723" y="0.0" name="bottom"/>
  <anchor x="276.4578313253012" y="705.0" name="top"/>
  <outline>
    <contour>
      <point x="3.301204819277107" y="-6.710843373493976" type="curve" smooth="yes"/>
      <point x="33.59036144578313" y="-4.421686746987952" type="line" smooth="yes"/>
      <point x="167.6024096385542" y="5.578313253012048"/>
      <point x="227.02409638554215" y="70.13253012048193"/>
      <point x="246.15662650602408" y="190.50602409638554" type="curve" smooth="yes"/>
      <point x="320.04819277108436" y="655.4337349397591" type="line" smooth="yes"/>
      <point x="325.89156626506025" y="691.3373493975904"/>
      <point x="308.9397590361446" y="712.4216867469879"/>
      <point x="274.61445783132524" y="712.4216867469879" type="curve" smooth="yes"/>
      <point x="242.13253012048193" y="712.4216867469879"/>
      <point x="223.46987951807228" y="696.8915662650602"/>
      <point x="218.6265060240964" y="664.4096385542169" type="curve" smooth="yes"/>
      <point x="145.02409638554215" y="201.21686746987953" type="line" smooth="yes"/>
      <point x="132.86746987951807" y="123.98795180722891"/>
      <point x="94.53012048192771" y="86.36144578313252"/>
      <point x="27.325301204819276" y="81.49397590361446" type="curve" smooth="yes"/>
      <point x="-4.2530120481927725" y="79.20481927710843" type="line" smooth="yes"/>
      <point x="-31.759036144578314" y="77.49397590361446"/>
      <point x="-45.445783132530124" y="62.674698795180724"/>
      <point x="-46.1566265060241" y="35.036144578313255" type="curve" smooth="yes"/>
      <point x="-46.867469879518076" y="7.108433734939759"/>
      <point x="-27.915662650602407" y="-8.710843373493976"/>
    </contour>
  </outline>
</glyph>
<glyph name="K" format="2">
  <advance width="642.6024096385543"/>
  <unicode hex="004B"/>
  <anchor x="292.48192771084337" y="0.0" name="bottom"/>
  <anchor x="395.6144578313253" y="705.0" name="top"/>
  <anchor x="96.73493975903614" y="705.0" name="topleft"/>
  <outline>
    <contour>
      <point x="96.34939759036145" y="-7.421686746987952" type="curve" smooth="yes"/>
      <point x="130.25301204819274" y="-7.421686746987952"/>
      <point x="148.6265060240964" y="8.819277108433734"/>
      <point x="154.18072289156626" y="42.72289156626506" type="curve" smooth="yes"/>
      <point x="199.49397590361446" y="331.6024096385542" type="line"/>
      <point x="201.49397590361446" y="331.6024096385542" type="line"/>
      <point x="480.20481927710847" y="25.903614457831324" type="line" smooth="yes"/>
      <point x="501.0" y="2.265060240963855"/>
      <point x="512.2650602409639" y="-7.421686746987952"/>
      <point x="536.9036144578313" y="-7.421686746987952" type="curve" smooth="yes"/>
      <point x="577.2289156626506" y="-7.421686746987952"/>
      <point x="597.3132530120482" y="33.614457831325296"/>
      <point x="571.2289156626506" y="62.963855421686745" type="curve" smooth="yes"/>
      <point x="281.8072289156627" y="386.06024096385545" type="line"/>
      <point x="283.2048192771084" y="335.4457831325301" type="line"/>
      <point x="643.566265060241" y="640.1927710843373" type="line" smooth="yes"/>
      <point x="675.3373493975904" y="667.5421686746988"/>
      <point x="657.6746987951808" y="712.4216867469879"/>
      <point x="616.9277108433736" y="712.4216867469879" type="curve" smooth="yes"/>
      <point x="595.843373493976" y="712.4216867469879"/>
      <point x="583.7349397590361" y="704.7349397590361"/>
      <point x="565.2048192771084" y="688.2048192771085" type="curve" smooth="yes"/>
      <point x="210.33734939759037" y="388.3734939759036" type="line"/>
      <point x="208.33734939759037" y="388.3734939759036" type="line"/>
      <point x="250.2289156626506" y="652.5903614457832" type="line" smooth="yes"/>
      <point x="256.0722891566265" y="690.6265060240964"/>
      <point x="239.5421686746988" y="712.4216867469879"/>
      <point x="206.63855421686748" y="712.4216867469879" type="curve" smooth="yes"/>
      <point x="172.73493975903617" y="712.4216867469879"/>
      <point x="154.36144578313252" y="695.4698795180723"/>
      <point x="148.80722891566265" y="661.566265060241" type="curve" smooth="yes"/>
      <point x="52.04819277108433" y="53.12048192771084" type="line" smooth="yes"/>
      <point x="45.493975903614455" y="14.373493975903614"/>
      <point x="63.445783132530124" y="-7.421686746987952"/>
    </contour>
  </outline>
</glyph>
<glyph name="L" format="2">
  <advance width="551.8795180722891"/>
  <unicode hex="004C"/>
  <anchor x="271.26506024096386" y="0.0" name="bottom"/>
  <anchor x="200.48192771084337" y="387.0" name="center"/>
  <anchor x="437.144578313253" y="391.6867469879518" name="dot"/>
  <anchor x="206.63855421686748" y="705.0" name="top"/>
  <anchor x="370.2530120481928" y="705.0" name="topright"/>
  <outline>
    <contour>
      <point x="101.19277108433735" y="0.0" type="curve" smooth="yes"/>
      <point x="457.73493975903614" y="0.0" type="line" smooth="yes"/>
      <point x="489.6385542168675" y="0.0"/>
      <point x="510.5903614457832" y="18.08433734939759"/>
      <point x="510.5903614457832" y="53.144578313253014" type="curve" smooth="yes"/>
      <point x="510.5903614457832" y="75.93975903614458"/>
      <point x="493.34939759036143" y="88.75903614457832"/>
      <point x="463.28915662650604" y="88.75903614457832" type="curve" smooth="yes"/>
      <point x="161.73493975903614" y="88.75903614457832" type="line"/>
      <point x="250.93975903614458" y="655.722891566265" type="line" smooth="yes"/>
      <point x="256.49397590361446" y="691.3373493975903"/>
      <point x="239.8313253012048" y="712.421686746988"/>
      <point x="205.2168674698795" y="712.421686746988" type="curve" smooth="yes"/>
      <point x="173.02409638554218" y="712.421686746988"/>
      <point x="154.36144578313252" y="697.1807228915662"/>
      <point x="149.51807228915663" y="664.6987951807229" type="curve" smooth="yes"/>
      <point x="52.75903614457831" y="57.40963855421687" type="line" smooth="yes"/>
      <point x="47.20481927710843" y="21.08433734939759"/>
      <point x="64.86746987951807" y="0.0"/>
    </contour>
  </outline>
</glyph>
<glyph name="M" format="2">
  <advance width="861.7710843373494"/>
  <unicode hex="004D"/>
  <anchor x="398.95180722891564" y="0.0" name="bottom"/>
  <anchor x="504.5301204819277" y="705.0" name="top"/>
  <outline>
    <contour>
      <point x="96.21686746987952" y="-3.5542168674698793" type="curve" smooth="yes"/>
      <point x="125.56626506024097" y="-3.5542168674698793"/>
      <point x="141.2289156626506" y="11.975903614457831"/>
      <point x="146.07228915662648" y="41.036144578313255" type="curve" smooth="yes"/>
      <point x="228.16867469879517" y="558.6626506024096" type="line"/>
      <point x="206.74698795180723" y="558.6626506024096" type="line"/>
      <point x="369.6265060240964" y="131.95180722891567" type="line" smooth="yes"/>
      <point x="377.89156626506025" y="110.0"/>
      <point x="390.28915662650604" y="100.44578313253012"/>
      <point x="411.53012048192767" y="100.44578313253012" type="curve" smooth="yes"/>
      <point x="431.06024096385545" y="100.44578313253012"/>
      <point x="441.7469879518072" y="107.28915662650603"/>
      <point x="454.14457831325296" y="124.81927710843375" type="curve" smooth="yes"/>
      <point x="756.3493975903615" y="561.2168674698795" type="line"/>
      <point x="732.7710843373494" y="561.2168674698795" type="line"/>
      <point x="651.6746987951807" y="48.59036144578313" type="line" smooth="yes"/>
      <point x="646.8313253012049" y="15.819277108433734"/>
      <point x="663.3614457831326" y="-3.5542168674698793"/>
      <point x="693.843373493976" y="-3.5542168674698793" type="curve" smooth="yes"/>
      <point x="723.9036144578314" y="-3.5542168674698793"/>
      <point x="739.566265060241" y="11.975903614457831"/>
      <point x="744.4096385542168" y="41.036144578313255" type="curve" smooth="yes"/>
      <point x="842.5903614457832" y="659.9879518072289" type="line" smooth="yes"/>
      <point x="847.433734939759" y="692.7590361445783"/>
      <point x="832.9036144578314" y="712.4216867469879"/>
      <point x="801.7108433734941" y="712.4216867469879" type="curve" smooth="yes"/>
      <point x="775.7831325301205" y="712.4216867469879"/>
      <point x="759.8313253012049" y="703.156626506024"/>
      <point x="745.3012048192771" y="682.0722891566264" type="curve" smooth="yes"/>
      <point x="403.92771084337346" y="188.8433734939759" type="line"/>
      <point x="432.3493975903615" y="188.8433734939759" type="line"/>
      <point x="252.51807228915658" y="673.8072289156627" type="line" smooth="yes"/>
      <point x="242.12048192771084" y="701.4457831325301"/>
      <point x="229.30120481927713" y="712.4216867469879"/>
      <point x="203.08433734939757" y="712.4216867469879" type="curve" smooth="yes"/>
      <point x="174.02409638554218" y="712.4216867469879"/>
      <point x="157.0722891566265" y="697.8915662650602"/>
      <point x="152.2289156626506" y="667.5421686746987" type="curve" smooth="yes"/>
      <point x="54.04819277108433" y="48.59036144578313" type="line" smooth="yes"/>
      <point x="49.20481927710843" y="15.819277108433734"/>
      <point x="63.60240963855421" y="-3.5542168674698793"/>
    </contour>
  </outline>
</glyph>
<glyph name="N" format="2">
  <advance width="742.6626506024096"/>
  <unicode hex="004E"/>
  <anchor x="343.6867469879518" y="0.0" name="bottom"/>
  <anchor x="443.55421686746985" y="705.0" name="top"/>
  <outline>
    <contour>
      <point x="93.34939759036143" y="-7.421686746987952" type="curve" smooth="yes"/>
      <point x="125.54216867469881" y="-7.421686746987952"/>
      <point x="141.0722891566265" y="7.8192771084337345"/>
      <point x="145.9156626506024" y="40.3012048192771" type="curve" smooth="yes"/>
      <point x="230.43373493975903" y="574.855421686747" type="line"/>
      <point x="207.74698795180723" y="574.855421686747" type="line"/>
      <point x="528.144578313253" y="26.771084337349397" type="line" smooth="yes"/>
      <point x="541.9638554216867" y="3.265060240963855"/>
      <point x="556.2048192771084" y="-7.421686746987952"/>
      <point x="582.843373493976" y="-7.421686746987952" type="curve" smooth="yes"/>
      <point x="608.0602409638553" y="-7.421686746987952"/>
      <point x="622.5903614457831" y="7.8192771084337345"/>
      <point x="627.433734939759" y="38.168674698795186" type="curve" smooth="yes"/>
      <point x="725.1927710843373" y="655.722891566265" type="line" smooth="yes"/>
      <point x="730.7469879518072" y="691.3373493975904"/>
      <point x="716.5060240963855" y="712.4216867469879"/>
      <point x="686.7349397590361" y="712.4216867469879" type="curve" smooth="yes"/>
      <point x="654.5421686746988" y="712.4216867469879"/>
      <point x="635.8795180722892" y="697.1807228915662"/>
      <point x="631.0361445783133" y="664.6987951807229" type="curve" smooth="yes"/>
      <point x="546.5180722891566" y="130.14457831325302" type="line"/>
      <point x="569.4939759036145" y="130.14457831325302" type="line"/>
      <point x="249.09638554216866" y="679.6506024096386" type="line" smooth="yes"/>
      <point x="235.27710843373495" y="702.4457831325301"/>
      <point x="224.87951807228916" y="712.4216867469879"/>
      <point x="198.24096385542168" y="712.4216867469879" type="curve" smooth="yes"/>
      <point x="173.02409638554218" y="712.4216867469879"/>
      <point x="155.0722891566265" y="698.6024096385543"/>
      <point x="150.2289156626506" y="668.2530120481928" type="curve" smooth="yes"/>
      <point x="51.75903614457831" y="49.98795180722891" type="line" smooth="yes"/>
      <point x="46.20481927710843" y="13.662650602409638"/>
      <point x="62.86746987951807" y="-7.421686746987952"/>
    </contour>
  </outline>
</glyph>
<glyph name="O" format="2">
  <advance width="775.1686746987951"/>
  <unicode hex="004F"/>
  <anchor x="361.2168674698795" y="-9.421686746987952" name="Qtail"/>
  <anchor x="359.2409638554217" y="0.0" name="bottom"/>
  <anchor x="405.0843373493976" y="353.0" name="center"/>
  <anchor x="420.1927710843374" y="0.0" name="ogonek"/>
  <anchor x="449.2409638554217" y="705.0" name="top"/>
  <anchor x="99.0" y="705.0" name="topleft"/>
  <anchor x="502.6385542168675" y="705.0" name="topright"/>
  <outline>
    <contour>
      <point x="374.06024096385545" y="-9.421686746987952" type="curve" smooth="yes"/>
      <point x="602.7710843373494" y="-9.421686746987952"/>
      <point x="736.698795180723" y="169.04819277108433"/>
      <point x="736.698795180723" y="409.6024096385542" type="curve" smooth="yes"/>
      <point x="736.698795180723" y="604.7349397590361"/>
      <point x="619.0361445783133" y="714.4216867469879"/>
      <point x="436.1084337349398" y="714.4216867469879" type="curve" smooth="yes"/>
      <point x="207.39759036144576" y="714.4216867469879"/>
      <point x="73.46987951807229" y="535.9518072289156"/>
      <point x="73.46987951807229" y="296.10843373493975" type="curve" smooth="yes"/>
      <point x="73.46987951807229" y="100.26506024096386"/>
      <point x="191.84337349397592" y="-9.421686746987952"/>
    </contour>
    <contour>
      <point x="376.06024096385545" y="80.62650602409639" type="curve" smooth="yes"/>
      <point x="255.2289156626506" y="80.62650602409639"/>
      <point x="181.73493975903617" y="150.83132530120483"/>
      <point x="181.73493975903617" y="297.5301204819277" type="curve" smooth="yes"/>
      <point x="181.73493975903617" y="486.38554216867465"/>
      <point x="271.8072289156627" y="624.3734939759036"/>
      <point x="433.1084337349398" y="624.3734939759036" type="curve" smooth="yes"/>
      <point x="554.9397590361447" y="624.3734939759036"/>
      <point x="628.4337349397591" y="554.1686746987951"/>
      <point x="628.4337349397591" y="408.1807228915663" type="curve" smooth="yes"/>
      <point x="628.4337349397591" y="219.61445783132532"/>
      <point x="538.3614457831326" y="80.62650602409639"/>
    </contour>
  </outline>
</glyph>
<glyph name="P" format="2">
  <advance width="641.5903614457832"/>
  <unicode hex="0050"/>
  <anchor x="288.66265060240966" y="0.0" name="bottom"/>
  <anchor x="399.95180722891564" y="705.0" name="top"/>
  <outline>
    <contour>
      <point x="96.63855421686748" y="-7.421686746987952" type="curve" smooth="yes"/>
      <point x="130.25301204819274" y="-7.421686746987952"/>
      <point x="148.33734939759037" y="9.240963855421686"/>
      <point x="153.89156626506025" y="43.855421686746986" type="curve" smooth="yes"/>
      <point x="190.36144578313252" y="273.5421686746988" type="line"/>
      <point x="381.3734939759036" y="273.5421686746988" type="line" smooth="yes"/>
      <point x="556.4578313253012" y="273.5421686746988"/>
      <point x="650.855421686747" y="363.96385542168673"/>
      <point x="650.855421686747" y="512.4698795180723" type="curve" smooth="yes"/>
      <point x="650.855421686747" y="637.8915662650603"/>
      <point x="568.433734939759" y="705.0"/>
      <point x="419.0843373493976" y="705.0" type="curve" smooth="yes"/>
      <point x="207.06024096385542" y="705.0" type="line" smooth="yes"/>
      <point x="173.44578313253012" y="705.0"/>
      <point x="153.36144578313252" y="689.0481927710844"/>
      <point x="147.80722891566265" y="654.433734939759" type="curve" smooth="yes"/>
      <point x="52.46987951807229" y="52.831325301204814" type="line" smooth="yes"/>
      <point x="46.91566265060241" y="15.08433734939759"/>
      <point x="63.445783132530124" y="-7.421686746987952"/>
    </contour>
    <contour>
      <point x="203.75903614457832" y="356.6144578313253" type="line"/>
      <point x="245.80722891566265" y="621.9277108433735" type="line"/>
      <point x="408.421686746988" y="621.9277108433735" type="line" smooth="yes"/>
      <point x="502.3614457831325" y="621.9277108433735"/>
      <point x="549.987951807229" y="585.4578313253012"/>
      <point x="549.987951807229" y="505.0722891566265" type="curve" smooth="yes"/>
      <point x="549.987951807229" y="408.5301204819277"/>
      <point x="493.20481927710847" y="356.6144578313253"/>
      <point x="386.7951807228916" y="356.6144578313253" type="curve" smooth="yes"/>
    </contour>
  </outline>
</glyph>
<glyph name="R" format="2">
  <advance width="676.7469879518072"/>
  <unicode hex="0052"/>
  <anchor x="312.81927710843377" y="0.0" name="bottom"/>
  <anchor x="404.2409638554217" y="705.0" name="top"/>
  <outline>
    <contour>
      <point x="95.34939759036145" y="-7.421686746987952" type="curve" smooth="yes"/>
      <point x="129.96385542168673" y="-7.421686746987952"/>
      <point x="149.04819277108433" y="9.53012048192771"/>
      <point x="154.6024096385542" y="44.14457831325301" type="curve" smooth="yes"/>
      <point x="193.0722891566265" y="290.67469879518075" type="line"/>
      <point x="314.8674698795181" y="290.67469879518075" type="line" smooth="yes"/>
      <point x="375.09638554216866" y="290.67469879518075"/>
      <point x="403.4096385542169" y="270.93975903614455"/>
      <point x="423.72289156626505" y="217.4457831325301" type="curve" smooth="yes"/>
      <point x="492.3493975903615" y="37.59036144578313" type="line" smooth="yes"/>
      <point x="504.45783132530113" y="6.108433734939759"/>
      <point x="518.9879518072289" y="-7.421686746987952"/>
      <point x="547.0481927710842" y="-7.421686746987952" type="curve" smooth="yes"/>
      <point x="590.0602409638554" y="-7.421686746987952"/>
      <point x="604.3012048192771" y="17.795180722891565"/>
      <point x="588.0602409638554" y="60.25301204819277" type="curve" smooth="yes"/>
      <point x="530.8072289156627" y="209.8313253012048" type="line" smooth="yes"/>
      <point x="507.09638554216866" y="271.96385542168673"/>
      <point x="470.2530120481928" y="307.8072289156627"/>
      <point x="410.144578313253" y="307.8072289156627" type="curve" smooth="yes"/>
      <point x="389.34939759036143" y="307.8072289156627" type="line"/>
      <point x="389.34939759036143" y="293.9638554216868" type="line"/>
      <point x="539.8795180722892" y="291.3855421686747"/>
      <point x="650.855421686747" y="364.3855421686747"/>
      <point x="650.855421686747" y="512.8915662650603" type="curve" smooth="yes"/>
      <point x="650.855421686747" y="631.8674698795181"/>
      <point x="571.7469879518072" y="705.0"/>
      <point x="418.06024096385545" y="705.0" type="curve" smooth="yes"/>
      <point x="208.06024096385542" y="705.0" type="line" smooth="yes"/>
      <point x="173.44578313253012" y="705.0"/>
      <point x="153.36144578313252" y="688.0481927710844"/>
      <point x="147.80722891566265" y="653.433734939759" type="curve" smooth="yes"/>
      <point x="52.75903614457831" y="53.831325301204814" type="line" smooth="yes"/>
      <point x="46.20481927710843" y="15.08433734939759"/>
      <point x="63.1566265060241" y="-7.421686746987952"/>
    </contour>
    <contour>
      <point x="205.75903614457832" y="369.48192771084337" type="line"/>
      <point x="245.80722891566265" y="621.9277108433735" type="line"/>
      <point x="404.55421686746985" y="621.9277108433735" type="line" smooth="yes"/>
      <point x="505.2289156626506" y="621.9277108433735"/>
      <point x="549.987951807229" y="582.5903614457832"/>
      <point x="549.987951807229" y="505.49397590361446" type="curve" smooth="yes"/>
      <point x="549.987951807229" y="417.6867469879518"/>
      <point x="491.9156626506024" y="369.48192771084337"/>
      <point x="392.2409638554217" y="369.48192771084337" type="curve" smooth="yes"/>
    </contour>
  </outline>
</glyph>
<glyph name="S" format="2">
  <advance width="622.0361445783133"/>
  <unicode hex="0053"/>
  <anchor x="296.66265060240966" y="0.0" name="bottom"/>
  <anchor x="373.7951807228916" y="705.0" name="top"/>
  <outline>
    <contour>
      <point x="298.55421686746985" y="-9.421686746987952" type="curve" smooth="yes"/>
      <point x="450.2168674698795" y="-9.421686746987952"/>
      <point x="576.6987951807229" y="63.42168674698796"/>
      <point x="576.6987951807229" y="203.7710843373494" type="curve" smooth="yes"/>
      <point x="576.6987951807229" y="289.6144578313253"/>
      <point x="518.1445783132531" y="350.87951807228916"/>
      <point x="396.0963855421687" y="379.4578313253012" type="curve" smooth="yes"/>
      <point x="289.9879518072289" y="404.87951807228916" type="line" smooth="yes"/>
      <point x="227.0722891566265" y="420.03614457831327"/>
      <point x="195.18072289156626" y="446.06024096385545"/>
      <point x="195.18072289156626" y="506.3132530120482" type="curve" smooth="yes"/>
      <point x="195.18072289156626" y="578.433734939759"/>
      <point x="264.9879518072289" y="625.7951807228916"/>
      <point x="361.2168674698795" y="625.7951807228916" type="curve" smooth="yes"/>
      <point x="422.4216867469879" y="625.7951807228916"/>
      <point x="487.6024096385542" y="610.0602409638554"/>
      <point x="537.2048192771084" y="574.8313253012049" type="curve" smooth="yes"/>
      <point x="600.5903614457832" y="534.7710843373493"/>
      <point x="632.1204819277109" y="614.2650602409639"/>
      <point x="586.9518072289158" y="646.6385542168675" type="curve" smooth="yes"/>
      <point x="523.8433734939758" y="694.3975903614457"/>
      <point x="437.68674698795184" y="714.4216867469879"/>
      <point x="363.2168674698795" y="714.4216867469879" type="curve" smooth="yes"/>
      <point x="215.6867469879518" y="714.4216867469879"/>
      <point x="92.18072289156626" y="632.0"/>
      <point x="92.18072289156626" y="498.49397590361446" type="curve" smooth="yes"/>
      <point x="92.18072289156626" y="397.7590361445783"/>
      <point x="153.3132530120482" y="343.2289156626506"/>
      <point x="248.289156626506" y="320.8072289156627" type="curve" smooth="yes"/>
      <point x="354.3975903614458" y="295.3855421686747" type="line" smooth="yes"/>
      <point x="442.3855421686747" y="275.0722891566265"/>
      <point x="473.6987951807229" y="241.4457831325301"/>
      <point x="473.6987951807229" y="191.95180722891567" type="curve" smooth="yes"/>
      <point x="473.6987951807229" y="123.12048192771084"/>
      <point x="408.4698795180723" y="79.20481927710843"/>
      <point x="307.66265060240966" y="79.20481927710843" type="curve" smooth="yes"/>
      <point x="233.0120481927711" y="79.20481927710843"/>
      <point x="162.30120481927713" y="92.49397590361446"/>
      <point x="98.855421686747" y="132.98795180722894" type="curve" smooth="yes"/>
      <point x="42.28915662650603" y="166.49397590361448"/>
      <point x="4.650602409638555" y="86.57831325301206"/>
      <point x="55.084337349397586" y="54.78313253012048" type="curve" smooth="yes"/>
      <point x="122.63855421686748" y="9.44578313253012"/>
      <point x="211.3734939759036" y="-9.421686746987952"/>
    </contour>
  </outline>
</glyph>
<glyph name="T" format="2">
  <advance width="610.8795180722891"/>
  <unicode hex="0054"/>
  <anchor x="267.50602409638554" y="0.0" name="bottom"/>
  <anchor x="323.7951807228916" y="358.0" name="center"/>
  <anchor x="377.3734939759036" y="705.0" name="top"/>
  <outline>
    <contour>
      <point x="267.50602409638554" y="-7.421686746987952" type="curve" smooth="yes"/>
      <point x="301.4096385542168" y="-7.421686746987952"/>
      <point x="320.0722891566265" y="10.240963855421686"/>
      <point x="325.6265060240964" y="44.14457831325301" type="curve" smooth="yes"/>
      <point x="416.5421686746988" y="617.6626506024096" type="line"/>
      <point x="628.6024096385541" y="617.6626506024096" type="line" smooth="yes"/>
      <point x="661.3734939759037" y="617.6626506024096"/>
      <point x="681.0361445783133" y="637.0361445783132"/>
      <point x="681.0361445783133" y="669.8072289156627" type="curve" smooth="yes"/>
      <point x="681.0361445783133" y="692.8915662650602"/>
      <point x="663.7951807228916" y="705.0"/>
      <point x="634.156626506024" y="705.0" type="curve" smooth="yes"/>
      <point x="115.16867469879517" y="705.0" type="line" smooth="yes"/>
      <point x="83.39759036144578" y="705.0"/>
      <point x="62.734939759036145" y="686.3373493975904"/>
      <point x="62.734939759036145" y="653.855421686747" type="curve" smooth="yes"/>
      <point x="62.734939759036145" y="631.4819277108434"/>
      <point x="79.97590361445783" y="617.6626506024096"/>
      <point x="109.6144578313253" y="617.6626506024096" type="curve" smooth="yes"/>
      <point x="313.4096385542169" y="617.6626506024096" type="line"/>
      <point x="224.2048192771084" y="53.12048192771084" type="line" smooth="yes"/>
      <point x="218.36144578313252" y="15.08433734939759"/>
      <point x="234.60240963855424" y="-7.421686746987952"/>
    </contour>
  </outline>
</glyph>
<glyph name="U" format="2">
  <advance width="732.7951807228916"/>
  <unicode hex="0055"/>
  <anchor x="328.3975903614458" y="0.0" name="bottom"/>
  <anchor x="396.0843373493976" y="0.0" name="ogonek"/>
  <anchor x="438.6867469879518" y="705.0" name="top"/>
  <anchor x="645.7831325301205" y="705.0" name="topright"/>
  <outline>
    <contour>
      <point x="337.8192771084337" y="-9.421686746987952" type="curve" smooth="yes"/>
      <point x="530.8795180722891" y="-9.421686746987952"/>
      <point x="629.5903614457832" y="87.39759036144578"/>
      <point x="659.0120481927711" y="273.7951807228916" type="curve" smooth="yes"/>
      <point x="718.9036144578314" y="654.7228915662652" type="line" smooth="yes"/>
      <point x="724.7469879518072" y="691.3373493975904"/>
      <point x="707.7951807228915" y="712.4216867469879"/>
      <point x="674.8915662650602" y="712.4216867469879" type="curve" smooth="yes"/>
      <point x="642.4096385542169" y="712.4216867469879"/>
      <point x="623.0361445783132" y="696.1807228915662"/>
      <point x="618.1927710843373" y="663.698795180723" type="curve" smooth="yes"/>
      <point x="556.1686746987951" y="274.9759036144578" type="line" smooth="yes"/>
      <point x="534.144578313253" y="139.25301204819277"/>
      <point x="465.07228915662654" y="80.62650602409639"/>
      <point x="344.2168674698795" y="80.62650602409639" type="curve" smooth="yes"/>
      <point x="219.5180722891566" y="80.62650602409639"/>
      <point x="166.73493975903614" y="153.09638554216866"/>
      <point x="188.75903614457832" y="293.3734939759036" type="curve" smooth="yes"/>
      <point x="245.65060240963857" y="654.7228915662652" type="line" smooth="yes"/>
      <point x="251.49397590361446" y="691.3373493975904"/>
      <point x="235.25301204819274" y="712.4216867469879"/>
      <point x="200.9277108433735" y="712.4216867469879" type="curve" smooth="yes"/>
      <point x="168.44578313253012" y="712.4216867469879"/>
      <point x="149.0722891566265" y="696.1807228915662"/>
      <point x="144.2289156626506" y="663.698795180723" type="curve" smooth="yes"/>
      <point x="86.62650602409639" y="301.50602409638554" type="line" smooth="yes"/>
      <point x="53.493975903614455" y="93.42168674698794"/>
      <point x="159.6867469879518" y="-9.421686746987952"/>
    </contour>
  </outline>
</glyph>
<glyph name="V" format="2">
  <advance width="699.4096385542168"/>
  <unicode hex="0056"/>
  <anchor x="311.34939759036143" y="0.0" name="bottom"/>
  <anchor x="421.6385542168675" y="705.0" name="top"/>
  <outline>
    <contour>
      <point x="312.1927710843373" y="-7.421686746987952" type="curve" smooth="yes"/>
      <point x="341.4096385542169" y="-7.421686746987952"/>
      <point x="357.9397590361446" y="4.265060240963855"/>
      <point x="373.7590361445783" y="31.060240963855417" type="curve" smooth="yes"/>
      <point x="737.3253012048192" y="637.9036144578313" type="line" smooth="yes"/>
      <point x="757.6987951807229" y="672.3855421686746"/>
      <point x="741.4578313253013" y="705.0"/>
      <point x="700.289156626506" y="705.0" type="curve" smooth="yes"/>
      <point x="672.6506024096386" y="705.0"/>
      <point x="657.5421686746988" y="694.3132530120482"/>
      <point x="642.301204819277" y="668.3855421686746" type="curve" smooth="yes"/>
      <point x="300.3493975903615" y="87.97590361445782" type="line"/>
      <point x="337.855421686747" y="87.97590361445782" type="line"/>
      <point x="183.02409638554218" y="659.4096385542168" type="line" smooth="yes"/>
      <point x="174.04819277108433" y="693.0240963855422"/>
      <point x="157.3855421686747" y="705.0"/>
      <point x="131.1686746987952" y="705.0" type="curve" smooth="yes"/>
      <point x="96.26506024096385" y="705.0"/>
      <point x="75.46987951807229" y="679.3614457831325"/>
      <point x="85.86746987951808" y="641.3253012048193" type="curve" smooth="yes"/>
      <point x="254.6265060240964" y="40.03614457831325" type="line" smooth="yes"/>
      <point x="263.60240963855426" y="8.397590361445783"/>
      <point x="280.84337349397595" y="-7.421686746987952"/>
    </contour>
  </outline>
</glyph>
<glyph name="W" format="2">
  <advance width="1106.6385542168675"/>
  <unicode hex="0057"/>
  <anchor x="514.8192771084338" y="0.0" name="bottom"/>
  <anchor x="624.3975903614459" y="705.0" name="top"/>
  <outline>
    <contour>
      <point x="277.9277108433735" y="-7.421686746987952" type="curve" smooth="yes"/>
      <point x="308.27710843373495" y="-7.421686746987952"/>
      <point x="325.2289156626506" y="4.975903614457831"/>
      <point x="339.33734939759034" y="32.48192771084338" type="curve" smooth="yes"/>
      <point x="617.7349397590361" y="578.5903614457832" type="line"/>
      <point x="595.6024096385543" y="578.5903614457832" type="line"/>
      <point x="697.4096385542169" y="42.4578313253012" type="line" smooth="yes"/>
      <point x="703.9638554216867" y="9.397590361445783"/>
      <point x="719.7831325301205" y="-7.421686746987952"/>
      <point x="748.710843373494" y="-7.421686746987952" type="curve" smooth="yes"/>
      <point x="778.3493975903615" y="-7.421686746987952"/>
      <point x="796.3012048192771" y="4.975903614457831"/>
      <point x="810.4096385542169" y="32.48192771084338" type="curve" smooth="yes"/>
      <point x="1122.5301204819277" y="644.7469879518072" type="line" smooth="yes"/>
      <point x="1141.9036144578313" y="682.0722891566265"/>
      <point x="1125.9518072289156" y="712.4216867469879"/>
      <point x="1085.9156626506024" y="712.4216867469879" type="curve" smooth="yes"/>
      <point x="1059.566265060241" y="712.4216867469879"/>
      <point x="1044.4578313253012" y="700.3132530120482"/>
      <point x="1031.6385542168675" y="674.3855421686746" type="curve" smooth="yes"/>
      <point x="740.6867469879519" y="95.7710843373494" type="line"/>
      <point x="774.0843373493976" y="95.7710843373494" type="line"/>
      <point x="669.9879518072289" y="661.5421686746988" type="line" smooth="yes"/>
      <point x="663.144578313253" y="696.8915662650603"/>
      <point x="649.0361445783132" y="712.4216867469879"/>
      <point x="623.5301204819276" y="712.4216867469879" type="curve" smooth="yes"/>
      <point x="597.3132530120482" y="712.4216867469879"/>
      <point x="580.0722891566265" y="700.0240963855422"/>
      <point x="565.9638554216867" y="672.5180722891566" type="curve" smooth="yes"/>
      <point x="273.1686746987952" y="95.7710843373494" type="line"/>
      <point x="310.566265060241" y="95.7710843373494" type="line"/>
      <point x="207.18072289156626" y="664.4096385542168" type="line" smooth="yes"/>
      <point x="201.33734939759037" y="697.4698795180723"/>
      <point x="184.09638554216866" y="712.4216867469879"/>
      <point x="157.74698795180723" y="712.4216867469879" type="curve" smooth="yes"/>
      <point x="122.13253012048193" y="712.4216867469879"/>
      <point x="102.75903614457832" y="687.4939759036145"/>
      <point x="110.02409638554217" y="649.8795180722891" type="curve" smooth="yes"/>
      <point x="226.91566265060237" y="42.4578313253012" type="line" smooth="yes"/>
      <point x="233.4698795180723" y="9.397590361445783"/>
      <point x="249.289156626506" y="-7.421686746987952"/>
    </contour>
  </outline>
</glyph>
<glyph name="X" format="2">
  <advance width="660.144578313253"/>
  <unicode hex="0058"/>
  <anchor x="291.50602409638554" y="0.0" name="bottom"/>
  <anchor x="402.79518072289153" y="705.0" name="top"/>
  <outline>
    <contour>
      <point x="53.69879518072289" y="-7.421686746987952" type="curve" smooth="yes"/>
      <point x="77.20481927710844" y="-7.421686746987952"/>
      <point x="91.73493975903614" y="0.8433734939759034"/>
      <point x="111.53012048192771" y="24.481927710843372" type="curve" smooth="yes"/>
      <point x="357.50602409638554" y="307.87951807228916" type="line"/>
      <point x="327.13253012048193" y="307.87951807228916" type="line"/>
      <point x="487.144578313253" y="31.325301204819276" type="line" smooth="yes"/>
      <point x="503.8072289156626" y="2.8433734939759034"/>
      <point x="514.9156626506025" y="-7.421686746987952"/>
      <point x="540.421686746988" y="-7.421686746987952" type="curve" smooth="yes"/>
      <point x="580.8795180722892" y="-7.421686746987952"/>
      <point x="602.3855421686748" y="29.325301204819276"/>
      <point x="580.0120481927711" y="66.80722891566265" type="curve" smooth="yes"/>
      <point x="393.8072289156626" y="383.0843373493976" type="line"/>
      <point x="393.8072289156626" y="335.65060240963857" type="line"/>
      <point x="662.1927710843373" y="638.1927710843373" type="line" smooth="yes"/>
      <point x="692.1204819277109" y="672.2530120481928"/>
      <point x="670.8795180722892" y="712.4216867469879"/>
      <point x="631.2891566265059" y="712.4216867469879" type="curve" smooth="yes"/>
      <point x="607.7831325301205" y="712.4216867469879"/>
      <point x="592.9638554216867" y="703.4457831325301"/>
      <point x="573.1686746987951" y="680.5180722891566" type="curve" smooth="yes"/>
      <point x="342.9518072289157" y="413.30120481927713" type="line"/>
      <point x="367.1686746987952" y="413.30120481927713" type="line"/>
      <point x="218.6024096385542" y="673.6746987951807" type="line" smooth="yes"/>
      <point x="201.93975903614455" y="702.156626506024"/>
      <point x="190.8313253012048" y="712.4216867469879"/>
      <point x="166.03614457831324" y="712.4216867469879" type="curve" smooth="yes"/>
      <point x="124.86746987951807" y="712.4216867469879"/>
      <point x="104.78313253012048" y="677.0963855421686"/>
      <point x="127.1566265060241" y="638.9036144578313" type="curve" smooth="yes"/>
      <point x="302.9156626506024" y="339.2289156626506" type="line"/>
      <point x="302.9156626506024" y="380.7951807228916" type="line"/>
      <point x="24.927710843373493" y="68.22891566265059" type="line" smooth="yes"/>
      <point x="-5.710843373493976" y="33.4578313253012"/>
      <point x="14.108433734939759" y="-7.421686746987952"/>
    </contour>
  </outline>
</glyph>
<glyph name="Y" format="2">
  <advance width="606.144578313253"/>
  <unicode hex="0059"/>
  <anchor x="263.9277108433735" y="0.0" name="bottom"/>
  <anchor x="366.66265060240966" y="705.0" name="top"/>
  <anchor x="89.28915662650603" y="705.0" name="topleft"/>
  <outline>
    <contour>
      <point x="263.21686746987956" y="-7.421686746987952" type="curve" smooth="yes"/>
      <point x="296.8313253012048" y="-7.421686746987952"/>
      <point x="316.9156626506024" y="9.240963855421686"/>
      <point x="322.4698795180723" y="43.855421686746986" type="curve" smooth="yes"/>
      <point x="373.49397590361446" y="364.1566265060241" type="line"/>
      <point x="340.144578313253" y="298.144578313253" type="line"/>
      <point x="639.0843373493975" y="638.1927710843373" type="line" smooth="yes"/>
      <point x="669.3012048192771" y="672.9638554216867"/>
      <point x="650.1927710843373" y="712.4216867469879"/>
      <point x="610.6024096385541" y="712.4216867469879" type="curve" smooth="yes"/>
      <point x="587.0963855421687" y="712.4216867469879"/>
      <point x="573.2771084337348" y="704.156626506024"/>
      <point x="552.7710843373493" y="680.5180722891566" type="curve" smooth="yes"/>
      <point x="309.50602409638554" y="402.83132530120486" type="line"/>
      <point x="334.03614457831327" y="402.83132530120486" type="line"/>
      <point x="184.13253012048193" y="673.6746987951807" type="line" smooth="yes"/>
      <point x="168.1807228915663" y="702.156626506024"/>
      <point x="154.93975903614455" y="712.4216867469879"/>
      <point x="130.144578313253" y="712.4216867469879" type="curve" smooth="yes"/>
      <point x="88.26506024096385" y="712.4216867469879"/>
      <point x="69.89156626506025" y="677.0963855421686"/>
      <point x="91.55421686746988" y="638.1927710843374" type="curve" smooth="yes"/>
      <point x="281.4698795180723" y="298.144578313253" type="line"/>
      <point x="270.3614457831325" y="364.1566265060241" type="line"/>
      <point x="221.04819277108433" y="52.831325301204814" type="line" smooth="yes"/>
      <point x="215.49397590361446" y="15.08433734939759"/>
      <point x="230.02409638554218" y="-7.421686746987952"/>
    </contour>
  </outline>
</glyph>
<glyph name="Z" format="2">
  <advance width="596.3253012048193"/>
  <unicode hex="005A"/>
  <anchor x="282.2409638554217" y="0.0" name="bottom"/>
  <anchor x="371.8192771084337" y="705.0" name="top"/>
  <outline>
    <contour>
      <point x="58.87951807228915" y="0.0" type="curve" smooth="yes"/>
      <point x="499.28915662650604" y="0.0" type="line" smooth="yes"/>
      <point x="529.7710843373493" y="0.0"/>
      <point x="551.433734939759" y="18.08433734939759"/>
      <point x="551.433734939759" y="52.433734939759034" type="curve" smooth="yes"/>
      <point x="551.433734939759" y="75.22891566265059"/>
      <point x="534.1927710843373" y="87.33734939759036"/>
      <point x="504.8433734939759" y="87.33734939759036" type="curve" smooth="yes"/>
      <point x="118.97590361445782" y="87.33734939759036" type="line"/>
      <point x="121.10843373493975" y="52.25301204819277" type="line"/>
      <point x="602.2650602409639" y="606.843373493976" type="line" smooth="yes"/>
      <point x="644.722891566265" y="655.1445783132531"/>
      <point x="634.0361445783133" y="705.0"/>
      <point x="579.4698795180723" y="705.0" type="curve" smooth="yes"/>
      <point x="158.32530120481928" y="705.0" type="line" smooth="yes"/>
      <point x="127.42168674698794" y="705.0"/>
      <point x="106.18072289156626" y="687.6265060240963"/>
      <point x="106.18072289156626" y="653.566265060241" type="curve" smooth="yes"/>
      <point x="106.18072289156626" y="630.7710843373494"/>
      <point x="122.42168674698794" y="617.6626506024096"/>
      <point x="151.7710843373494" y="617.6626506024096" type="curve" smooth="yes"/>
      <point x="522.6385542168675" y="617.6626506024096" type="line"/>
      <point x="521.2168674698795" y="653.4578313253012" type="line"/>
      <point x="41.06024096385542" y="99.57831325301204" type="line" smooth="yes"/>
      <point x="-3.240963855421686" y="49.433734939759034"/>
      <point x="14.0" y="0.0"/>
    </contour>
  </outline>
</glyph>
<glyph name="bracketleft" format="2">
  <advance width="332.89156626506025"/>
  <unicode hex="005B"/>
  <outline>
    <contour>
      <point x="102.01204819277109" y="-180.0" type="curve" smooth="yes"/>
      <point x="223.72289156626505" y="-180.0" type="line" smooth="yes"/>
      <point x="253.93975903614458" y="-180.0"/>
      <point x="270.1807228915663" y="-161.7590361445783"/>
      <point x="270.1807228915663" y="-134.40963855421688" type="curve" smooth="yes"/>
      <point x="270.1807228915663" y="-116.16867469879517"/>
      <point x="261.49397590361446" y="-102.48192771084338"/>
      <point x="234.12048192771084" y="-102.48192771084338" type="curve" smooth="yes"/>
      <point x="154.13253012048193" y="-102.48192771084338" type="line"/>
      <point x="269.33734939759034" y="627.4819277108434" type="line"/>
      <point x="351.32530120481925" y="627.4819277108434" type="line" smooth="yes"/>
      <point x="380.2530120481928" y="627.4819277108434"/>
      <point x="397.7831325301205" y="639.1686746987951"/>
      <point x="397.7831325301205" y="669.2289156626506" type="curve" smooth="yes"/>
      <point x="397.7831325301205" y="691.8915662650602"/>
      <point x="381.09638554216866" y="705.0"/>
      <point x="350.16867469879514" y="705.0" type="curve" smooth="yes"/>
      <point x="221.34939759036143" y="705.0" type="line" smooth="yes"/>
      <point x="197.26506024096386" y="705.0"/>
      <point x="178.3132530120482" y="688.1807228915662"/>
      <point x="174.89156626506025" y="665.0963855421687" type="curve" smooth="yes"/>
      <point x="50.71084337349397" y="-119.43373493975903" type="line" smooth="yes"/>
      <point x="44.86746987951807" y="-153.20481927710844"/>
      <point x="68.24096385542168" y="-180.0"/>
    </contour>
  </outline>
</glyph>
<glyph name="backslash" format="2">
  <advance width="296.51807228915663"/>
  <unicode hex="005C"/>
  <outline>
    <contour>
      <point x="184.86746987951807" y="-29.048192771084338" type="line" smooth="yes"/>
      <point x="194.13253012048193" y="-85.06024096385542"/>
      <point x="273.3614457831325" y="-71.24096385542168"/>
      <point x="264.0963855421687" y="-17.650602409638555" type="curve" smooth="yes"/>
      <point x="142.65060240963857" y="718.0481927710844" type="line" smooth="yes"/>
      <point x="133.3855421686747" y="774.3493975903615"/>
      <point x="56.1566265060241" y="756.9518072289156"/>
      <point x="64.42168674698796" y="705.6506024096386" type="curve" smooth="yes"/>
    </contour>
  </outline>
</glyph>
<glyph name="bracketright" format="2">
  <advance width="332.89156626506025"/>
  <unicode hex="005D"/>
  <outline>
    <contour>
      <point x="-11.277108433734941" y="-180.0" type="curve" smooth="yes"/>
      <point x="117.5421686746988" y="-180.0" type="line" smooth="yes"/>
      <point x="141.62650602409636" y="-180.0"/>
      <point x="160.57831325301206" y="-163.18072289156626"/>
      <point x="164.0" y="-140.09638554216866" type="curve" smooth="yes"/>
      <point x="288.1807228915663" y="644.433734939759" type="line" smooth="yes"/>
      <point x="294.0240963855422" y="678.2048192771084"/>
      <point x="270.6506024096385" y="705.0"/>
      <point x="236.87951807228916" y="705.0" type="curve" smooth="yes"/>
      <point x="115.16867469879517" y="705.0" type="line" smooth="yes"/>
      <point x="84.95180722891567" y="705.0"/>
      <point x="68.71084337349399" y="686.7590361445783"/>
      <point x="68.71084337349399" y="659.4096385542168" type="curve" smooth="yes"/>
      <point x="68.71084337349399" y="641.1686746987951"/>
      <point x="77.3975903614458" y="627.4819277108434"/>
      <point x="104.7710843373494" y="627.4819277108434" type="curve" smooth="yes"/>
      <point x="184.75903614457832" y="627.4819277108434" type="line"/>
      <point x="69.55421686746988" y="-102.48192771084338" type="line"/>
      <point x="-12.433734939759038" y="-102.48192771084338" type="line" smooth="yes"/>
      <point x="-41.361445783132524" y="-102.48192771084338"/>
      <point x="-58.89156626506024" y="-114.16867469879517"/>
      <point x="-58.89156626506024" y="-144.2289156626506" type="curve" smooth="yes"/>
      <point x="-58.89156626506024" y="-166.89156626506022"/>
      <point x="-42.20481927710843" y="-180.0"/>
    </contour>
  </outline>
</glyph>
<glyph name="asciicircum" format="2">
  <advance width="600.0"/>
  <unicode hex="005E"/>
  <outline>
    <contour>
      <point x="84.03614457831326" y="132.57831325301206" type="curve" smooth="yes"/>
      <point x="107.25301204819277" y="132.57831325301206"/>
      <point x="118.09638554216866" y="144.39759036144576"/>
      <point x="127.65060240963857" y="160.79518072289156" type="curve" smooth="yes"/>
      <point x="383.50602409638554" y="592.6024096385543" type="line"/>
      <point x="333.7831325301205" y="592.6024096385543" type="line"/>
      <point x="452.32530120481925" y="167.63855421686748" type="line" smooth="yes"/>
      <point x="457.7469879518072" y="149.24096385542168"/>
      <point x="464.87951807228916" y="132.57831325301206"/>
      <point x="490.8072289156627" y="132.57831325301206" type="curve" smooth="yes"/>
      <point x="518.3132530120482" y="132.57831325301206"/>
      <point x="533.4216867469879" y="151.81927710843374"/>
      <point x="524.5783132530121" y="184.03614457831324" type="curve" smooth="yes"/>
      <point x="408.87951807228916" y="593.5180722891566" type="line" smooth="yes"/>
      <point x="401.32530120481925" y="621.7349397590361"/>
      <point x="385.50602409638554" y="635.1325301204819"/>
      <point x="362.0" y="635.1325301204819" type="curve" smooth="yes"/>
      <point x="336.7831325301205" y="635.1325301204819"/>
      <point x="321.2530120481928" y="626.4457831325301"/>
      <point x="306.855421686747" y="602.0722891566265" type="curve" smooth="yes"/>
      <point x="58.39759036144579" y="185.48192771084337" type="line" smooth="yes"/>
      <point x="41.42168674698795" y="157.24096385542168"/>
      <point x="52.108433734939766" y="132.57831325301206"/>
    </contour>
  </outline>
</glyph>
<glyph name="underscore" format="2">
  <advance width="500.0"/>
  <unicode hex="005F"/>
  <outline>
    <contour>
      <point x="5.08433734939759" y="-62.855421686746986" type="curve" smooth="yes"/>
      <point x="404.8072289156627" y="-62.855421686746986" type="line" smooth="yes"/>
      <point x="425.7590361445783" y="-62.855421686746986"/>
      <point x="443.5783132530121" y="-51.3012048192771"/>
      <point x="443.5783132530121" y="-27.08433734939759" type="curve" smooth="yes"/>
      <point x="443.5783132530121" y="-10.975903614457831"/>
      <point x="432.6024096385542" y="0.0"/>
      <point x="407.9397590361446" y="0.0" type="curve" smooth="yes"/>
      <point x="7.506024096385541" y="0.0" type="line" smooth="yes"/>
      <point x="-13.44578313253012" y="0.0"/>
      <point x="-31.265060240963855" y="-10.55421686746988"/>
      <point x="-31.265060240963855" y="-36.06024096385542" type="curve" smooth="yes"/>
      <point x="-31.265060240963855" y="-52.87951807228915"/>
      <point x="-20.289156626506024" y="-62.855421686746986"/>
    </contour>
  </outline>
</glyph>
<glyph name="a" format="2">
  <advance width="537.4578313253012"/>
  <unicode hex="0061"/>
  <anchor x="239.3734939759036" y="-0.7108433734939759" name="bottom"/>
  <anchor x="405.50602409638554" y="0.0" name="ogonek"/>
  <anchor x="307.10843373493975" y="484.0" name="top"/>
  <outline>
    <contour>
      <point x="196.4698795180723" y="-9.421686746987952" type="curve" smooth="yes"/>
      <point x="265.6265060240964" y="-9.421686746987952"/>
      <point x="334.09638554216866" y="27.024096385542165"/>
      <point x="362.2289156626506" y="107.46987951807229" type="curve"/>
      <point x="354.3614457831325" y="121.6867469879518" type="line"/>
      <point x="342.9156626506024" y="48.855421686746986" type="line" smooth="yes"/>
      <point x="337.3614457831325" y="11.819277108433734"/>
      <point x="353.31325301204816" y="-7.421686746987952"/>
      <point x="382.66265060240966" y="-7.421686746987952" type="curve" smooth="yes"/>
      <point x="413.433734939759" y="-7.421686746987952"/>
      <point x="432.8072289156627" y="9.53012048192771"/>
      <point x="437.65060240963857" y="42.72289156626506" type="curve" smooth="yes"/>
      <point x="475.8313253012048" y="284.2289156626506" type="line" smooth="yes"/>
      <point x="495.5421686746988" y="409.20481927710847"/>
      <point x="442.12048192771084" y="496.9759036144578"/>
      <point x="296.68674698795184" y="496.9759036144578" type="curve" smooth="yes"/>
      <point x="241.24096385542168" y="496.9759036144578"/>
      <point x="179.10843373493975" y="485.10843373493975"/>
      <point x="126.0" y="458.66265060240966" type="curve" smooth="yes"/>
      <point x="64.72289156626506" y="429.71084337349396"/>
      <point x="100.2289156626506" y="362.0120481927711"/>
      <point x="152.3975903614458" y="387.69879518072287" type="curve" smooth="yes"/>
      <point x="196.10843373493975" y="410.5903614457831"/>
      <point x="238.13253012048193" y="418.87951807228916"/>
      <point x="284.73493975903614" y="418.87951807228916" type="curve" smooth="yes"/>
      <point x="364.22891566265065" y="418.87951807228916"/>
      <point x="394.67469879518075" y="380.12048192771084"/>
      <point x="383.2289156626506" y="310.0240963855422" type="curve" smooth="yes"/>
      <point x="363.9397590361446" y="189.57831325301206" type="line" smooth="yes"/>
      <point x="351.49397590361446" y="110.32530120481928"/>
      <point x="292.9759036144579" y="62.69879518072289"/>
      <point x="225.06024096385542" y="62.69879518072289" type="curve" smooth="yes"/>
      <point x="176.3012048192771" y="62.69879518072289"/>
      <point x="135.09638554216866" y="91.59036144578313"/>
      <point x="135.09638554216866" y="145.2409638554217" type="curve" smooth="yes"/>
      <point x="135.09638554216866" y="204.89156626506025"/>
      <point x="181.0120481927711" y="223.7831325301205"/>
      <point x="318.67469879518075" y="223.7831325301205" type="curve" smooth="yes"/>
      <point x="380.51807228915663" y="223.7831325301205" type="line"/>
      <point x="390.0722891566265" y="285.66265060240966" type="line"/>
      <point x="309.7831325301205" y="285.66265060240966" type="line" smooth="yes"/>
      <point x="118.9156626506024" y="285.66265060240966"/>
      <point x="34.78313253012048" y="241.39759036144576"/>
      <point x="34.78313253012048" y="138.97590361445782" type="curve" smooth="yes"/>
      <point x="34.78313253012048" y="54.39759036144578"/>
      <point x="109.07228915662651" y="-9.421686746987952"/>
    </contour>
  </outline>
</glyph>
<glyph name="b" format="2">
  <advance width="590.7469879518072"/>
  <unicode hex="0062"/>
  <anchor x="268.86746987951807" y="0.0" name="bottom"/>
  <anchor x="382.2409638554217" y="705.0" name="top"/>
  <outline>
    <contour>
      <point x="305.566265060241" y="-9.421686746987952" type="curve" smooth="yes"/>
      <point x="460.0120481927711" y="-9.421686746987952"/>
      <point x="550.4096385542168" y="124.31325301204821"/>
      <point x="550.4096385542168" y="287.421686746988" type="curve" smooth="yes"/>
      <point x="550.4096385542168" y="416.55421686746985"/>
      <point x="476.5421686746988" y="496.9759036144578"/>
      <point x="363.9638554216868" y="496.9759036144578" type="curve" smooth="yes"/>
      <point x="283.2048192771084" y="496.9759036144578"/>
      <point x="219.75903614457832" y="456.3734939759036"/>
      <point x="184.33734939759037" y="389.48192771084337" type="curve"/>
      <point x="194.91566265060243" y="389.48192771084337" type="line"/>
      <point x="237.0963855421687" y="653.3012048192771" type="line" smooth="yes"/>
      <point x="242.9397590361446" y="690.6265060240963"/>
      <point x="226.6987951807229" y="712.4216867469879"/>
      <point x="195.2168674698795" y="712.4216867469879" type="curve" smooth="yes"/>
      <point x="161.3132530120482" y="712.4216867469879"/>
      <point x="142.65060240963857" y="694.7590361445783"/>
      <point x="137.0963855421687" y="661.566265060241" type="curve" smooth="yes"/>
      <point x="40.33734939759036" y="51.69879518072289" type="line" smooth="yes"/>
      <point x="34.493975903614455" y="14.373493975903614"/>
      <point x="51.44578313253011" y="-7.421686746987952"/>
      <point x="82.92771084337349" y="-7.421686746987952" type="curve" smooth="yes"/>
      <point x="116.12048192771086" y="-7.421686746987952"/>
      <point x="133.36144578313252" y="10.240963855421686"/>
      <point x="138.2048192771084" y="43.433734939759034" type="curve" smooth="yes"/>
      <point x="150.2289156626506" y="122.0" type="line"/>
      <point x="141.51807228915663" y="104.22891566265059" type="line"/>
      <point x="164.51807228915663" y="28.024096385542173"/>
      <point x="228.83132530120483" y="-9.421686746987952"/>
    </contour>
    <contour>
      <point x="289.7951807228916" y="69.3855421686747" type="curve" smooth="yes"/>
      <point x="214.40963855421688" y="69.3855421686747"/>
      <point x="169.49397590361446" y="116.43373493975903"/>
      <point x="169.49397590361446" y="204.3975903614458" type="curve" smooth="yes"/>
      <point x="169.49397590361446" y="323.49397590361446"/>
      <point x="226.40963855421688" y="418.1686746987952"/>
      <point x="328.10843373493975" y="418.1686746987952" type="curve" smooth="yes"/>
      <point x="403.49397590361446" y="418.1686746987952"/>
      <point x="448.4096385542169" y="371.12048192771084"/>
      <point x="448.4096385542169" y="283.1566265060241" type="curve" smooth="yes"/>
      <point x="448.4096385542169" y="164.06024096385542"/>
      <point x="391.49397590361446" y="69.3855421686747"/>
    </contour>
  </outline>
</glyph>
<glyph name="c" format="2">
  <advance width="467.0843373493976"/>
  <unicode hex="0063"/>
  <anchor x="242.10843373493972" y="0.0" name="bottom"/>
  <anchor x="306.2409638554217" y="484.0" name="top"/>
  <outline>
    <contour>
      <point x="263.6385542168675" y="-9.421686746987952" type="curve" smooth="yes"/>
      <point x="309.0843373493976" y="-9.421686746987952"/>
      <point x="366.2168674698795" y="4.734939759036145"/>
      <point x="402.08433734939763" y="28.626506024096386" type="curve" smooth="yes"/>
      <point x="450.09638554216866" y="58.42168674698795"/>
      <point x="412.32530120481925" y="121.98795180722891"/>
      <point x="371.68674698795184" y="98.72289156626506" type="curve" smooth="yes"/>
      <point x="338.5301204819277" y="78.5421686746988"/>
      <point x="305.48192771084337" y="70.80722891566265"/>
      <point x="277.0120481927711" y="70.80722891566265" type="curve" smooth="yes"/>
      <point x="182.65060240963857" y="70.80722891566265"/>
      <point x="144.75903614457832" y="126.43373493975903"/>
      <point x="144.75903614457832" y="210.53012048192772" type="curve" smooth="yes"/>
      <point x="144.75903614457832" y="311.49397590361446"/>
      <point x="192.09638554216866" y="416.7469879518072"/>
      <point x="314.1927710843373" y="416.7469879518072" type="curve" smooth="yes"/>
      <point x="351.81927710843377" y="416.7469879518072"/>
      <point x="384.0" y="408.0120481927711"/>
      <point x="416.44578313253015" y="387.2530120481928" type="curve" smooth="yes"/>
      <point x="461.34939759036143" y="360.56626506024094"/>
      <point x="499.12048192771084" y="430.3975903614458"/>
      <point x="443.2409638554217" y="462.2168674698795" type="curve" smooth="yes"/>
      <point x="408.10843373493975" y="483.2409638554217"/>
      <point x="358.2409638554217" y="496.9759036144578"/>
      <point x="309.0843373493976" y="496.9759036144578" type="curve" smooth="yes"/>
      <point x="124.0" y="496.9759036144578"/>
      <point x="41.33734939759036" y="353.66265060240966"/>
      <point x="41.33734939759036" y="209.81927710843374" type="curve" smooth="yes"/>
      <point x="41.33734939759036" y="79.42168674698794"/>
      <point x="114.0" y="-9.421686746987952"/>
    </contour>
  </outline>
</glyph>
<glyph name="d" format="2">
  <advance width="590.7469879518072"/>
  <unicode hex="0064"/>
  <anchor x="262.7951807228916" y="0.0" name="bottom"/>
  <anchor x="294.6867469879518" y="245.710843373494" name="center"/>
  <anchor x="474.81927710843377" y="585.6867469879518" name="stroke"/>
  <anchor x="349.7469879518072" y="562.9036144578313" name="top"/>
  <anchor x="636.566265060241" y="705.0" name="topright"/>
  <outline>
    <contour>
      <point x="226.07228915662648" y="-9.421686746987952" type="curve" smooth="yes"/>
      <point x="306.83132530120486" y="-9.421686746987952"/>
      <point x="370.27710843373495" y="31.891566265060245"/>
      <point x="405.6987951807229" y="98.0722891566265" type="curve"/>
      <point x="401.8072289156627" y="119.39759036144578" type="line"/>
      <point x="391.07228915662654" y="53.12048192771084" type="line" smooth="yes"/>
      <point x="384.51807228915663" y="15.795180722891565"/>
      <point x="398.6265060240964" y="-7.421686746987952"/>
      <point x="430.10843373493975" y="-7.421686746987952" type="curve" smooth="yes"/>
      <point x="463.30120481927713" y="-7.421686746987952"/>
      <point x="482.6746987951807" y="10.240963855421686"/>
      <point x="488.2289156626506" y="44.14457831325301" type="curve" smooth="yes"/>
      <point x="584.9879518072289" y="654.722891566265" type="line" smooth="yes"/>
      <point x="590.8313253012049" y="692.0481927710844"/>
      <point x="575.3012048192771" y="712.4216867469879"/>
      <point x="543.8192771084338" y="712.4216867469879" type="curve" smooth="yes"/>
      <point x="510.6265060240964" y="712.4216867469879"/>
      <point x="490.54216867469876" y="697.6024096385541"/>
      <point x="485.69879518072287" y="664.4096385542168" type="curve" smooth="yes"/>
      <point x="441.51807228915663" y="384.03614457831327" type="line"/>
      <point x="448.51807228915663" y="383.32530120481925" type="line"/>
      <point x="425.51807228915663" y="459.5301204819277"/>
      <point x="361.9156626506024" y="496.9759036144578"/>
      <point x="285.18072289156623" y="496.9759036144578" type="curve" smooth="yes"/>
      <point x="130.73493975903614" y="496.9759036144578"/>
      <point x="40.33734939759036" y="363.95180722891564"/>
      <point x="40.33734939759036" y="200.13253012048193" type="curve" smooth="yes"/>
      <point x="40.33734939759036" y="71.71084337349399"/>
      <point x="114.20481927710841" y="-9.421686746987952"/>
    </contour>
    <contour>
      <point x="262.6385542168675" y="69.3855421686747" type="curve" smooth="yes"/>
      <point x="187.25301204819277" y="69.3855421686747"/>
      <point x="142.33734939759034" y="116.43373493975903"/>
      <point x="142.33734939759034" y="204.3975903614458" type="curve" smooth="yes"/>
      <point x="142.33734939759034" y="323.49397590361446"/>
      <point x="199.25301204819277" y="418.1686746987952"/>
      <point x="300.95180722891564" y="418.1686746987952" type="curve" smooth="yes"/>
      <point x="376.33734939759034" y="418.1686746987952"/>
      <point x="421.2530120481928" y="371.12048192771084"/>
      <point x="421.2530120481928" y="283.1566265060241" type="curve" smooth="yes"/>
      <point x="421.2530120481928" y="164.7710843373494"/>
      <point x="364.33734939759034" y="69.3855421686747"/>
    </contour>
  </outline>
</glyph>
<glyph name="e" format="2">
  <advance width="536.5060240963855"/>
  <unicode hex="0065"/>
  <anchor x="252.10843373493975" y="0.0" name="bottom"/>
  <anchor x="329.30120481927713" y="0.0" name="ogonek"/>
  <anchor x="315.6626506024096" y="484.0" name="top"/>
  <outline>
    <contour>
      <point x="274.50602409638554" y="-9.421686746987952" type="curve" smooth="yes"/>
      <point x="329.2409638554217" y="-9.421686746987952"/>
      <point x="397.9277108433735" y="6.024096385542169"/>
      <point x="444.0602409638554" y="37.891566265060234" type="curve" smooth="yes"/>
      <point x="490.2530120481928" y="69.55421686746988"/>
      <point x="461.72289156626505" y="134.54216867469881"/>
      <point x="409.26506024096386" y="102.59036144578313" type="curve" smooth="yes"/>
      <point x="371.0843373493976" y="78.54216867469879"/>
      <point x="326.3734939759036" y="69.3855421686747"/>
      <point x="281.7469879518072" y="69.3855421686747" type="curve" smooth="yes"/>
      <point x="176.3855421686747" y="69.3855421686747"/>
      <point x="122.20481927710844" y="137.9036144578313"/>
      <point x="139.65060240963857" y="244.57831325301206" type="curve" smooth="yes"/>
      <point x="144.0722891566265" y="271.8192771084337" type="line" smooth="yes"/>
      <point x="157.22891566265062" y="348.6024096385542"/>
      <point x="204.27710843373492" y="425.566265060241"/>
      <point x="304.26506024096386" y="425.566265060241" type="curve" smooth="yes"/>
      <point x="398.51807228915663" y="425.566265060241"/>
      <point x="430.5421686746988" y="356.04819277108436"/>
      <point x="418.3855421686747" y="268.95180722891564" type="curve"/>
      <point x="435.9638554216868" y="283.0843373493976" type="line"/>
      <point x="129.36144578313252" y="283.0843373493976" type="line"/>
      <point x="120.51807228915663" y="221.20481927710844" type="line"/>
      <point x="467.2168674698795" y="221.20481927710844" type="line" smooth="yes"/>
      <point x="487.0602409638554" y="221.20481927710844"/>
      <point x="497.0361445783132" y="226.49397590361446"/>
      <point x="500.0361445783132" y="251.89156626506025" type="curve" smooth="yes"/>
      <point x="514.1927710843373" y="375.578313253012"/>
      <point x="462.48192771084337" y="496.9759036144578"/>
      <point x="305.26506024096386" y="496.9759036144578" type="curve" smooth="yes"/>
      <point x="145.97590361445785" y="496.9759036144578"/>
      <point x="41.04819277108433" y="368.92771084337346"/>
      <point x="41.04819277108433" y="208.5301204819277" type="curve" smooth="yes"/>
      <point x="41.04819277108433" y="74.97590361445782"/>
      <point x="131.42168674698797" y="-9.421686746987952"/>
    </contour>
  </outline>
</glyph>
<glyph name="f" format="2">
  <advance width="347.2289156626506"/>
  <unicode hex="0066"/>
  <anchor x="112.16867469879519" y="0.0" name="bottom"/>
  <anchor x="223.4578313253012" y="705.0" name="top"/>
  <outline>
    <contour>
      <point x="111.16867469879519" y="-7.421686746987952" type="curve" smooth="yes"/>
      <point x="145.0722891566265" y="-7.421686746987952"/>
      <point x="164.44578313253012" y="9.53012048192771"/>
      <point x="170.0" y="42.72289156626506" type="curve" smooth="yes"/>
      <point x="228.33734939759037" y="410.3253012048193" type="line"/>
      <point x="325.1927710843373" y="410.3253012048193" type="line" smooth="yes"/>
      <point x="354.4096385542169" y="410.3253012048193"/>
      <point x="372.65060240963857" y="427.27710843373495"/>
      <point x="372.65060240963857" y="457.49397590361446" type="curve" smooth="yes"/>
      <point x="372.65060240963857" y="477.15662650602405"/>
      <point x="359.12048192771084" y="487.5542168674699"/>
      <point x="332.6144578313253" y="487.5542168674699" type="curve" smooth="yes"/>
      <point x="230.18072289156623" y="487.5542168674699" type="line"/>
      <point x="238.02409638554218" y="478.421686746988" type="line"/>
      <point x="244.60240963855424" y="518.7590361445783" type="line" smooth="yes"/>
      <point x="255.75903614457832" y="588.9879518072289"/>
      <point x="293.5180722891566" y="624.3253012048193"/>
      <point x="368.144578313253" y="629.3253012048192" type="curve" smooth="yes"/>
      <point x="396.5903614457831" y="631.3253012048193" type="line" smooth="yes"/>
      <point x="439.07228915662654" y="634.7469879518072"/>
      <point x="444.7590361445783" y="711.1325301204819"/>
      <point x="389.45783132530124" y="707.710843373494" type="curve" smooth="yes"/>
      <point x="358.32530120481925" y="705.710843373494" type="line" smooth="yes"/>
      <point x="229.44578313253012" y="697.289156626506"/>
      <point x="161.3132530120482" y="629.8915662650602"/>
      <point x="143.89156626506025" y="518.7831325301205" type="curve" smooth="yes"/>
      <point x="137.02409638554218" y="475.421686746988" type="line"/>
      <point x="151.28915662650604" y="487.5542168674699" type="line"/>
      <point x="83.2168674698795" y="487.5542168674699" type="line" smooth="yes"/>
      <point x="54.0" y="487.5542168674699"/>
      <point x="35.75903614457832" y="470.6024096385542"/>
      <point x="35.75903614457832" y="441.38554216867465" type="curve" smooth="yes"/>
      <point x="35.75903614457832" y="421.7228915662651"/>
      <point x="49.57831325301205" y="410.3253012048193"/>
      <point x="75.79518072289156" y="410.3253012048193" type="curve" smooth="yes"/>
      <point x="127.33734939759037" y="410.3253012048193" type="line"/>
      <point x="70.0" y="51.69879518072289" type="line" smooth="yes"/>
      <point x="64.1566265060241" y="14.373493975903614"/>
      <point x="79.6867469879518" y="-7.421686746987952"/>
    </contour>
  </outline>
</glyph>
<glyph name="g" format="2">
  <advance width="594.1686746987951"/>
  <unicode hex="0067"/>
  <anchor x="332.3975903614458" y="484.0" name="top"/>
  <outline>
    <contour>
      <point x="251.66265060240966" y="-189.42168674698794" type="curve" smooth="yes"/>
      <point x="387.85542168674704" y="-189.42168674698794"/>
      <point x="465.5180722891566" y="-118.04819277108433"/>
      <point x="487.22891566265054" y="19.060240963855424" type="curve" smooth="yes"/>
      <point x="553.1204819277108" y="435.855421686747" type="line" smooth="yes"/>
      <point x="558.9638554216867" y="473.1807228915663"/>
      <point x="544.144578313253" y="494.9759036144578"/>
      <point x="513.3734939759036" y="494.9759036144578" type="curve" smooth="yes"/>
      <point x="480.89156626506025" y="494.9759036144578"/>
      <point x="460.8072289156626" y="479.44578313253015"/>
      <point x="455.96385542168673" y="446.2530120481928" type="curve" smooth="yes"/>
      <point x="443.2289156626506" y="363.4216867469879" type="line"/>
      <point x="454.07228915662654" y="383.32530120481925" type="line"/>
      <point x="431.07228915662654" y="459.5301204819277"/>
      <point x="366.7590361445783" y="496.9759036144578"/>
      <point x="288.31325301204816" y="496.9759036144578" type="curve" smooth="yes"/>
      <point x="133.57831325301206" y="496.9759036144578"/>
      <point x="41.04819277108433" y="362.5301204819277"/>
      <point x="41.04819277108433" y="211.55421686746988" type="curve" smooth="yes"/>
      <point x="41.04819277108433" y="88.57831325301204"/>
      <point x="118.46987951807229" y="11.710843373493976"/>
      <point x="235.6024096385542" y="11.710843373493976" type="curve" smooth="yes"/>
      <point x="315.9397590361446" y="11.710843373493976"/>
      <point x="381.51807228915663" y="50.891566265060234"/>
      <point x="414.09638554216866" y="118.49397590361446" type="curve"/>
      <point x="406.0963855421687" y="119.49397590361446" type="line"/>
      <point x="388.65060240963857" y="13.506024096385541" type="line" smooth="yes"/>
      <point x="374.7831325301205" y="-72.56626506024097"/>
      <point x="321.4698795180723" y="-110.6144578313253"/>
      <point x="238.28915662650604" y="-110.6144578313253" type="curve" smooth="yes"/>
      <point x="181.66265060240963" y="-110.6144578313253"/>
      <point x="133.8192771084337" y="-94.16867469879517"/>
      <point x="88.50602409638554" y="-66.83132530120483" type="curve" smooth="yes"/>
      <point x="39.204819277108435" y="-39.168674698795186"/>
      <point x="2.9879518072289137" y="-106.86746987951807"/>
      <point x="48.99999999999999" y="-135.08433734939757" type="curve" smooth="yes"/>
      <point x="102.0" y="-168.3975903614458"/>
      <point x="172.81927710843374" y="-189.42168674698794"/>
    </contour>
    <contour>
      <point x="265.0602409638554" y="90.51807228915662" type="curve" smooth="yes"/>
      <point x="187.25301204819277" y="90.51807228915662"/>
      <point x="143.04819277108433" y="136.85542168674698"/>
      <point x="143.04819277108433" y="216.5301204819277" type="curve" smooth="yes"/>
      <point x="143.04819277108433" y="323.49397590361446"/>
      <point x="199.96385542168673" y="418.1686746987952"/>
      <point x="303.3734939759036" y="418.1686746987952" type="curve" smooth="yes"/>
      <point x="381.1807228915663" y="418.1686746987952"/>
      <point x="426.09638554216866" y="371.1204819277109"/>
      <point x="426.09638554216866" y="293.15662650602405" type="curve" smooth="yes"/>
      <point x="426.09638554216866" y="185.19277108433735"/>
      <point x="368.4698795180723" y="90.51807228915662"/>
    </contour>
  </outline>
</glyph>
<glyph name="h" format="2">
  <advance width="575.7469879518072"/>
  <unicode hex="0068"/>
  <anchor x="255.24096385542168" y="0.0" name="bottom"/>
  <anchor x="289.0843373493976" y="247.13253012048193" name="center"/>
  <anchor x="291.3734939759036" y="352.28915662650604" name="dot"/>
  <anchor x="225.63855421686748" y="585.6867469879518" name="stroke"/>
  <anchor x="360.95180722891564" y="705.0" name="top"/>
  <anchor x="277.5421686746988" y="705.0" name="topright"/>
  <outline>
    <contour>
      <point x="81.92771084337349" y="-7.421686746987952" type="curve" smooth="yes"/>
      <point x="115.12048192771084" y="-7.421686746987952"/>
      <point x="135.49397590361448" y="10.240963855421686"/>
      <point x="140.33734939759037" y="43.433734939759034" type="curve" smooth="yes"/>
      <point x="175.0722891566265" y="263.28915662650604" type="line" smooth="yes"/>
      <point x="189.51807228915663" y="356.67469879518075"/>
      <point x="242.72289156626505" y="416.03614457831327"/>
      <point x="332.13253012048193" y="416.03614457831327" type="curve" smooth="yes"/>
      <point x="400.65060240963857" y="416.03614457831327"/>
      <point x="427.4096385542169" y="374.9879518072289"/>
      <point x="413.9638554216868" y="292.4457831325301" type="curve" smooth="yes"/>
      <point x="375.65060240963857" y="51.69879518072289" type="line" smooth="yes"/>
      <point x="369.8072289156627" y="14.373493975903614"/>
      <point x="386.0481927710843" y="-7.421686746987952"/>
      <point x="417.5301204819277" y="-7.421686746987952" type="curve" smooth="yes"/>
      <point x="450.72289156626505" y="-7.421686746987952"/>
      <point x="471.09638554216866" y="10.240963855421686"/>
      <point x="475.93975903614455" y="43.433734939759034" type="curve" smooth="yes"/>
      <point x="514.9638554216867" y="293.5783132530121" type="line" smooth="yes"/>
      <point x="536.6746987951807" y="432.9759036144578"/>
      <point x="475.2530120481928" y="496.9759036144578"/>
      <point x="367.96385542168673" y="496.9759036144578" type="curve" smooth="yes"/>
      <point x="280.78313253012044" y="496.9759036144578"/>
      <point x="215.6265060240964" y="455.3734939759036"/>
      <point x="182.6265060240964" y="382.48192771084337" type="curve"/>
      <point x="193.6265060240964" y="382.48192771084337" type="line"/>
      <point x="236.80722891566268" y="654.0120481927711" type="line" smooth="yes"/>
      <point x="242.65060240963857" y="691.3373493975904"/>
      <point x="226.40963855421685" y="712.4216867469879"/>
      <point x="194.9277108433735" y="712.4216867469879" type="curve" smooth="yes"/>
      <point x="161.73493975903614" y="712.4216867469879"/>
      <point x="141.65060240963857" y="694.7590361445783"/>
      <point x="136.80722891566268" y="661.566265060241" type="curve" smooth="yes"/>
      <point x="40.75903614457832" y="53.12048192771084" type="line" smooth="yes"/>
      <point x="34.915662650602414" y="15.795180722891565"/>
      <point x="50.44578313253011" y="-7.421686746987952"/>
    </contour>
  </outline>
</glyph>
<glyph name="i" format="2">
  <advance width="242.56626506024097"/>
  <unicode hex="0069"/>
  <anchor x="82.92771084337349" y="0.0" name="bottom"/>
  <anchor x="114.59036144578313" y="0.0" name="ogonek"/>
  <outline>
    <contour>
      <point x="81.21686746987952" y="-7.421686746987952" type="curve" smooth="yes"/>
      <point x="115.12048192771084" y="-7.421686746987952"/>
      <point x="133.7831325301205" y="9.53012048192771"/>
      <point x="139.33734939759037" y="42.72289156626506" type="curve" smooth="yes"/>
      <point x="201.80722891566268" y="435.855421686747" type="line" smooth="yes"/>
      <point x="207.65060240963857" y="473.1807228915663"/>
      <point x="192.12048192771084" y="494.9759036144578"/>
      <point x="160.63855421686748" y="494.9759036144578" type="curve" smooth="yes"/>
      <point x="126.73493975903614" y="494.9759036144578"/>
      <point x="108.07228915662651" y="478.0240963855422"/>
      <point x="102.51807228915663" y="444.8313253012048" type="curve" smooth="yes"/>
      <point x="40.04819277108434" y="51.69879518072289" type="line" smooth="yes"/>
      <point x="34.204819277108435" y="14.373493975903614"/>
      <point x="49.73493975903614" y="-7.421686746987952"/>
    </contour>
    <contour>
      <point x="178.3734939759036" y="596.8072289156627" type="curve" smooth="yes"/>
      <point x="221.14457831325302" y="596.8072289156627"/>
      <point x="246.3855421686747" y="618.2048192771085"/>
      <point x="250.65060240963857" y="657.7108433734941" type="curve" smooth="yes"/>
      <point x="254.20481927710844" y="691.3493975903615"/>
      <point x="233.96385542168676" y="710.5903614457832"/>
      <point x="196.48192771084337" y="710.5903614457832" type="curve" smooth="yes"/>
      <point x="153.710843373494" y="710.5903614457832"/>
      <point x="127.75903614457832" y="689.1927710843373"/>
      <point x="124.20481927710844" y="649.6867469879519" type="curve" smooth="yes"/>
      <point x="121.36144578313254" y="616.0481927710844"/>
      <point x="140.89156626506025" y="596.8072289156627"/>
    </contour>
  </outline>
</glyph>
<glyph name="j" format="2">
  <advance width="246.27710843373495"/>
  <unicode hex="006A"/>
  <outline>
    <contour>
      <point x="-74.40963855421687" y="-191.0" type="curve" smooth="yes"/>
      <point x="55.024096385542165" y="-185.3132530120482"/>
      <point x="115.9156626506024" y="-130.18072289156626"/>
      <point x="136.04819277108433" y="-2.5421686746987966" type="curve" smooth="yes"/>
      <point x="205.51807228915663" y="435.855421686747" type="line" smooth="yes"/>
      <point x="211.36144578313252" y="473.1807228915663"/>
      <point x="195.12048192771084" y="494.9759036144578"/>
      <point x="163.63855421686745" y="494.9759036144578" type="curve" smooth="yes"/>
      <point x="130.44578313253012" y="494.9759036144578"/>
      <point x="111.78313253012048" y="478.0240963855422"/>
      <point x="106.22891566265059" y="444.8313253012048" type="curve" smooth="yes"/>
      <point x="33.91566265060241" y="-11.337349397590362" type="line" smooth="yes"/>
      <point x="22.469879518072286" y="-82.01204819277109"/>
      <point x="-17.445783132530124" y="-112.48192771084338"/>
      <point x="-79.25301204819277" y="-113.90361445783132" type="curve" smooth="yes"/>
      <point x="-129.42168674698794" y="-115.32530120481928"/>
      <point x="-129.42168674698794" y="-193.84337349397592"/>
    </contour>
    <contour>
      <point x="179.7951807228916" y="596.8072289156627" type="curve" smooth="yes"/>
      <point x="222.566265060241" y="596.8072289156627"/>
      <point x="247.80722891566265" y="618.2048192771085"/>
      <point x="252.0722891566265" y="657.7108433734941" type="curve" smooth="yes"/>
      <point x="255.6265060240964" y="691.3493975903615"/>
      <point x="235.3855421686747" y="710.5903614457832"/>
      <point x="197.90361445783134" y="710.5903614457832" type="curve" smooth="yes"/>
      <point x="155.13253012048193" y="710.5903614457832"/>
      <point x="129.18072289156626" y="689.1927710843373"/>
      <point x="125.62650602409639" y="649.6867469879519" type="curve" smooth="yes"/>
      <point x="122.78313253012048" y="616.0481927710844"/>
      <point x="142.3132530120482" y="596.8072289156627"/>
    </contour>
  </outline>
</glyph>
<glyph name="k" format="2">
  <advance width="516.3373493975904"/>
  <unicode hex="006B"/>
  <anchor x="228.855421686747" y="0.0" name="bottom"/>
  <anchor x="360.2409638554217" y="705.0" name="top"/>
  <outline>
    <contour>
      <point x="81.92771084337349" y="-7.421686746987952" type="curve" smooth="yes"/>
      <point x="115.83132530120481" y="-7.421686746987952"/>
      <point x="135.20481927710844" y="8.108433734939759"/>
      <point x="140.04819277108436" y="41.3012048192771" type="curve" smooth="yes"/>
      <point x="169.36144578313255" y="227.04819277108433" type="line"/>
      <point x="171.36144578313255" y="227.04819277108433" type="line"/>
      <point x="345.65060240963857" y="30.6144578313253" type="line" smooth="yes"/>
      <point x="367.6024096385542" y="4.397590361445783"/>
      <point x="379.5783132530121" y="-7.421686746987952"/>
      <point x="407.6385542168675" y="-7.421686746987952" type="curve" smooth="yes"/>
      <point x="445.67469879518075" y="-7.421686746987952"/>
      <point x="465.04819277108436" y="32.19277108433735"/>
      <point x="437.96385542168673" y="64.67469879518072" type="curve" smooth="yes"/>
      <point x="253.80722891566265" y="275.3734939759036" type="line"/>
      <point x="252.0722891566265" y="225.710843373494" type="line"/>
      <point x="476.12048192771084" y="423.5903614457832" type="line" smooth="yes"/>
      <point x="508.3373493975904" y="453.2289156626506"/>
      <point x="496.49397590361446" y="494.9759036144578"/>
      <point x="457.3253012048193" y="494.9759036144578" type="curve" smooth="yes"/>
      <point x="433.81927710843377" y="494.9759036144578"/>
      <point x="420.0" y="485.578313253012"/>
      <point x="398.2048192771084" y="465.7831325301205" type="curve" smooth="yes"/>
      <point x="178.91566265060243" y="274.9277108433735" type="line"/>
      <point x="176.91566265060243" y="274.9277108433735" type="line"/>
      <point x="236.80722891566268" y="652.5903614457832" type="line" smooth="yes"/>
      <point x="242.65060240963857" y="689.9156626506024"/>
      <point x="227.12048192771084" y="712.4216867469879"/>
      <point x="195.63855421686748" y="712.4216867469879" type="curve" smooth="yes"/>
      <point x="161.73493975903614" y="712.4216867469879"/>
      <point x="142.36144578313255" y="696.8915662650602"/>
      <point x="137.51807228915663" y="663.6987951807229" type="curve" smooth="yes"/>
      <point x="40.75903614457832" y="50.98795180722891" type="line" smooth="yes"/>
      <point x="34.915662650602414" y="13.662650602409638"/>
      <point x="50.44578313253011" y="-7.421686746987952"/>
    </contour>
  </outline>
</glyph>
<glyph name="l" format="2">
  <advance width="306.27710843373495"/>
  <unicode hex="006C"/>
  <anchor x="152.24096385542168" y="0.0" name="bottom"/>
  <anchor x="146.34939759036143" y="357.0" name="center"/>
  <anchor x="316.73493975903614" y="352.28915662650604" name="dot"/>
  <anchor x="194.2168674698795" y="705.0" name="top"/>
  <anchor x="287.6746987951807" y="705.0" name="topright"/>
  <outline>
    <contour>
      <point x="191.2168674698795" y="-9.421686746987952" type="curve" smooth="yes"/>
      <point x="204.9036144578313" y="-9.421686746987952"/>
      <point x="224.16867469879517" y="-7.710843373493976"/>
      <point x="235.3012048192771" y="-4.289156626506024" type="curve" smooth="yes"/>
      <point x="255.27710843373495" y="1.5542168674698793"/>
      <point x="271.3855421686747" y="17.373493975903614"/>
      <point x="271.3855421686747" y="49.144578313253014" type="curve" smooth="yes"/>
      <point x="271.3855421686747" y="71.09638554216866"/>
      <point x="263.83132530120486" y="77.65060240963855"/>
      <point x="252.56626506024097" y="77.65060240963857" type="curve" smooth="yes"/>
      <point x="245.43373493975903" y="77.65060240963855"/>
      <point x="236.56626506024097" y="74.36144578313254"/>
      <point x="219.83132530120483" y="74.36144578313254" type="curve" smooth="yes"/>
      <point x="170.33734939759034" y="74.36144578313254"/>
      <point x="149.1807228915663" y="101.80722891566265"/>
      <point x="159.33734939759037" y="167.1686746987952" type="curve" smooth="yes"/>
      <point x="236.80722891566268" y="653.3012048192771" type="line" smooth="yes"/>
      <point x="242.65060240963857" y="690.6265060240963"/>
      <point x="227.12048192771084" y="712.4216867469879"/>
      <point x="195.63855421686748" y="712.4216867469879" type="curve" smooth="yes"/>
      <point x="161.73493975903614" y="712.4216867469879"/>
      <point x="142.36144578313255" y="695.4698795180723"/>
      <point x="137.51807228915663" y="662.277108433735" type="curve" smooth="yes"/>
      <point x="58.33734939759036" y="166.45783132530119" type="line" smooth="yes"/>
      <point x="40.204819277108435" y="50.81927710843374"/>
      <point x="88.3132530120482" y="-9.421686746987952"/>
    </contour>
  </outline>
</glyph>
<glyph name="m" format="2">
  <advance width="865.722891566265"/>
  <unicode hex="006D"/>
  <anchor x="395.2168674698795" y="0.0" name="bottom"/>
  <anchor x="471.50602409638554" y="484.0" name="top"/>
  <outline>
    <contour>
      <point x="83.21686746987952" y="-7.421686746987952" type="curve" smooth="yes"/>
      <point x="117.12048192771084" y="-7.421686746987952"/>
      <point x="137.49397590361448" y="8.819277108433734"/>
      <point x="142.33734939759037" y="41.3012048192771" type="curve" smooth="yes"/>
      <point x="177.0722891566265" y="263.28915662650604" type="line" smooth="yes"/>
      <point x="192.22891566265062" y="359.2530120481928"/>
      <point x="243.3012048192771" y="416.03614457831327"/>
      <point x="317.6867469879518" y="416.03614457831327" type="curve" smooth="yes"/>
      <point x="380.20481927710847" y="416.03614457831327"/>
      <point x="404.09638554216866" y="375.9879518072289"/>
      <point x="391.65060240963857" y="296.0240963855422" type="curve" smooth="yes"/>
      <point x="352.33734939759034" y="50.27710843373494" type="line" smooth="yes"/>
      <point x="346.49397590361446" y="13.662650602409638"/>
      <point x="362.73493975903614" y="-7.421686746987952"/>
      <point x="394.92771084337346" y="-7.421686746987952" type="curve" smooth="yes"/>
      <point x="427.4096385542169" y="-7.421686746987952"/>
      <point x="447.7831325301205" y="9.53012048192771"/>
      <point x="452.6265060240964" y="41.3012048192771" type="curve" smooth="yes"/>
      <point x="487.3614457831325" y="263.28915662650604" type="line" smooth="yes"/>
      <point x="502.51807228915663" y="359.2530120481928"/>
      <point x="552.8795180722892" y="416.03614457831327"/>
      <point x="627.2650602409639" y="416.03614457831327" type="curve" smooth="yes"/>
      <point x="689.7831325301205" y="416.03614457831327"/>
      <point x="713.6746987951807" y="375.27710843373495"/>
      <point x="701.2289156626506" y="296.0240963855422" type="curve" smooth="yes"/>
      <point x="662.9156626506024" y="50.27710843373494" type="line" smooth="yes"/>
      <point x="657.3614457831325" y="13.662650602409638"/>
      <point x="673.3132530120482" y="-7.421686746987952"/>
      <point x="706.2168674698795" y="-7.421686746987952" type="curve" smooth="yes"/>
      <point x="738.6987951807229" y="-7.421686746987952"/>
      <point x="757.6506024096385" y="9.53012048192771"/>
      <point x="762.4939759036145" y="41.3012048192771" type="curve" smooth="yes"/>
      <point x="802.2289156626506" y="292.86746987951807" type="line" smooth="yes"/>
      <point x="823.9397590361446" y="432.5542168674699"/>
      <point x="765.0963855421686" y="496.9759036144578"/>
      <point x="662.6746987951807" y="496.9759036144578" type="curve" smooth="yes"/>
      <point x="578.3614457831325" y="496.9759036144578"/>
      <point x="514.7831325301205" y="455.0843373493976"/>
      <point x="481.9397590361446" y="381.0602409638554" type="curve"/>
      <point x="494.65060240963857" y="376.50602409638554" type="line"/>
      <point x="481.2530120481928" y="455.5301204819277"/>
      <point x="431.3855421686747" y="496.9759036144578"/>
      <point x="355.2289156626506" y="496.9759036144578" type="curve" smooth="yes"/>
      <point x="282.04819277108436" y="496.9759036144578"/>
      <point x="218.6265060240964" y="457.7951807228916"/>
      <point x="182.49397590361446" y="380.34939759036143" type="curve"/>
      <point x="190.36144578313252" y="362.289156626506" type="line"/>
      <point x="202.09638554216866" y="437.9879518072289" type="line" smooth="yes"/>
      <point x="207.65060240963854" y="473.6024096385542"/>
      <point x="192.40963855421688" y="494.9759036144578"/>
      <point x="161.2168674698795" y="494.9759036144578" type="curve" smooth="yes"/>
      <point x="129.73493975903614" y="494.9759036144578"/>
      <point x="110.07228915662651" y="478.73493975903614"/>
      <point x="105.2289156626506" y="446.2530120481928" type="curve" smooth="yes"/>
      <point x="42.04819277108434" y="50.27710843373494" type="line" smooth="yes"/>
      <point x="36.204819277108435" y="13.662650602409638"/>
      <point x="51.73493975903614" y="-7.421686746987952"/>
    </contour>
  </outline>
</glyph>
<glyph name="n" format="2">
  <advance width="575.7469879518072"/>
  <unicode hex="006E"/>
  <anchor x="253.95180722891564" y="0.0" name="bottom"/>
  <anchor x="324.53012048192767" y="484.0" name="top"/>
  <outline>
    <contour>
      <point x="82.21686746987952" y="-6.710843373493976" type="curve" smooth="yes"/>
      <point x="116.12048192771084" y="-6.710843373493976"/>
      <point x="135.49397590361448" y="10.240963855421686"/>
      <point x="140.33734939759037" y="43.433734939759034" type="curve" smooth="yes"/>
      <point x="175.0722891566265" y="263.28915662650604" type="line" smooth="yes"/>
      <point x="189.51807228915663" y="356.67469879518075"/>
      <point x="242.72289156626505" y="416.03614457831327"/>
      <point x="332.13253012048193" y="416.03614457831327" type="curve" smooth="yes"/>
      <point x="400.65060240963857" y="416.03614457831327"/>
      <point x="427.4096385542169" y="374.9879518072289"/>
      <point x="413.9638554216868" y="292.4457831325301" type="curve" smooth="yes"/>
      <point x="375.65060240963857" y="52.40963855421687" type="line" smooth="yes"/>
      <point x="369.8072289156627" y="15.08433734939759"/>
      <point x="386.0481927710843" y="-6.710843373493976"/>
      <point x="417.5301204819277" y="-6.710843373493976" type="curve" smooth="yes"/>
      <point x="450.72289156626505" y="-6.710843373493976"/>
      <point x="470.8072289156626" y="10.240963855421686"/>
      <point x="475.6506024096385" y="42.855421686746986" type="curve" smooth="yes"/>
      <point x="514.9638554216867" y="293.5783132530121" type="line" smooth="yes"/>
      <point x="536.6746987951807" y="432.9759036144579"/>
      <point x="475.2530120481928" y="496.9759036144578"/>
      <point x="367.96385542168673" y="496.9759036144578" type="curve" smooth="yes"/>
      <point x="280.78313253012044" y="496.9759036144578"/>
      <point x="215.6265060240964" y="455.3734939759036"/>
      <point x="182.6265060240964" y="382.48192771084337" type="curve"/>
      <point x="188.65060240963854" y="364.71084337349396" type="line"/>
      <point x="200.3855421686747" y="439.4096385542168" type="line" smooth="yes"/>
      <point x="206.2289156626506" y="476.0240963855422"/>
      <point x="190.6987951807229" y="494.9759036144578"/>
      <point x="160.9277108433735" y="494.9759036144578" type="curve" smooth="yes"/>
      <point x="128.73493975903614" y="494.9759036144578"/>
      <point x="107.65060240963855" y="478.0240963855422"/>
      <point x="102.80722891566265" y="444.8313253012048" type="curve" smooth="yes"/>
      <point x="41.04819277108434" y="52.98795180722891" type="line" smooth="yes"/>
      <point x="35.204819277108435" y="15.662650602409638"/>
      <point x="50.73493975903614" y="-6.710843373493976"/>
    </contour>
  </outline>
</glyph>
<glyph name="o" format="2">
  <advance width="565.0120481927711"/>
  <unicode hex="006F"/>
  <anchor x="252.24096385542168" y="0.0" name="bottom"/>
  <anchor x="283.2168674698795" y="244.13253012048193" name="center"/>
  <anchor x="314.7951807228916" y="0.0" name="ogonek"/>
  <anchor x="322.7951807228916" y="484.0" name="top"/>
  <anchor x="370.9277108433735" y="484.0" name="topright"/>
  <outline>
    <contour>
      <point x="260.6385542168675" y="-9.421686746987952" type="curve" smooth="yes"/>
      <point x="413.3734939759036" y="-9.421686746987952"/>
      <point x="523.9638554216867" y="110.09638554216869"/>
      <point x="523.9638554216867" y="279.73493975903614" type="curve" smooth="yes"/>
      <point x="523.9638554216867" y="413.28915662650604"/>
      <point x="441.144578313253" y="496.9759036144578"/>
      <point x="304.3734939759036" y="496.9759036144578" type="curve" smooth="yes"/>
      <point x="151.63855421686745" y="496.9759036144578"/>
      <point x="41.04819277108433" y="377.4578313253012"/>
      <point x="41.04819277108433" y="207.81927710843374" type="curve" smooth="yes"/>
      <point x="41.04819277108433" y="74.26506024096386"/>
      <point x="123.86746987951807" y="-9.421686746987952"/>
    </contour>
    <contour>
      <point x="263.34939759036143" y="69.3855421686747" type="curve" smooth="yes"/>
      <point x="187.96385542168673" y="69.3855421686747"/>
      <point x="143.04819277108433" y="116.43373493975903"/>
      <point x="143.04819277108433" y="204.3975903614458" type="curve" smooth="yes"/>
      <point x="143.04819277108433" y="323.49397590361446"/>
      <point x="199.96385542168673" y="418.1686746987952"/>
      <point x="301.66265060240966" y="418.1686746987952" type="curve" smooth="yes"/>
      <point x="377.04819277108436" y="418.1686746987952"/>
      <point x="421.9638554216868" y="371.12048192771084"/>
      <point x="421.9638554216868" y="283.1566265060241" type="curve" smooth="yes"/>
      <point x="421.9638554216868" y="164.06024096385542"/>
      <point x="365.04819277108436" y="69.3855421686747"/>
    </contour>
  </outline>
</glyph>
<glyph name="p" format="2">
  <advance width="590.7469879518072"/>
  <unicode hex="0070"/>
  <anchor x="255.37349397590359" y="0.0" name="bottom"/>
  <anchor x="331.6626506024096" y="484.0" name="top"/>
  <outline>
    <contour>
      <point x="53.63855421686746" y="-187.42168674698794" type="curve" smooth="yes"/>
      <point x="87.54216867469879" y="-187.42168674698794"/>
      <point x="105.49397590361447" y="-172.6024096385542"/>
      <point x="111.04819277108436" y="-139.40963855421688" type="curve" smooth="yes"/>
      <point x="149.9397590361446" y="104.2289156626506" type="line"/>
      <point x="141.51807228915663" y="104.2289156626506" type="line"/>
      <point x="164.51807228915663" y="28.02409638554217"/>
      <point x="228.83132530120483" y="-9.421686746987952"/>
      <point x="305.566265060241" y="-9.421686746987952" type="curve" smooth="yes"/>
      <point x="460.0120481927711" y="-9.421686746987952"/>
      <point x="550.4096385542168" y="124.31325301204821"/>
      <point x="550.4096385542168" y="287.421686746988" type="curve" smooth="yes"/>
      <point x="550.4096385542168" y="416.55421686746985"/>
      <point x="476.5421686746988" y="496.9759036144578"/>
      <point x="363.9638554216868" y="496.9759036144578" type="curve" smooth="yes"/>
      <point x="283.9156626506024" y="496.9759036144578"/>
      <point x="221.18072289156626" y="457.79518072289153"/>
      <point x="185.04819277108433" y="390.1927710843374" type="curve"/>
      <point x="189.65060240963854" y="368.86746987951807" type="line"/>
      <point x="200.3855421686747" y="435.855421686747" type="line" smooth="yes"/>
      <point x="206.2289156626506" y="473.1807228915663"/>
      <point x="192.12048192771087" y="494.9759036144578"/>
      <point x="160.63855421686745" y="494.9759036144578" type="curve" smooth="yes"/>
      <point x="127.44578313253011" y="494.9759036144578"/>
      <point x="108.07228915662651" y="477.3132530120482"/>
      <point x="102.51807228915663" y="443.4096385542168" type="curve" smooth="yes"/>
      <point x="11.759036144578314" y="-129.0120481927711" type="line" smooth="yes"/>
      <point x="5.91566265060241" y="-166.33734939759034"/>
      <point x="22.15662650602409" y="-187.42168674698794"/>
    </contour>
    <contour>
      <point x="289.7951807228916" y="69.3855421686747" type="curve" smooth="yes"/>
      <point x="214.40963855421688" y="69.3855421686747"/>
      <point x="169.49397590361446" y="116.43373493975903"/>
      <point x="169.49397590361446" y="204.3975903614458" type="curve" smooth="yes"/>
      <point x="169.49397590361446" y="323.49397590361446"/>
      <point x="226.40963855421688" y="418.1686746987952"/>
      <point x="328.10843373493975" y="418.1686746987952" type="curve" smooth="yes"/>
      <point x="403.49397590361446" y="418.1686746987952"/>
      <point x="448.4096385542169" y="371.12048192771084"/>
      <point x="448.4096385542169" y="283.1566265060241" type="curve" smooth="yes"/>
      <point x="448.4096385542169" y="164.06024096385542"/>
      <point x="391.49397590361446" y="69.3855421686747"/>
    </contour>
  </outline>
</glyph>
<glyph name="q" format="2">
  <advance width="590.7469879518072"/>
  <unicode hex="0071"/>
  <anchor x="257.2168674698795" y="0.0" name="bottom"/>
  <anchor x="334.2168674698795" y="484.0" name="top"/>
  <outline>
    <contour>
      <point x="401.10843373493975" y="-187.42168674698794" type="curve" smooth="yes"/>
      <point x="434.30120481927713" y="-187.42168674698794"/>
      <point x="454.3855421686747" y="-170.46987951807228"/>
      <point x="459.93975903614455" y="-135.855421686747" type="curve" smooth="yes"/>
      <point x="550.6987951807229" y="435.855421686747" type="line" smooth="yes"/>
      <point x="556.5421686746988" y="473.1807228915663"/>
      <point x="540.3012048192771" y="494.9759036144578"/>
      <point x="508.8192771084337" y="494.9759036144578" type="curve" smooth="yes"/>
      <point x="475.6265060240964" y="494.9759036144578"/>
      <point x="459.0963855421687" y="478.73493975903614"/>
      <point x="453.5421686746988" y="445.54216867469876" type="curve" smooth="yes"/>
      <point x="440.8072289156627" y="365.55421686746985" type="line"/>
      <point x="448.51807228915663" y="383.3253012048193" type="line"/>
      <point x="425.51807228915663" y="459.53012048192767"/>
      <point x="361.9156626506024" y="496.9759036144578"/>
      <point x="286.6024096385542" y="496.9759036144578" type="curve" smooth="yes"/>
      <point x="130.73493975903614" y="496.9759036144578"/>
      <point x="40.33734939759036" y="363.95180722891564"/>
      <point x="40.33734939759036" y="200.13253012048193" type="curve" smooth="yes"/>
      <point x="40.33734939759036" y="71.71084337349399"/>
      <point x="114.20481927710844" y="-9.421686746987952"/>
      <point x="226.78313253012047" y="-9.421686746987952" type="curve" smooth="yes"/>
      <point x="306.83132530120486" y="-9.421686746987952"/>
      <point x="370.27710843373495" y="31.89156626506024"/>
      <point x="405.69879518072287" y="98.07228915662651" type="curve"/>
      <point x="395.8313253012048" y="98.07228915662651" type="line"/>
      <point x="359.93975903614455" y="-129.0120481927711" type="line" smooth="yes"/>
      <point x="354.3855421686747" y="-166.33734939759034"/>
      <point x="369.6265060240964" y="-187.42168674698794"/>
    </contour>
    <contour>
      <point x="262.6385542168675" y="69.3855421686747" type="curve" smooth="yes"/>
      <point x="187.25301204819277" y="69.3855421686747"/>
      <point x="142.33734939759034" y="116.43373493975903"/>
      <point x="142.33734939759034" y="204.3975903614458" type="curve" smooth="yes"/>
      <point x="142.33734939759034" y="323.49397590361446"/>
      <point x="199.25301204819277" y="418.1686746987952"/>
      <point x="300.95180722891564" y="418.1686746987952" type="curve" smooth="yes"/>
      <point x="376.33734939759034" y="418.1686746987952"/>
      <point x="421.2530120481928" y="371.12048192771084"/>
      <point x="421.2530120481928" y="283.1566265060241" type="curve" smooth="yes"/>
      <point x="421.2530120481928" y="164.7710843373494"/>
      <point x="364.33734939759034" y="69.3855421686747"/>
    </contour>
  </outline>
</glyph>
<glyph name="r" format="2">
  <advance width="373.2048192771084"/>
  <unicode hex="0072"/>
  <anchor x="83.9277108433735" y="0.0" name="bottom"/>
  <anchor x="256.34939759036143" y="486.28915662650604" name="top"/>
  <outline>
    <contour>
      <point x="82.21686746987952" y="-7.421686746987952" type="curve" smooth="yes"/>
      <point x="116.83132530120481" y="-7.421686746987952"/>
      <point x="136.2048192771084" y="8.819277108433734"/>
      <point x="141.0481927710843" y="41.3012048192771" type="curve" smooth="yes"/>
      <point x="175.93975903614455" y="261.51807228915663" type="line" smooth="yes"/>
      <point x="189.80722891566262" y="347.0120481927711"/>
      <point x="225.85542168674698" y="398.0843373493976"/>
      <point x="325.10843373493975" y="407.3734939759036" type="curve" smooth="yes"/>
      <point x="349.1927710843374" y="409.7951807228916" type="line" smooth="yes"/>
      <point x="385.2530120481928" y="413.2168674698795"/>
      <point x="400.2048192771084" y="428.4578313253012"/>
      <point x="400.2048192771084" y="463.49397590361446" type="curve" smooth="yes"/>
      <point x="400.2048192771084" y="488.578313253012"/>
      <point x="390.7831325301205" y="498.9759036144578"/>
      <point x="358.12048192771084" y="497.5542168674699" type="curve" smooth="yes"/>
      <point x="274.9879518072289" y="494.0"/>
      <point x="206.2289156626506" y="450.0"/>
      <point x="179.65060240963854" y="370.71084337349396" type="curve"/>
      <point x="189.93975903614458" y="370.71084337349396" type="line"/>
      <point x="200.67469879518072" y="437.9879518072289" type="line" smooth="yes"/>
      <point x="206.51807228915663" y="474.6024096385542"/>
      <point x="190.6987951807229" y="494.9759036144578"/>
      <point x="159.50602409638552" y="494.9759036144578" type="curve" smooth="yes"/>
      <point x="128.02409638554215" y="494.9759036144578"/>
      <point x="107.65060240963855" y="478.73493975903614"/>
      <point x="102.80722891566265" y="446.2530120481928" type="curve" smooth="yes"/>
      <point x="40.33734939759036" y="50.27710843373494" type="line" smooth="yes"/>
      <point x="34.493975903614455" y="13.662650602409638"/>
      <point x="50.024096385542165" y="-7.421686746987952"/>
    </contour>
  </outline>
</glyph>
<glyph name="s" format="2">
  <advance width="484.2409638554217"/>
  <unicode hex="0073"/>
  <anchor x="214.81927710843374" y="0.0" name="bottom"/>
  <anchor x="273.6867469879518" y="484.0" name="top"/>
  <outline>
    <contour>
      <point x="224.26506024096386" y="-9.421686746987952" type="curve" smooth="yes"/>
      <point x="344.4819277108434" y="-9.421686746987952"/>
      <point x="425.0120481927711" y="47.13253012048193"/>
      <point x="425.0120481927711" y="145.2168674698795" type="curve" smooth="yes"/>
      <point x="425.0120481927711" y="208.48192771084337"/>
      <point x="382.87951807228916" y="249.74698795180723"/>
      <point x="308.0843373493976" y="266.7469879518072" type="curve" smooth="yes"/>
      <point x="214.63855421686748" y="287.7710843373494" type="line" smooth="yes"/>
      <point x="176.59036144578312" y="296.50602409638554"/>
      <point x="159.98795180722894" y="317.6867469879518"/>
      <point x="159.98795180722894" y="346.0240963855422" type="curve" smooth="yes"/>
      <point x="159.98795180722894" y="392.67469879518075"/>
      <point x="201.19277108433732" y="423.144578313253"/>
      <point x="271.10843373493975" y="423.144578313253" type="curve" smooth="yes"/>
      <point x="314.28915662650604" y="423.144578313253"/>
      <point x="355.578313253012" y="411.9879518072289"/>
      <point x="389.5783132530121" y="390.8072289156626" type="curve" smooth="yes"/>
      <point x="440.45783132530124" y="361.6987951807229"/>
      <point x="472.8313253012048" y="424.6867469879518"/>
      <point x="424.66265060240966" y="455.9277108433735" type="curve" smooth="yes"/>
      <point x="386.68674698795184" y="481.95180722891564"/>
      <point x="326.8433734939759" y="496.9759036144578"/>
      <point x="275.66265060240966" y="496.9759036144578" type="curve" smooth="yes"/>
      <point x="144.49397590361446" y="496.9759036144578"/>
      <point x="66.93975903614458" y="428.31325301204816"/>
      <point x="66.93975903614458" y="340.7590361445783" type="curve" smooth="yes"/>
      <point x="66.93975903614458" y="277.78313253012044"/>
      <point x="108.07228915662651" y="233.36144578313252"/>
      <point x="178.02409638554215" y="218.0722891566265" type="curve" smooth="yes"/>
      <point x="271.4698795180723" y="197.04819277108433" type="line" smooth="yes"/>
      <point x="310.3614457831325" y="188.6024096385542"/>
      <point x="331.9638554216868" y="168.71084337349396"/>
      <point x="331.9638554216868" y="137.95180722891567" type="curve" smooth="yes"/>
      <point x="331.9638554216868" y="92.01204819277109"/>
      <point x="293.04819277108436" y="64.40963855421687"/>
      <point x="225.13253012048193" y="64.40963855421687" type="curve" smooth="yes"/>
      <point x="176.81927710843374" y="64.40963855421687"/>
      <point x="129.10843373493975" y="75.6987951807229"/>
      <point x="87.3975903614458" y="99.01204819277109" type="curve" smooth="yes"/>
      <point x="35.65060240963855" y="127.12048192771084"/>
      <point x="5.987951807228917" y="56.57831325301205"/>
      <point x="56.71084337349397" y="29.33734939759036" type="curve" smooth="yes"/>
      <point x="99.55421686746988" y="5.024096385542169"/>
      <point x="160.6867469879518" y="-9.421686746987952"/>
    </contour>
  </outline>
</glyph>
